<?xml version="1.0" encoding="utf-8"?>
<!-- Generator: Adobe Illustrator 25.2.3, SVG Export Plug-In . SVG Version: 6.00 Build 0)  -->
<svg version="1.1" id="Layer_1" xmlns="http://www.w3.org/2000/svg" xmlns:xlink="http://www.w3.org/1999/xlink" x="0px" y="0px"
	 width="362px" height="248px" viewBox="0 0 362 248" style="enable-background:new 0 0 362 248;" xml:space="preserve">
<style type="text/css">
	.st0{fill:none;stroke:#F5F5F5;stroke-width:0.7;stroke-miterlimit:10;}
	.st1{fill:none;stroke:#F5F5F5;stroke-width:0.5;stroke-miterlimit:10;}
</style>
<polygon class="st0" points="195.82,170.48 200.57,141.56 195.82,45.86 251.76,34.06 305.79,65.83 304.08,149.93 "/>
<polyline class="st0" points="251.76,34.06 177.83,2.87 136.41,20.84 136.41,44.75 "/>
<path class="st0" d="M154.06,20.07l24.44,3.2c0.7,0.09,1.24-0.58,1.02-1.24l-4.37-12.72c-0.28-0.81-1.2-1.18-1.97-0.8l-19.42,9.79
	C152.93,18.71,153.14,19.95,154.06,20.07z"/>
<path class="st0" d="M177.01,23.07l-3.16-9.69c-0.28-0.81-1.2-1.18-1.97-0.8l-15.81,7.75"/>
<path class="st0" d="M190.28,15.65l1.84,7.46c0.32,1.28,1.41,2.22,2.72,2.35l25.55,2.45c1.08,0.1,1.48-1.37,0.5-1.83L193.4,13.09
	C191.7,12.29,189.83,13.82,190.28,15.65z"/>
<path class="st0" d="M213.56,27.25l-19.73-9.32c-1.06-0.5-2.2-0.09-2.78,0.73"/>
<path class="st0" d="M207.09,52.12l0.67,23.81c0.05,1.85,1.75,3.2,3.56,2.84l41.2-8.23c1.75-0.35,2.81-2.16,2.25-3.86l-7.44-22.65
	c-0.44-1.33-1.8-2.12-3.17-1.84l-34.87,7.14C207.98,49.61,207.05,50.78,207.09,52.12z"/>
<path class="st0" d="M208.28,77.53c0.42,0.11,0.86,0.12,1.31,0.03l41.2-8.23c1.75-0.35,2.81-2.16,2.25-3.86l-7.44-22.65
	c-0.08-0.25-0.2-0.48-0.34-0.69"/>
<path class="st0" d="M209.88,101.52l0.31,9.5c0.04,1.36,1.29,2.37,2.63,2.13l31.21-5.59c0.72-0.13,1.34-0.61,1.64-1.28l8.88-19.66
	c0.82-1.82-0.98-3.73-2.85-3l-40.4,15.75C210.42,99.71,209.85,100.58,209.88,101.52z"/>
<path class="st0" d="M210.27,111.54c0.31,0.09,0.65,0.11,0.99,0.05l31.21-5.59c0.72-0.13,1.34-0.61,1.64-1.28l8.88-19.66
	c0.24-0.52,0.26-1.05,0.12-1.52"/>
<path class="st0" d="M235.59,149.92l26.8-54.69c0.58-1.19,2.3-1.08,2.73,0.17l16.22,47.33c0.59,1.72-0.48,3.57-2.27,3.91l-40.1,7.7
	C236.45,154.83,234.46,152.22,235.59,149.92z"/>
<path class="st0" d="M263.02,94.57L279,141.22c0.59,1.72-0.48,3.57-2.27,3.91l-40.1,7.7c-0.32,0.06-0.62,0.07-0.92,0.04"/>
<path class="st0" d="M272.88,83.6l18.18,48.85c1.2,3.22,5.96,2.41,6.02-1.03l1.03-54.72c0.03-1.49-1.33-2.63-2.79-2.33l-19.49,3.92
	C273.43,78.79,272.03,81.31,272.88,83.6z"/>
<path class="st0" d="M291.3,133.14c1.8,0.58,4.06-0.55,4.11-2.91l1.03-54.72c0.01-0.42-0.09-0.81-0.28-1.15"/>
<path class="st0" d="M207.65,136.01l-1.99,21.7c-0.13,1.43,1.07,2.63,2.5,2.49l9.62-0.91c0.81-0.08,1.51-0.57,1.86-1.3l9.19-19.49
	c0.68-1.44-0.28-3.12-1.87-3.26l-16.62-1.47C208.97,133.65,207.77,134.66,207.65,136.01z"/>
<path class="st0" d="M205.8,158.73c0.31,0.12,0.66,0.17,1.02,0.14l9.62-0.91c0.81-0.08,1.51-0.57,1.86-1.3l9.19-19.49
	c0.28-0.6,0.28-1.23,0.07-1.79"/>
<path class="st0" d="M100.26,93.45l-19.95-9.18c-2.37-1.09-3.89-3.46-3.89-6.07v-7.04c0-4.88,5.05-8.11,9.48-6.07l19.95,9.18
	c2.37,1.09,3.89,3.46,3.89,6.07v7.04C109.74,92.25,104.69,95.49,100.26,93.45z"/>
<path class="st1" d="M108.44,88.34l-17.31-7.97c-2.37-1.09-3.89-3.46-3.89-6.07v-7.04c0-0.15,0-0.29,0.01-0.43"/>
<path class="st0" d="M116.55,89.61c-0.27,0.12-0.56,0.22-0.85,0.31"/>
<path class="st1" d="M89.13,61.88c1.6-0.63,3.46-0.65,5.23,0.16l19.95,9.18c0.48,0.22,0.93,0.49,1.33,0.81"/>
<path class="st1" d="M124.85,68.01c0.47,0.29,0.9,0.63,1.28,1.02"/>
<path class="st1" d="M98.05,58.63c1.54-0.54,3.3-0.52,4.97,0.25l14.6,6.72"/>
<path class="st1" d="M126.74,62.65l4.96,2.28c0.54,0.25,1.03,0.56,1.48,0.93"/>
<path class="st1" d="M106.77,55.5c1.54-0.54,3.3-0.52,4.97,0.25l8.02,3.69"/>
<path class="st1" d="M128.94,57.48l10.25,4.72c0.66,0.3,1.26,0.71,1.77,1.19"/>
<path class="st1" d="M114.26,52.76c1.54-0.54,3.3-0.52,4.97,0.25l1.76,0.81"/>
<path class="st1" d="M131.39,51.76l16.12,7.42c0.78,0.36,1.48,0.86,2.05,1.47"/>
<path class="st1" d="M133.7,46.8c0.45,0.1,0.9,0.25,1.35,0.46L155,56.44c2.27,1.05,3.76,3.27,3.88,5.75"/>
<path class="st1" d="M137.62,44.31c1.54-0.54,3.3-0.52,4.97,0.25l19.95,9.18c2.37,1.09,3.89,3.46,3.89,6.07v5.69"/>
<path class="st0" d="M100.48,92.44l-19.6-9.15c-1.99-0.93-3.26-2.93-3.26-5.12v-6.95c0-4.14,4.3-6.87,8.05-5.12l19.6,9.15
	c1.99,0.93,3.26,2.93,3.26,5.12v6.95C108.53,91.45,104.23,94.19,100.48,92.44z"/>
<line class="st0" x1="122.08" y1="49.94" x2="80.46" y2="65.01"/>
<path class="st0" d="M171.28,67.64c0.37-0.82,0.58-1.75,0.58-2.74v-7.04c0-2.61-1.52-4.98-3.89-6.07l-19.95-9.18
	c-1.78-0.82-3.66-0.79-5.27-0.14l0-0.01l-7.26,2.63"/>
<line class="st0" x1="105.29" y1="93.68" x2="116.55" y2="89.61"/>
<path class="st0" d="M185.92,98.21l-19.74,6.29c-6.29,2.01-12.72-2.69-12.72-9.29V89.7c0-4.25,2.75-8,6.79-9.29l19.74-6.29
	c6.29-2.01,12.72,2.69,12.72,9.29v5.51C192.71,93.16,189.96,96.92,185.92,98.21z"/>
<path class="st1" d="M188.22,77.08c0.83,1.42,1.31,3.09,1.31,4.9v5.51c0,4.25-2.75,8-6.79,9.29l-19.74,6.29
	c-0.37,0.12-0.74,0.21-1.1,0.28"/>
<path class="st1" d="M157.7,103.25c-4.15-1.03-7.42-4.77-7.42-9.48v-5.51c0-4.25,2.75-8,6.79-9.29l19.74-6.29
	c2.07-0.66,4.16-0.59,6.02,0.03"/>
<path class="st1" d="M184.94,75.41c0.95,1.49,1.51,3.28,1.51,5.23v5.51c0,4.25-2.75,8-6.79,9.29l-19.74,6.29
	c-0.43,0.14-0.86,0.24-1.29,0.32"/>
<path class="st1" d="M153.35,101.5c-3.53-1.41-6.15-4.85-6.15-9.07v-5.51c0-4.25,2.75-8,6.79-9.29l19.74-6.29
	c2.11-0.67,4.23-0.59,6.12,0.06"/>
<path class="st1" d="M182.58,75.15c0.6,1.26,0.94,2.68,0.94,4.2v5.51c0,4.25-2.75,8-6.79,9.29l-19.74,6.29
	c-0.04,0.01-0.08,0.02-0.12,0.04"/>
<path class="st1" d="M150.28,100.15c-3.46-1.45-6-4.85-6-9.01v-5.51c0-4.25,2.75-8,6.79-9.29l19.74-6.29
	c2.09-0.67,4.19-0.59,6.07,0.04"/>
<path class="st1" d="M180.17,75.59c0.19,0.76,0.3,1.57,0.3,2.41v5.51c0,4.25-2.75,8-6.79,9.29l-18.02,5.74"/>
<path class="st1" d="M147.21,98.8c-3.45-1.45-5.99-4.85-5.99-9v-5.51c0-4.25,2.75-8,6.79-9.29l19.74-6.29
	c2.07-0.66,4.16-0.59,6.03,0.03"/>
<path class="st1" d="M177.59,76.42c0,0.11,0,0.21,0,0.32v5.51c0,4.25-2.75,8-6.79,9.29l-15.77,5.03"/>
<path class="st1" d="M144.17,97.46c-3.36-1.49-5.82-4.84-5.82-8.93v-5.51c0-4.25,2.75-8,6.79-9.29l19.74-6.29
	c2.07-0.66,4.15-0.59,6.01,0.02"/>
<path class="st1" d="M174.52,77.41v3.5c0,4.25-2.75,8-6.79,9.29l-12.82,4.09"/>
<path class="st1" d="M141.51,96.3c-3.57-1.39-6.24-4.85-6.24-9.1v-5.51c0-4.25,2.75-8,6.79-9.29l19.74-6.29
	c2.12-0.68,4.26-0.59,6.16,0.07"/>
<path class="st1" d="M171.6,78.34v1.28c0,4.25-2.75,8-6.79,9.29l-9.91,3.16"/>
<path class="st1" d="M138.38,94.93c-3.47-1.44-6.03-4.85-6.03-9.02V80.4c0-4.25,2.75-8,6.79-9.29l19.74-6.29
	c2.09-0.67,4.2-0.59,6.08,0.05"/>
<path class="st1" d="M168.47,79.34c-0.42,3.8-3.03,7.04-6.73,8.22l-6.84,2.18"/>
<path class="st1" d="M135.27,93.56c-3.45-1.45-5.98-4.85-5.98-9v-5.51c0-4.25,2.75-8,6.79-9.29l19.74-6.29
	c2.09-0.67,4.19-0.59,6.07,0.04"/>
<path class="st1" d="M164.6,80.58c-1.07,2.61-3.25,4.68-6.06,5.58l-3.21,1.02"/>
<path class="st1" d="M132.36,92.27c-3.59-1.38-6.27-4.85-6.27-9.12v-5.51c0-4.25,2.75-8,6.79-9.29l19.74-6.29
	c2.09-0.67,4.2-0.59,6.08,0.05"/>
<path class="st0" d="M159.04,82.58c-0.51,0.5-1.08,0.94-1.69,1.31"/>
<path class="st0" d="M185.42,96.8l-19.55,6.26c-5.42,1.74-10.97-2.31-10.97-8.01v-5.24c0-3.65,2.36-6.89,5.84-8.01l19.55-6.26
	c5.42-1.74,10.97,2.31,10.97,8.01v5.24C191.27,92.45,188.9,95.69,185.42,96.8z"/>
<path class="st0" d="M124.19,71.45c1.18-2.09,3.13-3.72,5.52-4.48l19.74-6.29c2.11-0.67,4.23-0.59,6.12,0.06l31.52,13.84"/>
<path class="st0" d="M158.69,103.85c0,0-30.22-13.27-30.22-13.27c-1.14-0.55-2.16-1.31-3.01-2.24"/>
<path class="st0" d="M177.75,100.81c0.41,2.28,0.23,4.64-0.62,6.9c-2.78,7.36-11.74,10.79-20.01,7.66
	c-7.48-2.83-11.83-10.06-10.53-16.86"/>
<path class="st1" d="M176.53,101.2c0.31,2.01,0.13,4.07-0.62,6.05c-2.56,6.76-10.79,9.9-18.38,7.03
	c-6.77-2.56-10.75-9.05-9.72-15.21"/>
<line class="st1" x1="158.38" y1="114.58" x2="158.36" y2="103.7"/>
<line class="st1" x1="173.78" y1="110.81" x2="168.72" y2="103.69"/>
<path class="st0" d="M152.75,112.98l-0.29,4.27l24.65,12.04c0,0,7.75-3.41,6.41-14.64l-7.82-4.23"/>
<polyline class="st0" points="182.83,99.19 186.45,107.58 189.53,106.46 185.9,98.08 "/>
<path class="st0" d="M186.45,107.58c0,0,0.79,3.6-2.81,6.97c-0.03,0.03-0.01,0.09,0.04,0.08l3.54-0.74c0,0,3.86-3.46,2.31-7.42"/>
<path class="st0" d="M177.12,129.29l7.63-1.9c0,0,6.23-6.56,2.47-13.51"/>
<path class="st0" d="M160.87,121.59v4.2l9.75,4.76c0,0,2.55,0.11,2.3-3.31"/>
<path class="st0" d="M170.62,130.55l3.43-0.31c0,0,0.97-0.52,0.64-2.13"/>
<path class="st0" d="M135.47,45.09c-0.88-1.84-1.85-2.86-2.89-2.89c-3.03-0.1-5.99,8.05-8.06,20.67c0,0-5.31,8.59-2.61,26.74
	c-0.04,1.01-0.08,2.04-0.12,3.07c-0.93,28.04,2.4,50.91,7.43,51.08c4.89,0.16,9.59-21.2,10.7-48.15"/>
<path class="st1" d="M129.29,42.2c-3.01-0.1-5.95,7.96-8.03,20.46c-5.69,11-2.65,26.95-2.65,26.95s-0.08,2.04-0.12,3.07
	c-0.93,28.04,2.4,50.91,7.43,51.08"/>
<path class="st0" d="M127.22,42.2c-3.01-0.1-5.95,7.96-8.03,20.46c-6.68,9.56-2.65,26.95-2.65,26.95c-0.04,1.01-0.08,2.04-0.12,3.07
	c-0.93,28.04,2.4,50.91,7.43,51.08"/>
<line class="st0" x1="129.21" y1="143.76" x2="123.86" y2="143.76"/>
<line class="st0" x1="127.22" y1="42.2" x2="132.57" y2="42.2"/>
<line class="st1" x1="132.95" y1="139.76" x2="130.83" y2="91.61"/>
<line class="st1" x1="124.87" y1="136.77" x2="130.83" y2="91.61"/>
<line class="st1" x1="121.63" y1="102.05" x2="130.83" y2="91.61"/>
<path class="st0" d="M135.47,45.09l-0.87,0.32c-0.87,0.32-7.37,16.2-7.37,16.2c-6.42,12.64-1.76,26.74-1.76,26.74"/>
<polyline class="st0" points="139.75,99.07 141.22,118.4 137.76,145.63 195.82,170.48 "/>
<path class="st0" d="M195.61,32.21l3.7,7.7c0.63,1.31,2.07,2,3.49,1.68l25.99-5.93c0.85-0.19,0.8-1.42-0.06-1.55l-31.15-4.57
	C196.09,29.33,194.96,30.86,195.61,32.21z"/>
<path class="st0" d="M223.76,36.81l-25.03-3.68c-0.97-0.14-1.79,0.46-2.06,1.28"/>
<path class="st0" d="M40.6,117.22L9.25,103.67c-3.13-1.35-5.16-4.44-5.16-7.84v-9.99c0-3.3,3.38-5.52,6.41-4.21l31.36,13.55
	c3.13,1.35,5.16,4.44,5.16,7.84v9.99C47.01,116.31,43.63,118.53,40.6,117.22z"/>
<line class="st0" x1="7.69" y1="81.36" x2="83.12" y2="65.55"/>
<line class="st0" x1="44.36" y1="117.17" x2="104.36" y2="92.78"/>
<line class="st1" x1="4.09" y1="87.08" x2="90.37" y2="68.28"/>
<line class="st1" x1="4.09" y1="92.65" x2="94.4" y2="70.17"/>
<line class="st1" x1="9.25" y1="103.67" x2="108.53" y2="80.37"/>
<line class="st1" x1="39.28" y1="94.07" x2="99.88" y2="72.73"/>
<line class="st1" x1="47.01" y1="105.97" x2="108.53" y2="83.4"/>
<line class="st1" x1="47.01" y1="110.27" x2="108.53" y2="87.32"/>
<line class="st0" x1="206.15" y1="152.33" x2="212.53" y2="158.33"/>
<line class="st0" x1="254.2" y1="136.58" x2="272.63" y2="145.92"/>
<line class="st1" x1="197.82" y1="36.81" x2="212.41" y2="35.15"/>
<line class="st0" x1="207.2" y1="56.27" x2="216.68" y2="55.06"/>
<line class="st0" x1="217.38" y1="47.69" x2="216.68" y2="55.06"/>
<line class="st0" x1="247.74" y1="69.95" x2="216.68" y2="55.06"/>
<ellipse transform="matrix(0.9053 -0.4248 0.4248 0.9053 -2.5405 109.5832)" class="st0" cx="244.49" cy="60.49" rx="4.01" ry="7.29"/>
<ellipse transform="matrix(0.9053 -0.4248 0.4248 0.9053 -29.5822 126.67)" class="st0" cx="269.28" cy="129.68" rx="4.01" ry="7.29"/>
<path class="st1" d="M283.46,76.77c2.2,3.16,4.02,7.25,5.11,11.88c2.51,10.71,0.21,20.58-5.13,23.34"/>
<path class="st1" d="M280.12,77.44c2,3.06,3.64,6.9,4.65,11.2c2,8.53,0.95,16.53-2.26,20.83"/>
<ellipse transform="matrix(0.9053 -0.4248 0.4248 0.9053 0.7404 102.0244)" class="st0" cx="229.17" cy="49.35" rx="1.31" ry="2.37"/>
<line class="st1" x1="207.72" y1="74.64" x2="230.18" y2="51.5"/>
<line class="st1" x1="228.17" y1="47.2" x2="210.21" y2="49.15"/>
<line class="st1" x1="210.03" y1="106" x2="233.33" y2="107.64"/>
<line class="st1" x1="242.26" y1="87.3" x2="233.33" y2="107.64"/>
<path class="st1" d="M260.39,99.3c0,0,5.11,5.92,3.7,15.01l-11.89,1.71"/>
<path class="st1" d="M247.34,125.93c0,0,11.73,3.57,6.86,10.64l-12.67,1.22"/>
<polyline class="st0" points="223.65,165.2 223.65,166.56 252.66,178.27 283.47,168.98 "/>
<path class="st0" d="M224.31,166.83l-1.74,2.92c-0.14,0.24,0.1,0.51,0.35,0.41l4.78-1.96"/>
<line class="st0" x1="252.66" y1="178.37" x2="252.66" y2="159.7"/>
<polyline class="st1" points="249.23,160.34 249.23,174.05 226.12,164.73 "/>
<path class="st0" d="M288.02,152.98v39.51c0,1.16-0.94,2.1-2.1,2.1h-1.1c-1.16,0-2.1-0.94-2.1-2.1v-38.51"/>
<path class="st0" d="M291.72,152.28l15.75,22.16c0.67,0.94,0.45,2.26-0.49,2.93l-0.9,0.64c-0.94,0.67-2.26,0.45-2.93-0.49
	l-15.12-21.28"/>
<path class="st0" d="M178.74,163.17l6.07,35.71c0.19,1.14-0.57,2.23-1.72,2.42l-1.09,0.19c-1.14,0.19-2.23-0.57-2.42-1.72
	l-6.65-39.08"/>
<path class="st0" d="M172.38,160.45l-16.61,28.77c-0.58,1-1.86,1.35-2.87,0.77l-0.96-0.55c-1-0.58-1.35-1.86-0.77-2.87l16.29-28.22"
	/>
<path class="st0" d="M176.88,70.09c0,0,0.36-10.14,0-12.19c-0.36-2.05-0.35-9.55-13.21-14.72"/>
<path class="st0" d="M153.66,39.37c1.43-1.05,3.59-1.36,5.73-0.65c3.13,1.04,5.01,3.89,4.18,6.36c-0.15,0.46-0.39,0.87-0.69,1.23
	l-1.95,2.24"/>
<line class="st0" x1="149.41" y1="43.19" x2="153.66" y2="39.37"/>
<polygon class="st0" points="98.12,177.28 62.46,188.97 40.49,177.76 40.49,153.51 76.15,141.82 98.12,153.03 "/>
<polyline class="st1" points="40.49,153.51 62.46,164.72 62.46,188.97 51.47,183.36 51.47,159.11 "/>
<line class="st0" x1="62.46" y1="164.72" x2="98.12" y2="153.03"/>
<line class="st1" x1="62.46" y1="176.41" x2="98.12" y2="164.72"/>
<line class="st1" x1="73.83" y1="161" x2="73.83" y2="185.23"/>
<line class="st1" x1="86.56" y1="156.88" x2="86.56" y2="180.96"/>
<polyline class="st1" points="51.47,170.8 62.46,176.41 40.49,165.2 "/>
<path class="st0" d="M45.15,180.14c0,0-4.32,0.24-4.65,4.68c-0.01,0.18-0.1,0.35-0.26,0.46c-0.25,0.17-0.7,0.32-1.27-0.03
	c-0.17-0.1-0.28-0.29-0.28-0.49c-0.01-1.05,0.25-4.54,4.22-5.76l-11.44,3.44v-29.4l4.65-7.93l41.44-12.87l6.63,5.33v8.36"/>
<path class="st0" d="M80.29,183.1v4.83c0,0.72,0.57,1.3,1.28,1.33c1.31,0.05,3.21-0.17,3.69-1.74c0.04-0.12,0.05-0.24,0.05-0.36
	v-5.68"/>
<path class="st0" d="M64.98,159.33c0.46,0.21,0.95,0.34,1.46,0.37c0.96,0.06,2.35,0,1.8-0.86l-11.77-5.2
	c-0.69-0.31-0.57-1.34,0.18-1.45c0.21-0.03,0.44-0.05,0.71-0.06c0.11,0,0.22,0.02,0.32,0.06l4.78,2.06c0,0,1.45,0.34,1.23-0.75
	l-2.5-1.38c0,0-0.15-1.17,1.76-0.88l2.86,1.32c0,0,2.42,0.95,2.06-0.66l-1.98-1.39c0,0,0.29-0.95,1.54-0.44
	c0.97,0.4,5.79,3.02,7.93,4.19c0.71,0.39,1.5,0.62,2.31,0.68c1.75,0.12,4.88,0.18,6.78-0.68c0.81-0.37,0.84-1.51,0.05-1.93
	l-8.86-4.63c-0.23-0.12-0.2-0.46,0.06-0.54l2.42-0.68c0.58-0.16,0.6-0.97,0.04-1.18c-0.34-0.12-0.79-0.24-1.39-0.34
	c-0.1-0.02-0.2-0.01-0.3,0.02l-23.32,7.51c-0.6,0.19-0.65,1.02-0.08,1.28L64.98,159.33z"/>
<line class="st0" x1="98.07" y1="164.56" x2="147.65" y2="149.86"/>
<line class="st0" x1="42.63" y1="181" x2="45.3" y2="180.21"/>
<line class="st0" x1="136.41" y1="20.84" x2="195.82" y2="45.86"/>
<line class="st0" x1="153.37" y1="240.82" x2="153.37" y2="245.13"/>
<polyline class="st0" points="39.28,182 25.58,186.06 25.58,190.37 153.37,245.13 357.91,184.26 357.91,179.95 293.88,151.87 "/>
<polyline class="st0" points="25.58,186.06 153.37,240.82 357.91,179.95 "/>
</svg>
