<?xml version="1.0" encoding="utf-8"?>
<!-- Generator: Adobe Illustrator 25.2.3, SVG Export Plug-In . SVG Version: 6.00 Build 0)  -->
<svg version="1.1" id="Layer_1" xmlns="http://www.w3.org/2000/svg" xmlns:xlink="http://www.w3.org/1999/xlink" x="0px" y="0px"
	 viewBox="0 0 123 40" style="enable-background:new 0 0 123 40;" xml:space="preserve">
<style type="text/css">
	.st0{fill:#4A2B75;}
	.st1{fill:#D1CDE1;}
</style>
<path class="st0" d="M117.6,39.5H5.4c-2.8,0-5-2.2-5-5v-29c0-2.8,2.2-5,5-5h112.2c2.8,0,5,2.2,5,5v29
	C122.6,37.2,120.4,39.5,117.6,39.5z"/>
<g>
	<path class="st1" d="M17.2,31.7c-0.1-0.1-0.1-0.2-0.1-0.3V8.6c0-0.1,0-0.2,0.1-0.3c0.1-0.1,0.2-0.1,0.3-0.1h4c0.1,0,0.2,0,0.3,0.1
		c0.1,0.1,0.1,0.2,0.1,0.3v19c0,0.1,0.1,0.2,0.2,0.2h11.1c0.1,0,0.2,0,0.3,0.1c0.1,0.1,0.1,0.2,0.1,0.3v3.3c0,0.1,0,0.2-0.1,0.3
		c-0.1,0.1-0.2,0.1-0.3,0.1H17.5C17.4,31.8,17.3,31.8,17.2,31.7z"/>
	<path class="st1" d="M38.1,31.7C38,31.6,38,31.6,38,31.4V8.6c0-0.1,0-0.2,0.1-0.3c0.1-0.1,0.2-0.1,0.3-0.1h4c0.1,0,0.2,0,0.3,0.1
		c0.1,0.1,0.1,0.2,0.1,0.3v22.9c0,0.1,0,0.2-0.1,0.3c-0.1,0.1-0.2,0.1-0.3,0.1h-4C38.3,31.8,38.2,31.8,38.1,31.7z"/>
	<path class="st1" d="M54.2,31.5l-7-22.9l0-0.1c0-0.2,0.1-0.3,0.4-0.3h4.3c0.2,0,0.4,0.1,0.5,0.3L56.8,25c0,0.1,0.1,0.1,0.1,0.1
		c0,0,0.1,0,0.1-0.1l4.4-16.5c0.1-0.2,0.2-0.3,0.5-0.3h4.2c0.1,0,0.2,0,0.3,0.1c0.1,0.1,0.1,0.2,0,0.3l-7.1,22.9
		c-0.1,0.2-0.2,0.3-0.4,0.3h-4.3C54.5,31.8,54.3,31.7,54.2,31.5z"/>
	<path class="st1" d="M87.1,12.1c-0.1,0.1-0.2,0.1-0.3,0.1H75.7c-0.1,0-0.2,0.1-0.2,0.2v5.2c0,0.1,0.1,0.2,0.2,0.2H83
		c0.1,0,0.2,0,0.3,0.1c0.1,0.1,0.1,0.2,0.1,0.3v3.3c0,0.1,0,0.2-0.1,0.3c-0.1,0.1-0.2,0.1-0.3,0.1h-7.3c-0.1,0-0.2,0.1-0.2,0.2v5.5
		c0,0.1,0.1,0.2,0.2,0.2h11.1c0.1,0,0.2,0,0.3,0.1c0.1,0.1,0.1,0.2,0.1,0.3v3.3c0,0.1,0,0.2-0.1,0.3c-0.1,0.1-0.2,0.1-0.3,0.1H71.2
		c-0.1,0-0.2,0-0.3-0.1c-0.1-0.1-0.1-0.2-0.1-0.3V8.6c0-0.1,0-0.2,0.1-0.3C71,8.2,71,8.2,71.2,8.2h15.6c0.1,0,0.2,0,0.3,0.1
		c0.1,0.1,0.1,0.2,0.1,0.3v3.3C87.2,12,87.2,12.1,87.1,12.1z"/>
</g>
<circle class="st1" cx="105.5" cy="20" r="6.1"/>
</svg>
