<?xml version="1.0" encoding="utf-8"?>
<!-- Generator: Adobe Illustrator 25.2.3, SVG Export Plug-In . SVG Version: 6.00 Build 0)  -->
<svg version="1.1" id="Layer_1" xmlns="http://www.w3.org/2000/svg" xmlns:xlink="http://www.w3.org/1999/xlink" x="0px" y="0px"
	 viewBox="0 0 468.2 142" style="enable-background:new 0 0 468.2 142;" xml:space="preserve">
<style type="text/css">
	.st0{fill:#9788B3;stroke:#9788B3;stroke-width:15.512;stroke-miterlimit:10;}
	.st1{fill:#4A2B75;}
	.st2{fill:#D1CDE1;stroke:#D1CDE1;stroke-width:15.512;stroke-miterlimit:10;}
</style>
<g>
	<g>
		<rect x="87.5" y="8.9" class="st0" width="143" height="23.6"/>
		<path class="st1" d="M103.2,8.8h4c0.1,0,0.2,0,0.3,0.1c0.1,0.1,0.1,0.2,0.1,0.3V32c0,0.1,0,0.2-0.1,0.3c-0.1,0.1-0.2,0.1-0.3,0.1
			h-4c-0.1,0-0.2,0-0.3-0.1c-0.1-0.1-0.1-0.2-0.1-0.3V17.1c0-0.1,0-0.1-0.1-0.1c0,0-0.1,0-0.1,0.1L99,22.7c-0.1,0.2-0.3,0.3-0.5,0.3
			h-2c-0.2,0-0.4-0.1-0.5-0.3l-3.6-5.6c0-0.1-0.1-0.1-0.1-0.1c0,0-0.1,0.1-0.1,0.2V32c0,0.1,0,0.2-0.1,0.3c-0.1,0.1-0.2,0.1-0.3,0.1
			h-4c-0.1,0-0.2,0-0.3-0.1c-0.1-0.1-0.1-0.2-0.1-0.3V9.2c0-0.1,0-0.2,0.1-0.3c0.1-0.1,0.2-0.1,0.3-0.1h4c0.2,0,0.4,0.1,0.5,0.3
			l5.1,7.9c0.1,0.1,0.1,0.1,0.2,0l5.1-7.9C102.8,8.8,103,8.8,103.2,8.8z"/>
		<path class="st1" d="M127.8,32.1l-1-3.3c0-0.1-0.1-0.1-0.2-0.1h-8.3c-0.1,0-0.1,0-0.2,0.1l-1,3.3c-0.1,0.2-0.2,0.3-0.4,0.3h-4.3
			c-0.1,0-0.2,0-0.3-0.1c-0.1-0.1-0.1-0.2,0-0.4l7.3-22.9c0.1-0.2,0.2-0.3,0.4-0.3h5.3c0.2,0,0.4,0.1,0.4,0.3l7.3,22.9
			c0,0,0,0.1,0,0.2c0,0.2-0.1,0.3-0.4,0.3h-4.3C128.1,32.4,127.9,32.3,127.8,32.1z M119.5,25h6c0.1,0,0.2-0.1,0.1-0.2l-3-10.1
			c0-0.1-0.1-0.1-0.1-0.1c0,0-0.1,0.1-0.1,0.1l-3,10.1C119.4,24.9,119.4,25,119.5,25z"/>
		<path class="st1" d="M137.6,32.3c-0.1-0.1-0.1-0.2-0.1-0.3V9.2c0-0.1,0-0.2,0.1-0.3c0.1-0.1,0.2-0.1,0.3-0.1h8.5
			c1.7,0,3.2,0.3,4.5,0.9c1.3,0.6,2.3,1.4,3,2.5s1,2.3,1,3.8v9.3c0,1.4-0.3,2.7-1,3.8c-0.7,1.1-1.7,1.9-3,2.5
			c-1.3,0.6-2.8,0.9-4.5,0.9h-8.5C137.7,32.4,137.7,32.4,137.6,32.3z M142.4,28.3h4.1c1,0,1.9-0.3,2.5-1c0.6-0.7,1-1.6,1-2.8v-7.8
			c0-1.2-0.3-2.1-1-2.8c-0.6-0.7-1.5-1-2.6-1h-4.1c-0.1,0-0.2,0.1-0.2,0.2v15.2C142.2,28.3,142.3,28.3,142.4,28.3z"/>
		<path class="st1" d="M160,32.3c-0.1-0.1-0.1-0.2-0.1-0.3V9.2c0-0.1,0-0.2,0.1-0.3c0.1-0.1,0.2-0.1,0.3-0.1h4c0.1,0,0.2,0,0.3,0.1
			c0.1,0.1,0.1,0.2,0.1,0.3v19c0,0.1,0.1,0.2,0.2,0.2h11.1c0.1,0,0.2,0,0.3,0.1c0.1,0.1,0.1,0.2,0.1,0.3V32c0,0.1,0,0.2-0.1,0.3
			c-0.1,0.1-0.2,0.1-0.3,0.1h-15.6C160.2,32.4,160.1,32.4,160,32.3z"/>
		<path class="st1" d="M180.9,32.3c-0.1-0.1-0.1-0.2-0.1-0.3V9.2c0-0.1,0-0.2,0.1-0.3c0.1-0.1,0.2-0.1,0.3-0.1h4
			c0.1,0,0.2,0,0.3,0.1c0.1,0.1,0.1,0.2,0.1,0.3V32c0,0.1,0,0.2-0.1,0.3c-0.1,0.1-0.2,0.1-0.3,0.1h-4
			C181.1,32.4,181,32.4,180.9,32.3z"/>
		<path class="st1" d="M205.2,20.3c2.1,1.1,3.2,2.9,3.2,5.5c0,2.2-0.7,3.8-2.2,5c-1.5,1.1-3.4,1.7-5.9,1.7h-8.8
			c-0.1,0-0.2,0-0.3-0.1c-0.1-0.1-0.1-0.2-0.1-0.3V9.2c0-0.1,0-0.2,0.1-0.3c0.1-0.1,0.2-0.1,0.3-0.1h8.5c5.3,0,8,2.2,8,6.5
			c0,2.3-1,3.9-2.9,4.8C205.1,20.2,205.1,20.2,205.2,20.3z M196,13v5.3c0,0.1,0.1,0.2,0.2,0.2h4c1.1,0,1.9-0.2,2.5-0.7
			c0.6-0.5,0.9-1.2,0.9-2c0-0.9-0.3-1.6-0.9-2.1c-0.6-0.5-1.4-0.8-2.5-0.8h-4C196,12.8,196,12.9,196,13z M202.8,27.5
			c0.6-0.5,0.9-1.3,0.9-2.2s-0.3-1.7-0.9-2.2c-0.6-0.5-1.4-0.8-2.5-0.8h-4.2c-0.1,0-0.2,0.1-0.2,0.2v5.6c0,0.1,0.1,0.2,0.2,0.2h4.2
			C201.4,28.3,202.2,28,202.8,27.5z"/>
		<path class="st1" d="M217.1,31.9c-1.4-0.6-2.4-1.4-3.1-2.5c-0.7-1.1-1.1-2.3-1.1-3.7v-0.7c0-0.1,0-0.2,0.1-0.3
			c0.1-0.1,0.2-0.1,0.3-0.1h3.9c0.1,0,0.2,0,0.3,0.1c0.1,0.1,0.1,0.2,0.1,0.3v0.5c0,0.9,0.4,1.7,1.3,2.3c0.8,0.6,2,0.9,3.4,0.9
			c1.2,0,2.1-0.3,2.7-0.8c0.6-0.5,0.9-1.1,0.9-1.9c0-0.5-0.2-1-0.5-1.4c-0.4-0.4-0.9-0.7-1.5-1c-0.6-0.3-1.6-0.7-3-1.2
			c-1.5-0.5-2.8-1-3.8-1.6c-1-0.5-1.9-1.3-2.6-2.2c-0.7-0.9-1.1-2.1-1.1-3.5c0-1.4,0.3-2.5,1-3.6c0.7-1,1.7-1.8,2.9-2.3
			c1.2-0.5,2.7-0.8,4.3-0.8c1.7,0,3.2,0.3,4.6,0.9c1.3,0.6,2.4,1.5,3.1,2.6c0.8,1.1,1.1,2.4,1.1,3.8v0.5c0,0.1,0,0.2-0.1,0.3
			c-0.1,0.1-0.2,0.1-0.3,0.1H226c-0.1,0-0.2,0-0.3-0.1c-0.1-0.1-0.1-0.2-0.1-0.3V16c0-0.9-0.4-1.8-1.2-2.4c-0.8-0.7-1.8-1-3.2-1
			c-1.1,0-1.9,0.2-2.5,0.7c-0.6,0.5-0.9,1.1-0.9,1.9c0,0.6,0.2,1,0.5,1.4c0.3,0.4,0.9,0.7,1.6,1s1.8,0.7,3.2,1.2
			c1.6,0.6,2.9,1.1,3.8,1.6c0.9,0.5,1.7,1.1,2.5,2s1.1,2,1.1,3.5c0,2.1-0.8,3.8-2.3,5c-1.6,1.2-3.7,1.8-6.3,1.8
			C220,32.7,218.4,32.4,217.1,31.9z"/>
	</g>
	<g>
		<rect x="257.3" y="8.9" class="st0" width="147.4" height="23.6"/>
		<path class="st1" d="M271.1,9.7c1.1,0.6,2,1.5,2.6,2.6c0.6,1.1,0.9,2.4,0.9,3.8c0,1.4-0.3,2.7-1,3.8c-0.6,1.1-1.5,1.9-2.7,2.5
			s-2.5,0.9-4,0.9h-4.8c-0.1,0-0.2,0.1-0.2,0.2v8.6c0,0.1,0,0.2-0.1,0.3c-0.1,0.1-0.2,0.1-0.3,0.1h-4c-0.1,0-0.2,0-0.3-0.1
			c-0.1-0.1-0.1-0.2-0.1-0.3V9.2c0-0.1,0-0.2,0.1-0.3c0.1-0.1,0.2-0.1,0.3-0.1h9.5C268.7,8.8,270,9.1,271.1,9.7z M269,18.6
			c0.6-0.6,0.9-1.4,0.9-2.4c0-1-0.3-1.8-0.9-2.4s-1.5-0.9-2.5-0.9h-4.3c-0.1,0-0.2,0.1-0.2,0.2v6.2c0,0.1,0.1,0.2,0.2,0.2h4.3
			C267.5,19.5,268.4,19.2,269,18.6z"/>
		<path class="st1" d="M291.7,32.2l-4.2-9.4c0-0.1-0.1-0.1-0.2-0.1h-3.1c-0.1,0-0.2,0.1-0.2,0.2v9.2c0,0.1,0,0.2-0.1,0.3
			c-0.1,0.1-0.2,0.1-0.3,0.1h-4c-0.1,0-0.2,0-0.3-0.1c-0.1-0.1-0.1-0.2-0.1-0.3V9.2c0-0.1,0-0.2,0.1-0.3c0.1-0.1,0.2-0.1,0.3-0.1
			h9.7c1.4,0,2.7,0.3,3.8,0.9c1.1,0.6,1.9,1.4,2.5,2.5c0.6,1.1,0.9,2.3,0.9,3.8c0,1.5-0.4,2.8-1.2,3.9c-0.8,1.1-1.8,1.9-3.2,2.3
			c-0.1,0-0.1,0.1-0.1,0.2l4.6,9.6c0,0.1,0.1,0.2,0.1,0.2c0,0.2-0.1,0.3-0.4,0.3h-4.2C291.9,32.5,291.8,32.4,291.7,32.2z
			 M283.9,13.1v5.8c0,0.1,0.1,0.2,0.2,0.2h4.4c0.9,0,1.7-0.3,2.3-0.8c0.6-0.6,0.9-1.3,0.9-2.2s-0.3-1.6-0.9-2.2
			c-0.6-0.6-1.4-0.9-2.3-0.9h-4.4C284,12.9,283.9,13,283.9,13.1z"/>
		<path class="st1" d="M317.8,12.8c-0.1,0.1-0.2,0.1-0.3,0.1h-11.1c-0.1,0-0.2,0.1-0.2,0.2v5.2c0,0.1,0.1,0.2,0.2,0.2h7.3
			c0.1,0,0.2,0,0.3,0.1c0.1,0.1,0.1,0.2,0.1,0.3v3.3c0,0.1,0,0.2-0.1,0.3c-0.1,0.1-0.2,0.1-0.3,0.1h-7.3c-0.1,0-0.2,0.1-0.2,0.2v5.5
			c0,0.1,0.1,0.2,0.2,0.2h11.1c0.1,0,0.2,0,0.3,0.1c0.1,0.1,0.1,0.2,0.1,0.3v3.3c0,0.1,0,0.2-0.1,0.3c-0.1,0.1-0.2,0.1-0.3,0.1
			h-15.6c-0.1,0-0.2,0-0.3-0.1c-0.1-0.1-0.1-0.2-0.1-0.3V9.2c0-0.1,0-0.2,0.1-0.3c0.1-0.1,0.2-0.1,0.3-0.1h15.6c0.1,0,0.2,0,0.3,0.1
			c0.1,0.1,0.1,0.2,0.1,0.3v3.3C317.9,12.6,317.9,12.7,317.8,12.8z"/>
		<path class="st1" d="M326.1,31.9c-1.4-0.6-2.4-1.4-3.1-2.5c-0.7-1.1-1.1-2.3-1.1-3.7V25c0-0.1,0-0.2,0.1-0.3
			c0.1-0.1,0.2-0.1,0.3-0.1h3.9c0.1,0,0.2,0,0.3,0.1c0.1,0.1,0.1,0.2,0.1,0.3v0.5c0,0.9,0.4,1.7,1.3,2.3c0.8,0.6,2,0.9,3.4,0.9
			c1.2,0,2.1-0.3,2.7-0.8c0.6-0.5,0.9-1.1,0.9-1.9c0-0.5-0.2-1-0.5-1.4c-0.4-0.4-0.9-0.7-1.5-1c-0.6-0.3-1.6-0.7-3-1.2
			c-1.5-0.5-2.8-1-3.8-1.6c-1-0.5-1.9-1.3-2.6-2.2c-0.7-0.9-1.1-2.1-1.1-3.5c0-1.4,0.3-2.5,1-3.6c0.7-1,1.7-1.8,2.9-2.3
			c1.2-0.5,2.7-0.8,4.3-0.8c1.7,0,3.2,0.3,4.6,0.9c1.3,0.6,2.4,1.5,3.1,2.6c0.8,1.1,1.1,2.4,1.1,3.8v0.5c0,0.1,0,0.2-0.1,0.3
			c-0.1,0.1-0.2,0.1-0.3,0.1h-3.9c-0.1,0-0.2,0-0.3-0.1c-0.1-0.1-0.1-0.2-0.1-0.3v-0.3c0-0.9-0.4-1.8-1.2-2.4s-1.8-1-3.2-1
			c-1.1,0-1.9,0.2-2.5,0.7c-0.6,0.5-0.9,1.1-0.9,1.9c0,0.6,0.2,1,0.5,1.4c0.3,0.4,0.9,0.7,1.6,1s1.8,0.7,3.2,1.2
			c1.6,0.6,2.9,1.1,3.8,1.6c0.9,0.5,1.7,1.1,2.5,2c0.7,0.9,1.1,2,1.1,3.5c0,2.1-0.8,3.8-2.3,5c-1.6,1.2-3.7,1.8-6.3,1.8
			C329.1,32.8,327.5,32.5,326.1,31.9z"/>
		<path class="st1" d="M347.8,31.9c-1.4-0.6-2.4-1.4-3.1-2.5c-0.7-1.1-1.1-2.3-1.1-3.7V25c0-0.1,0-0.2,0.1-0.3
			c0.1-0.1,0.2-0.1,0.3-0.1h3.9c0.1,0,0.2,0,0.3,0.1c0.1,0.1,0.1,0.2,0.1,0.3v0.5c0,0.9,0.4,1.7,1.3,2.3c0.8,0.6,2,0.9,3.4,0.9
			c1.2,0,2.1-0.3,2.7-0.8c0.6-0.5,0.9-1.1,0.9-1.9c0-0.5-0.2-1-0.5-1.4c-0.4-0.4-0.9-0.7-1.5-1c-0.6-0.3-1.6-0.7-3-1.2
			c-1.5-0.5-2.8-1-3.8-1.6c-1-0.5-1.9-1.3-2.6-2.2c-0.7-0.9-1.1-2.1-1.1-3.5c0-1.4,0.3-2.5,1-3.6c0.7-1,1.7-1.8,2.9-2.3
			c1.2-0.5,2.7-0.8,4.3-0.8c1.7,0,3.2,0.3,4.6,0.9c1.3,0.6,2.4,1.5,3.1,2.6c0.8,1.1,1.1,2.4,1.1,3.8v0.5c0,0.1,0,0.2-0.1,0.3
			c-0.1,0.1-0.2,0.1-0.3,0.1h-3.9c-0.1,0-0.2,0-0.3-0.1c-0.1-0.1-0.1-0.2-0.1-0.3v-0.3c0-0.9-0.4-1.8-1.2-2.4c-0.8-0.7-1.8-1-3.2-1
			c-1.1,0-1.9,0.2-2.5,0.7c-0.6,0.5-0.9,1.1-0.9,1.9c0,0.6,0.2,1,0.5,1.4c0.3,0.4,0.9,0.7,1.6,1c0.7,0.3,1.8,0.7,3.2,1.2
			c1.6,0.6,2.9,1.1,3.8,1.6c0.9,0.5,1.7,1.1,2.5,2c0.7,0.9,1.1,2,1.1,3.5c0,2.1-0.8,3.8-2.3,5c-1.6,1.2-3.7,1.8-6.3,1.8
			C350.7,32.8,349.1,32.5,347.8,31.9z"/>
		<path class="st1" d="M382.4,12.8c-0.1,0.1-0.2,0.1-0.3,0.1H371c-0.1,0-0.2,0.1-0.2,0.2v5.2c0,0.1,0.1,0.2,0.2,0.2h7.3
			c0.1,0,0.2,0,0.3,0.1c0.1,0.1,0.1,0.2,0.1,0.3v3.3c0,0.1,0,0.2-0.1,0.3c-0.1,0.1-0.2,0.1-0.3,0.1H371c-0.1,0-0.2,0.1-0.2,0.2v5.5
			c0,0.1,0.1,0.2,0.2,0.2h11.1c0.1,0,0.2,0,0.3,0.1c0.1,0.1,0.1,0.2,0.1,0.3v3.3c0,0.1,0,0.2-0.1,0.3c-0.1,0.1-0.2,0.1-0.3,0.1
			h-15.6c-0.1,0-0.2,0-0.3-0.1c-0.1-0.1-0.1-0.2-0.1-0.3V9.2c0-0.1,0-0.2,0.1-0.3c0.1-0.1,0.2-0.1,0.3-0.1h15.6c0.1,0,0.2,0,0.3,0.1
			c0.1,0.1,0.1,0.2,0.1,0.3v3.3C382.5,12.6,382.5,12.7,382.4,12.8z"/>
		<path class="st1" d="M399.9,32.2l-4.2-9.4c0-0.1-0.1-0.1-0.2-0.1h-3.1c-0.1,0-0.2,0.1-0.2,0.2v9.2c0,0.1,0,0.2-0.1,0.3
			c-0.1,0.1-0.2,0.1-0.3,0.1h-4c-0.1,0-0.2,0-0.3-0.1c-0.1-0.1-0.1-0.2-0.1-0.3V9.2c0-0.1,0-0.2,0.1-0.3c0.1-0.1,0.2-0.1,0.3-0.1
			h9.7c1.4,0,2.7,0.3,3.8,0.9c1.1,0.6,1.9,1.4,2.5,2.5c0.6,1.1,0.9,2.3,0.9,3.8c0,1.5-0.4,2.8-1.2,3.9c-0.8,1.1-1.8,1.9-3.2,2.3
			c-0.1,0-0.1,0.1-0.1,0.2l4.6,9.6c0,0.1,0.1,0.2,0.1,0.2c0,0.2-0.1,0.3-0.4,0.3h-4.2C400.1,32.5,400,32.4,399.9,32.2z M392.1,13.1
			v5.8c0,0.1,0.1,0.2,0.2,0.2h4.4c0.9,0,1.7-0.3,2.3-0.8c0.6-0.6,0.9-1.3,0.9-2.2s-0.3-1.6-0.9-2.2c-0.6-0.6-1.4-0.9-2.3-0.9h-4.4
			C392.2,12.9,392.1,13,392.1,13.1z"/>
	</g>
	<g>
		<rect x="9.4" y="59.3" class="st0" width="81.6" height="23.6"/>
		<path class="st1" d="M15.4,82.6l-6-22.9l0-0.1c0-0.2,0.1-0.3,0.4-0.3h4.2c0.2,0,0.4,0.1,0.4,0.3l3.2,13.8c0,0.1,0.1,0.1,0.1,0.1
			c0,0,0.1,0,0.1-0.1l3.1-13.7c0.1-0.2,0.2-0.4,0.4-0.4h4.1c0.2,0,0.4,0.1,0.5,0.3l3.4,13.8c0,0.1,0.1,0.1,0.1,0.1
			c0,0,0.1,0,0.1-0.1l3.1-13.7c0.1-0.2,0.2-0.4,0.4-0.4h4c0.3,0,0.4,0.1,0.4,0.4l-5.6,22.9c-0.1,0.2-0.2,0.3-0.5,0.3h-4
			c-0.2,0-0.4-0.1-0.4-0.3l-3.5-14.7c0-0.1-0.1-0.1-0.1-0.1c0,0-0.1,0-0.1,0.1l-3.2,14.6c0,0.2-0.2,0.4-0.4,0.4h-3.8
			C15.6,82.9,15.5,82.8,15.4,82.6z"/>
		<path class="st1" d="M41.9,82.8c-0.1-0.1-0.1-0.2-0.1-0.3V59.6c0-0.1,0-0.2,0.1-0.3c0.1-0.1,0.2-0.1,0.3-0.1h4
			c0.1,0,0.2,0,0.3,0.1c0.1,0.1,0.1,0.2,0.1,0.3v22.9c0,0.1,0,0.2-0.1,0.3c-0.1,0.1-0.2,0.1-0.3,0.1h-4C42.1,82.9,42,82.9,41.9,82.8
			z"/>
		<path class="st1" d="M68.9,59.3c0.1,0.1,0.1,0.2,0.1,0.3v3.3c0,0.1,0,0.2-0.1,0.3c-0.1,0.1-0.2,0.1-0.3,0.1h-6.1
			c-0.1,0-0.2,0.1-0.2,0.2v19c0,0.1,0,0.2-0.1,0.3c-0.1,0.1-0.2,0.1-0.3,0.1h-4c-0.1,0-0.2,0-0.3-0.1c-0.1-0.1-0.1-0.2-0.1-0.3v-19
			c0-0.1-0.1-0.2-0.2-0.2h-5.9c-0.1,0-0.2,0-0.3-0.1c-0.1-0.1-0.1-0.2-0.1-0.3v-3.3c0-0.1,0-0.2,0.1-0.3c0.1-0.1,0.2-0.1,0.3-0.1
			h17.1C68.7,59.2,68.8,59.2,68.9,59.3z"/>
		<path class="st1" d="M86.3,59.3c0.1-0.1,0.2-0.1,0.3-0.1h4c0.1,0,0.2,0,0.3,0.1c0.1,0.1,0.1,0.2,0.1,0.3v22.9c0,0.1,0,0.2-0.1,0.3
			c-0.1,0.1-0.2,0.1-0.3,0.1h-4c-0.1,0-0.2,0-0.3-0.1c-0.1-0.1-0.1-0.2-0.1-0.3v-9.3c0-0.1-0.1-0.2-0.2-0.2h-7.5
			c-0.1,0-0.2,0.1-0.2,0.2v9.3c0,0.1,0,0.2-0.1,0.3c-0.1,0.1-0.2,0.1-0.3,0.1h-4c-0.1,0-0.2,0-0.3-0.1c-0.1-0.1-0.1-0.2-0.1-0.3
			V59.6c0-0.1,0-0.2,0.1-0.3c0.1-0.1,0.2-0.1,0.3-0.1h4c0.1,0,0.2,0,0.3,0.1c0.1,0.1,0.1,0.2,0.1,0.3v9.1c0,0.1,0.1,0.2,0.2,0.2H86
			c0.1,0,0.2-0.1,0.2-0.2v-9.1C86.2,59.5,86.2,59.4,86.3,59.3z"/>
	</g>
	<g>
		<rect x="117.5" y="59.3" class="st2" width="174.2" height="23.6"/>
		<path class="st1" d="M124.5,82.5l-7-22.9l0-0.1c0-0.2,0.1-0.3,0.4-0.3h4.3c0.2,0,0.4,0.1,0.5,0.3l4.5,16.5c0,0.1,0.1,0.1,0.1,0.1
			c0,0,0.1,0,0.1-0.1l4.4-16.5c0.1-0.2,0.2-0.3,0.5-0.3h4.2c0.1,0,0.2,0,0.3,0.1c0.1,0.1,0.1,0.2,0,0.3l-7.1,22.9
			c-0.1,0.2-0.2,0.3-0.4,0.3h-4.3C124.7,82.8,124.6,82.7,124.5,82.5z"/>
		<path class="st1" d="M141.3,82.7c-0.1-0.1-0.1-0.2-0.1-0.3V59.6c0-0.1,0-0.2,0.1-0.3c0.1-0.1,0.2-0.1,0.3-0.1h4
			c0.1,0,0.2,0,0.3,0.1c0.1,0.1,0.1,0.2,0.1,0.3v22.9c0,0.1,0,0.2-0.1,0.3c-0.1,0.1-0.2,0.1-0.3,0.1h-4
			C141.5,82.8,141.4,82.8,141.3,82.7z"/>
		<path class="st1" d="M155.3,82.1c-1.3-0.7-2.4-1.7-3.1-2.9c-0.7-1.2-1.1-2.7-1.1-4.3v-7.8c0-1.6,0.4-3.1,1.1-4.3
			c0.7-1.2,1.7-2.2,3.1-2.9c1.3-0.7,2.9-1,4.6-1c1.7,0,3.3,0.3,4.6,1c1.3,0.6,2.3,1.6,3.1,2.7c0.7,1.2,1.1,2.6,1.1,4.1
			c0,0.2-0.1,0.3-0.4,0.4l-4,0.2h-0.1c-0.2,0-0.3-0.1-0.3-0.4c0-1.2-0.4-2.2-1.1-2.9c-0.7-0.7-1.7-1.1-2.9-1.1
			c-1.2,0-2.2,0.4-2.9,1.1c-0.7,0.7-1.1,1.7-1.1,2.9v8.2c0,1.2,0.4,2.1,1.1,2.8c0.7,0.7,1.7,1.1,2.9,1.1c1.2,0,2.2-0.4,2.9-1.1
			c0.7-0.7,1.1-1.7,1.1-2.8c0-0.2,0.1-0.4,0.4-0.4l4,0.2c0.1,0,0.2,0,0.3,0.1c0.1,0.1,0.1,0.1,0.1,0.2c0,1.6-0.4,2.9-1.1,4.1
			c-0.7,1.2-1.8,2.1-3.1,2.8c-1.3,0.7-2.8,1-4.6,1C158.2,83.1,156.7,82.8,155.3,82.1z"/>
		<path class="st1" d="M190.1,59.3c0.1,0.1,0.1,0.2,0.1,0.3v3.3c0,0.1,0,0.2-0.1,0.3c-0.1,0.1-0.2,0.1-0.3,0.1h-6.1
			c-0.1,0-0.2,0.1-0.2,0.2v19c0,0.1,0,0.2-0.1,0.3c-0.1,0.1-0.2,0.1-0.3,0.1h-4c-0.1,0-0.2,0-0.3-0.1c-0.1-0.1-0.1-0.2-0.1-0.3v-19
			c0-0.1-0.1-0.2-0.2-0.2h-5.9c-0.1,0-0.2,0-0.3-0.1c-0.1-0.1-0.1-0.2-0.1-0.3v-3.3c0-0.1,0-0.2,0.1-0.3c0.1-0.1,0.2-0.1,0.3-0.1
			h17.1C189.9,59.2,190,59.2,190.1,59.3z"/>
		<path class="st1" d="M197.6,82.1c-1.3-0.7-2.4-1.7-3.1-3c-0.7-1.3-1.1-2.8-1.1-4.5v-7.2c0-1.7,0.4-3.1,1.1-4.4s1.8-2.3,3.1-3
			c1.3-0.7,2.9-1.1,4.7-1.1c1.8,0,3.3,0.4,4.7,1.1c1.3,0.7,2.4,1.7,3.1,3c0.7,1.3,1.1,2.8,1.1,4.4v7.2c0,1.7-0.4,3.2-1.1,4.5
			c-0.7,1.3-1.8,2.3-3.1,3s-2.9,1.1-4.7,1.1C200.5,83.2,199,82.9,197.6,82.1z M205.3,77.9c0.8-0.8,1.2-1.8,1.2-3.1v-7.4
			c0-1.3-0.4-2.4-1.1-3.2c-0.8-0.8-1.8-1.2-3-1.2c-1.2,0-2.2,0.4-3,1.2c-0.8,0.8-1.1,1.9-1.1,3.2v7.4c0,1.3,0.4,2.4,1.1,3.1
			c0.8,0.8,1.8,1.2,3,1.2C203.5,79.1,204.5,78.7,205.3,77.9z"/>
		<path class="st1" d="M228.9,82.5l-4.2-9.4c0-0.1-0.1-0.1-0.2-0.1h-3.1c-0.1,0-0.2,0.1-0.2,0.2v9.2c0,0.1,0,0.2-0.1,0.3
			c-0.1,0.1-0.2,0.1-0.3,0.1h-4c-0.1,0-0.2,0-0.3-0.1c-0.1-0.1-0.1-0.2-0.1-0.3V59.6c0-0.1,0-0.2,0.1-0.3c0.1-0.1,0.2-0.1,0.3-0.1
			h9.7c1.4,0,2.7,0.3,3.8,0.9c1.1,0.6,1.9,1.4,2.5,2.5c0.6,1.1,0.9,2.3,0.9,3.8c0,1.5-0.4,2.8-1.2,3.9c-0.8,1.1-1.8,1.9-3.2,2.3
			c-0.1,0-0.1,0.1-0.1,0.2l4.6,9.6c0,0.1,0.1,0.2,0.1,0.2c0,0.2-0.1,0.3-0.4,0.3h-4.2C229.2,82.8,229,82.7,228.9,82.5z M221.2,63.4
			v5.8c0,0.1,0.1,0.2,0.2,0.2h4.4c0.9,0,1.7-0.3,2.3-0.8c0.6-0.6,0.9-1.3,0.9-2.2c0-0.9-0.3-1.6-0.9-2.2c-0.6-0.6-1.4-0.9-2.3-0.9
			h-4.4C221.2,63.3,221.2,63.3,221.2,63.4z"/>
		<path class="st1" d="M238.8,82.7c-0.1-0.1-0.1-0.2-0.1-0.3V59.6c0-0.1,0-0.2,0.1-0.3c0.1-0.1,0.2-0.1,0.3-0.1h4
			c0.1,0,0.2,0,0.3,0.1c0.1,0.1,0.1,0.2,0.1,0.3v22.9c0,0.1,0,0.2-0.1,0.3c-0.1,0.1-0.2,0.1-0.3,0.1h-4
			C239,82.8,238.9,82.8,238.8,82.7z"/>
		<path class="st1" d="M263.7,82.5l-1-3.3c0-0.1-0.1-0.1-0.2-0.1h-8.3c-0.1,0-0.1,0-0.2,0.1l-1,3.3c-0.1,0.2-0.2,0.3-0.4,0.3h-4.3
			c-0.1,0-0.2,0-0.3-0.1c-0.1-0.1-0.1-0.2,0-0.4l7.3-22.9c0.1-0.2,0.2-0.3,0.4-0.3h5.3c0.2,0,0.4,0.1,0.4,0.3l7.3,22.9
			c0,0,0,0.1,0,0.2c0,0.2-0.1,0.3-0.4,0.3h-4.3C264,82.8,263.8,82.7,263.7,82.5z M255.4,75.4h6c0.1,0,0.2-0.1,0.1-0.2l-3-10.1
			c0-0.1-0.1-0.1-0.1-0.1c0,0-0.1,0.1-0.1,0.1l-3,10.1C255.3,75.3,255.3,75.4,255.4,75.4z"/>
		<path class="st1" d="M287.1,59.3c0.1-0.1,0.2-0.1,0.3-0.1h4c0.1,0,0.2,0,0.3,0.1s0.1,0.2,0.1,0.3v22.9c0,0.1,0,0.2-0.1,0.3
			c-0.1,0.1-0.2,0.1-0.3,0.1h-3.8c-0.2,0-0.4-0.1-0.5-0.3l-8.8-14.5c0-0.1-0.1-0.1-0.1-0.1c0,0-0.1,0.1-0.1,0.2l0.1,14.3
			c0,0.1,0,0.2-0.1,0.3c-0.1,0.1-0.2,0.1-0.3,0.1h-4c-0.1,0-0.2,0-0.3-0.1c-0.1-0.1-0.1-0.2-0.1-0.3V59.6c0-0.1,0-0.2,0.1-0.3
			c0.1-0.1,0.2-0.1,0.3-0.1h3.8c0.2,0,0.4,0.1,0.5,0.3l8.7,14.4c0,0.1,0.1,0.1,0.1,0.1c0,0,0.1-0.1,0.1-0.2l0-14.2
			C287,59.5,287,59.4,287.1,59.3z"/>
	</g>
	<g>
		<rect x="318.6" y="59.2" class="st2" width="140.3" height="23.6"/>
		<path class="st1" d="M332.3,60.1c1.1,0.6,2,1.5,2.6,2.6c0.6,1.1,0.9,2.4,0.9,3.8c0,1.4-0.3,2.7-1,3.8c-0.6,1.1-1.5,1.9-2.7,2.5
			c-1.2,0.6-2.5,0.9-4,0.9h-4.8c-0.1,0-0.2,0.1-0.2,0.2v8.6c0,0.1,0,0.2-0.1,0.3c-0.1,0.1-0.2,0.1-0.3,0.1h-4c-0.1,0-0.2,0-0.3-0.1
			c-0.1-0.1-0.1-0.2-0.1-0.3V59.5c0-0.1,0-0.2,0.1-0.3c0.1-0.1,0.2-0.1,0.3-0.1h9.5C329.8,59.1,331.2,59.4,332.3,60.1z M330.1,68.9
			c0.6-0.6,0.9-1.4,0.9-2.4c0-1-0.3-1.8-0.9-2.4c-0.6-0.6-1.5-0.9-2.5-0.9h-4.3c-0.1,0-0.2,0.1-0.2,0.2v6.2c0,0.1,0.1,0.2,0.2,0.2
			h4.3C328.7,69.8,329.5,69.5,330.1,68.9z"/>
		<path class="st1" d="M352.8,82.6l-4.2-9.4c0-0.1-0.1-0.1-0.2-0.1h-3.1c-0.1,0-0.2,0.1-0.2,0.2v9.2c0,0.1,0,0.2-0.1,0.3
			c-0.1,0.1-0.2,0.1-0.3,0.1h-4c-0.1,0-0.2,0-0.3-0.1c-0.1-0.1-0.1-0.2-0.1-0.3V59.6c0-0.1,0-0.2,0.1-0.3c0.1-0.1,0.2-0.1,0.3-0.1
			h9.7c1.4,0,2.7,0.3,3.8,0.9c1.1,0.6,1.9,1.4,2.5,2.5c0.6,1.1,0.9,2.3,0.9,3.8c0,1.5-0.4,2.8-1.2,3.9c-0.8,1.1-1.8,1.9-3.2,2.3
			c-0.1,0-0.1,0.1-0.1,0.2l4.6,9.6c0,0.1,0.1,0.2,0.1,0.2c0,0.2-0.1,0.3-0.4,0.3h-4.2C353.1,82.9,352.9,82.8,352.8,82.6z
			 M345.1,63.4v5.8c0,0.1,0.1,0.2,0.2,0.2h4.4c0.9,0,1.7-0.3,2.3-0.8c0.6-0.6,0.9-1.3,0.9-2.2s-0.3-1.6-0.9-2.2
			c-0.6-0.6-1.4-0.9-2.3-0.9h-4.4C345.1,63.3,345.1,63.3,345.1,63.4z"/>
		<path class="st1" d="M378.9,63.1c-0.1,0.1-0.2,0.1-0.3,0.1h-11.1c-0.1,0-0.2,0.1-0.2,0.2v5.2c0,0.1,0.1,0.2,0.2,0.2h7.3
			c0.1,0,0.2,0,0.3,0.1c0.1,0.1,0.1,0.2,0.1,0.3v3.3c0,0.1,0,0.2-0.1,0.3c-0.1,0.1-0.2,0.1-0.3,0.1h-7.3c-0.1,0-0.2,0.1-0.2,0.2v5.5
			c0,0.1,0.1,0.2,0.2,0.2h11.1c0.1,0,0.2,0,0.3,0.1c0.1,0.1,0.1,0.2,0.1,0.3v3.3c0,0.1,0,0.2-0.1,0.3c-0.1,0.1-0.2,0.1-0.3,0.1H363
			c-0.1,0-0.2,0-0.3-0.1c-0.1-0.1-0.1-0.2-0.1-0.3V59.6c0-0.1,0-0.2,0.1-0.3c0.1-0.1,0.2-0.1,0.3-0.1h15.6c0.1,0,0.2,0,0.3,0.1
			c0.1,0.1,0.1,0.2,0.1,0.3v3.3C379.1,63,379,63.1,378.9,63.1z"/>
		<path class="st1" d="M399.6,59.2h4c0.1,0,0.2,0,0.3,0.1c0.1,0.1,0.1,0.2,0.1,0.3v22.9c0,0.1,0,0.2-0.1,0.3
			c-0.1,0.1-0.2,0.1-0.3,0.1h-4c-0.1,0-0.2,0-0.3-0.1c-0.1-0.1-0.1-0.2-0.1-0.3V67.5c0-0.1,0-0.1-0.1-0.1s-0.1,0-0.1,0.1l-3.6,5.6
			c-0.1,0.2-0.3,0.3-0.5,0.3h-2c-0.2,0-0.4-0.1-0.5-0.3l-3.6-5.6c0-0.1-0.1-0.1-0.1-0.1c0,0-0.1,0.1-0.1,0.2v14.9
			c0,0.1,0,0.2-0.1,0.3c-0.1,0.1-0.2,0.1-0.3,0.1h-4c-0.1,0-0.2,0-0.3-0.1c-0.1-0.1-0.1-0.2-0.1-0.3V59.6c0-0.1,0-0.2,0.1-0.3
			c0.1-0.1,0.2-0.1,0.3-0.1h4c0.2,0,0.4,0.1,0.5,0.3l5.1,7.9c0.1,0.1,0.1,0.1,0.2,0l5.1-7.9C399.2,59.3,399.4,59.2,399.6,59.2z"/>
		<path class="st1" d="M409.7,82.7c-0.1-0.1-0.1-0.2-0.1-0.3V59.6c0-0.1,0-0.2,0.1-0.3c0.1-0.1,0.2-0.1,0.3-0.1h4
			c0.1,0,0.2,0,0.3,0.1c0.1,0.1,0.1,0.2,0.1,0.3v22.9c0,0.1,0,0.2-0.1,0.3c-0.1,0.1-0.2,0.1-0.3,0.1h-4
			C409.9,82.9,409.8,82.8,409.7,82.7z"/>
		<path class="st1" d="M436.4,63.1c-0.1,0.1-0.2,0.1-0.3,0.1H425c-0.1,0-0.2,0.1-0.2,0.2v5.2c0,0.1,0.1,0.2,0.2,0.2h7.3
			c0.1,0,0.2,0,0.3,0.1c0.1,0.1,0.1,0.2,0.1,0.3v3.3c0,0.1,0,0.2-0.1,0.3c-0.1,0.1-0.2,0.1-0.3,0.1H425c-0.1,0-0.2,0.1-0.2,0.2v5.5
			c0,0.1,0.1,0.2,0.2,0.2h11.1c0.1,0,0.2,0,0.3,0.1c0.1,0.1,0.1,0.2,0.1,0.3v3.3c0,0.1,0,0.2-0.1,0.3c-0.1,0.1-0.2,0.1-0.3,0.1
			h-15.6c-0.1,0-0.2,0-0.3-0.1c-0.1-0.1-0.1-0.2-0.1-0.3V59.6c0-0.1,0-0.2,0.1-0.3c0.1-0.1,0.2-0.1,0.3-0.1h15.6
			c0.1,0,0.2,0,0.3,0.1c0.1,0.1,0.1,0.2,0.1,0.3v3.3C436.5,63,436.4,63.1,436.4,63.1z"/>
		<path class="st1" d="M453.8,82.6l-4.2-9.4c0-0.1-0.1-0.1-0.2-0.1h-3.1c-0.1,0-0.2,0.1-0.2,0.2v9.2c0,0.1,0,0.2-0.1,0.3
			c-0.1,0.1-0.2,0.1-0.3,0.1h-4c-0.1,0-0.2,0-0.3-0.1c-0.1-0.1-0.1-0.2-0.1-0.3V59.6c0-0.1,0-0.2,0.1-0.3c0.1-0.1,0.2-0.1,0.3-0.1
			h9.7c1.4,0,2.7,0.3,3.8,0.9c1.1,0.6,1.9,1.4,2.5,2.5c0.6,1.1,0.9,2.3,0.9,3.8c0,1.5-0.4,2.8-1.2,3.9c-0.8,1.1-1.8,1.9-3.2,2.3
			c-0.1,0-0.1,0.1-0.1,0.2l4.6,9.6c0,0.1,0.1,0.2,0.1,0.2c0,0.2-0.1,0.3-0.4,0.3h-4.2C454.1,82.9,453.9,82.8,453.8,82.6z
			 M446.1,63.4v5.8c0,0.1,0.1,0.2,0.2,0.2h4.4c0.9,0,1.7-0.3,2.3-0.8c0.6-0.6,0.9-1.3,0.9-2.2s-0.3-1.6-0.9-2.2
			c-0.6-0.6-1.4-0.9-2.3-0.9h-4.4C446.2,63.3,446.1,63.3,446.1,63.4z"/>
	</g>
	<g>
		<rect x="71.6" y="109.6" class="st2" width="63.8" height="23.6"/>
		<path class="st1" d="M71.8,133.1c-0.1-0.1-0.1-0.2-0.1-0.3V110c0-0.1,0-0.2,0.1-0.3c0.1-0.1,0.2-0.1,0.3-0.1h8.5
			c1.7,0,3.2,0.3,4.5,0.9c1.3,0.6,2.3,1.4,3,2.5c0.7,1.1,1,2.3,1,3.8v9.3c0,1.4-0.3,2.7-1,3.8c-0.7,1.1-1.7,1.9-3,2.5
			c-1.3,0.6-2.8,0.9-4.5,0.9h-8.5C71.9,133.2,71.8,133.2,71.8,133.1z M76.6,129.2h4.1c1,0,1.9-0.3,2.5-1c0.6-0.7,1-1.6,1-2.8v-7.8
			c0-1.2-0.3-2.1-1-2.8c-0.6-0.7-1.5-1-2.6-1h-4.1c-0.1,0-0.2,0.1-0.2,0.2V129C76.4,129.1,76.5,129.2,76.6,129.2z"/>
		<path class="st1" d="M107.4,132.9l-1-3.3c0-0.1-0.1-0.1-0.2-0.1h-8.3c-0.1,0-0.1,0-0.2,0.1l-1,3.3c-0.1,0.2-0.2,0.3-0.4,0.3H92
			c-0.1,0-0.2,0-0.3-0.1c-0.1-0.1-0.1-0.2,0-0.4l7.3-22.9c0.1-0.2,0.2-0.3,0.4-0.3h5.3c0.2,0,0.4,0.1,0.4,0.3l7.3,22.9
			c0,0,0,0.1,0,0.2c0,0.2-0.1,0.3-0.4,0.3h-4.3C107.6,133.2,107.5,133.1,107.4,132.9z M99.1,125.8h6c0.1,0,0.2-0.1,0.1-0.2l-3-10.1
			c0-0.1-0.1-0.1-0.1-0.1c0,0-0.1,0.1-0.1,0.1l-3,10.1C98.9,125.7,99,125.8,99.1,125.8z"/>
		<path class="st1" d="M130.8,109.7c0.1-0.1,0.2-0.1,0.3-0.1h4c0.1,0,0.2,0,0.3,0.1c0.1,0.1,0.1,0.2,0.1,0.3v22.9
			c0,0.1,0,0.2-0.1,0.3c-0.1,0.1-0.2,0.1-0.3,0.1h-3.8c-0.2,0-0.4-0.1-0.5-0.3l-8.8-14.5c0-0.1-0.1-0.1-0.1-0.1c0,0-0.1,0.1-0.1,0.2
			l0.1,14.3c0,0.1,0,0.2-0.1,0.3c-0.1,0.1-0.2,0.1-0.3,0.1h-4c-0.1,0-0.2,0-0.3-0.1c-0.1-0.1-0.1-0.2-0.1-0.3V110
			c0-0.1,0-0.2,0.1-0.3c0.1-0.1,0.2-0.1,0.3-0.1h3.8c0.2,0,0.4,0.1,0.5,0.3l8.7,14.4c0,0.1,0.1,0.1,0.1,0.1c0,0,0.1-0.1,0.1-0.2
			l0-14.2C130.6,109.8,130.7,109.8,130.8,109.7z"/>
	</g>
	<g>
		<rect x="162" y="109.6" class="st2" width="162.6" height="23.6"/>
		<path class="st1" d="M177.7,132.9l-1-3.3c0-0.1-0.1-0.1-0.2-0.1h-8.3c-0.1,0-0.1,0-0.2,0.1l-1,3.3c-0.1,0.2-0.2,0.3-0.4,0.3h-4.3
			c-0.1,0-0.2,0-0.3-0.1c-0.1-0.1-0.1-0.2,0-0.4l7.3-22.9c0.1-0.2,0.2-0.3,0.4-0.3h5.3c0.2,0,0.4,0.1,0.4,0.3l7.3,22.9
			c0,0,0,0.1,0,0.2c0,0.2-0.1,0.3-0.4,0.3h-4.3C177.9,133.2,177.8,133.1,177.7,132.9z M169.4,125.8h6c0.1,0,0.2-0.1,0.1-0.2l-3-10.1
			c0-0.1-0.1-0.1-0.1-0.1c0,0-0.1,0.1-0.1,0.1l-3,10.1C169.2,125.7,169.3,125.8,169.4,125.8z"/>
		<path class="st1" d="M201.1,109.7c0.1-0.1,0.2-0.1,0.3-0.1h4c0.1,0,0.2,0,0.3,0.1c0.1,0.1,0.1,0.2,0.1,0.3v22.9
			c0,0.1,0,0.2-0.1,0.3c-0.1,0.1-0.2,0.1-0.3,0.1h-3.8c-0.2,0-0.4-0.1-0.5-0.3l-8.8-14.5c0-0.1-0.1-0.1-0.1-0.1c0,0-0.1,0.1-0.1,0.2
			l0.1,14.3c0,0.1,0,0.2-0.1,0.3c-0.1,0.1-0.2,0.1-0.3,0.1h-4c-0.1,0-0.2,0-0.3-0.1c-0.1-0.1-0.1-0.2-0.1-0.3V110
			c0-0.1,0-0.2,0.1-0.3c0.1-0.1,0.2-0.1,0.3-0.1h3.8c0.2,0,0.4,0.1,0.5,0.3l8.7,14.4c0,0.1,0.1,0.1,0.1,0.1c0,0,0.1-0.1,0.1-0.2
			l0-14.2C200.9,109.8,201,109.8,201.1,109.7z"/>
		<path class="st1" d="M211.3,133.1c-0.1-0.1-0.1-0.2-0.1-0.3V110c0-0.1,0-0.2,0.1-0.3c0.1-0.1,0.2-0.1,0.3-0.1h8.5
			c1.7,0,3.2,0.3,4.5,0.9c1.3,0.6,2.3,1.4,3,2.5c0.7,1.1,1,2.3,1,3.8v9.3c0,1.4-0.3,2.7-1,3.8c-0.7,1.1-1.7,1.9-3,2.5
			s-2.8,0.9-4.5,0.9h-8.5C211.5,133.2,211.4,133.2,211.3,133.1z M216.1,129.2h4.1c1,0,1.9-0.3,2.5-1c0.6-0.7,1-1.6,1-2.8v-7.8
			c0-1.2-0.3-2.1-1-2.8c-0.6-0.7-1.5-1-2.6-1h-4.1c-0.1,0-0.2,0.1-0.2,0.2V129C215.9,129.1,216,129.2,216.1,129.2z"/>
		<path class="st1" d="M246.1,132.9l-4.2-9.4c0-0.1-0.1-0.1-0.2-0.1h-3.1c-0.1,0-0.2,0.1-0.2,0.2v9.2c0,0.1,0,0.2-0.1,0.3
			c-0.1,0.1-0.2,0.1-0.3,0.1h-4c-0.1,0-0.2,0-0.3-0.1c-0.1-0.1-0.1-0.2-0.1-0.3V110c0-0.1,0-0.2,0.1-0.3c0.1-0.1,0.2-0.1,0.3-0.1
			h9.7c1.4,0,2.7,0.3,3.8,0.9c1.1,0.6,1.9,1.4,2.5,2.5c0.6,1.1,0.9,2.3,0.9,3.8c0,1.5-0.4,2.8-1.2,3.9c-0.8,1.1-1.8,1.9-3.2,2.3
			c-0.1,0-0.1,0.1-0.1,0.2l4.6,9.6c0,0.1,0.1,0.2,0.1,0.2c0,0.2-0.1,0.3-0.4,0.3h-4.2C246.4,133.2,246.2,133.1,246.1,132.9z
			 M238.4,113.8v5.8c0,0.1,0.1,0.2,0.2,0.2h4.4c0.9,0,1.7-0.3,2.3-0.8c0.6-0.6,0.9-1.3,0.9-2.2s-0.3-1.6-0.9-2.2
			c-0.6-0.6-1.4-0.9-2.3-0.9h-4.4C238.4,113.7,238.4,113.7,238.4,113.8z"/>
		<path class="st1" d="M272.2,113.5c-0.1,0.1-0.2,0.1-0.3,0.1h-11.1c-0.1,0-0.2,0.1-0.2,0.2v5.2c0,0.1,0.1,0.2,0.2,0.2h7.3
			c0.1,0,0.2,0,0.3,0.1c0.1,0.1,0.1,0.2,0.1,0.3v3.3c0,0.1,0,0.2-0.1,0.3c-0.1,0.1-0.2,0.1-0.3,0.1h-7.3c-0.1,0-0.2,0.1-0.2,0.2v5.5
			c0,0.1,0.1,0.2,0.2,0.2h11.1c0.1,0,0.2,0,0.3,0.1c0.1,0.1,0.1,0.2,0.1,0.3v3.3c0,0.1,0,0.2-0.1,0.3c-0.1,0.1-0.2,0.1-0.3,0.1
			h-15.6c-0.1,0-0.2,0-0.3-0.1c-0.1-0.1-0.1-0.2-0.1-0.3V110c0-0.1,0-0.2,0.1-0.3c0.1-0.1,0.2-0.1,0.3-0.1h15.6c0.1,0,0.2,0,0.3,0.1
			c0.1,0.1,0.1,0.2,0.1,0.3v3.3C272.4,113.4,272.3,113.5,272.2,113.5z"/>
		<path class="st1" d="M282.2,132.9l-6-22.9l0-0.1c0-0.2,0.1-0.3,0.4-0.3h4.2c0.2,0,0.4,0.1,0.4,0.3l3.2,13.8c0,0.1,0.1,0.1,0.1,0.1
			c0,0,0.1,0,0.1-0.1l3.1-13.7c0.1-0.2,0.2-0.4,0.4-0.4h4.1c0.2,0,0.4,0.1,0.5,0.3l3.4,13.8c0,0.1,0.1,0.1,0.1,0.1
			c0,0,0.1,0,0.1-0.1l3.1-13.7c0.1-0.2,0.2-0.4,0.4-0.4h4c0.3,0,0.4,0.1,0.4,0.4l-5.6,22.9c-0.1,0.2-0.2,0.3-0.5,0.3h-4
			c-0.2,0-0.4-0.1-0.4-0.3l-3.5-14.7c0-0.1-0.1-0.1-0.1-0.1s-0.1,0-0.1,0.1l-3.2,14.6c0,0.2-0.2,0.4-0.4,0.4h-3.8
			C282.4,133.2,282.2,133.1,282.2,132.9z"/>
		<path class="st1" d="M311.2,132.7c-1.4-0.6-2.4-1.4-3.1-2.5c-0.7-1.1-1.1-2.3-1.1-3.7v-0.7c0-0.1,0-0.2,0.1-0.3
			c0.1-0.1,0.2-0.1,0.3-0.1h3.9c0.1,0,0.2,0,0.3,0.1c0.1,0.1,0.1,0.2,0.1,0.3v0.5c0,0.9,0.4,1.7,1.3,2.3c0.8,0.6,2,0.9,3.4,0.9
			c1.2,0,2.1-0.3,2.7-0.8c0.6-0.5,0.9-1.1,0.9-1.9c0-0.5-0.2-1-0.5-1.4c-0.4-0.4-0.9-0.7-1.5-1c-0.6-0.3-1.6-0.7-3-1.2
			c-1.5-0.5-2.8-1-3.8-1.6c-1-0.5-1.9-1.3-2.6-2.2c-0.7-0.9-1.1-2.1-1.1-3.5c0-1.4,0.3-2.5,1-3.6c0.7-1,1.7-1.8,2.9-2.3
			c1.2-0.5,2.7-0.8,4.3-0.8c1.7,0,3.2,0.3,4.6,0.9c1.3,0.6,2.4,1.5,3.1,2.6c0.8,1.1,1.1,2.4,1.1,3.8v0.5c0,0.1,0,0.2-0.1,0.3
			c-0.1,0.1-0.2,0.1-0.3,0.1h-3.9c-0.1,0-0.2,0-0.3-0.1c-0.1-0.1-0.1-0.2-0.1-0.3v-0.3c0-0.9-0.4-1.8-1.2-2.4s-1.8-1-3.2-1
			c-1.1,0-1.9,0.2-2.5,0.7c-0.6,0.5-0.9,1.1-0.9,1.9c0,0.6,0.2,1,0.5,1.4c0.3,0.4,0.9,0.7,1.6,1c0.7,0.3,1.8,0.7,3.2,1.2
			c1.6,0.6,2.9,1.1,3.8,1.6c0.9,0.5,1.7,1.1,2.5,2c0.7,0.9,1.1,2,1.1,3.5c0,2.1-0.8,3.8-2.3,5c-1.6,1.2-3.7,1.8-6.3,1.8
			C314.2,133.5,312.6,133.2,311.2,132.7z"/>
	</g>
</g>
</svg>
