<svg xmlns="http://www.w3.org/2000/svg" version="1.1" xmlns:xlink="http://www.w3.org/1999/xlink" xmlns:svgjs="http://svgjs.com/svgjs" width="2000" height="2000"><svg version="1.1" id="SvgjsSvg1000" xmlns="http://www.w3.org/2000/svg" xmlns:xlink="http://www.w3.org/1999/xlink" x="0px" y="0px" viewBox="0 0 2000 2000" style="enable-background:new 0 0 2000 2000;" xml:space="preserve">
<style type="text/css">
	.st0{fill:#EAEDED;}
</style>
<g>
	<circle cx="1000" cy="1000" r="986"></circle>
	<g>
		<path class="st0" d="M1366,772.7c0,219.6-162.4,334-363.4,355.7c-69.6,7.7-119.1,47.9-119.1,112.9c0,24.7,9.3,51,29.4,75.8
			c-102.1-65-137.6-134.5-137.6-196.4c-1.6-94.3,75.8-163.9,193.3-176.3c91.2-9.3,201-58.8,201-171.7c0-88.1-68-145.4-156.2-145.4
			c-82,0-156.2,61.9-156.2,143.8H662.4c0-187.1,159.3-344.8,352.6-344.8C1216,426.3,1366,577.8,1366,772.7z M1070.6,1426.8
			L912.9,1317l-156.2,112.9l58.8,180.9h194.8L1070.6,1426.8z"></path>
	</g>
</g>
</svg><style>@media (prefers-color-scheme: light) { :root { filter: none; } }
</style></svg>