<?xml version="1.0" encoding="utf-8"?>
<!-- Generator: Adobe Illustrator 25.2.3, SVG Export Plug-In . SVG Version: 6.00 Build 0)  -->
<svg version="1.1" id="Layer_1" xmlns="http://www.w3.org/2000/svg" xmlns:xlink="http://www.w3.org/1999/xlink" x="0px" y="0px"
	 viewBox="0 0 1800 1800" style="enable-background:new 0 0 1800 1800;" xml:space="preserve">
<style type="text/css">
	.st0{fill:none;stroke:#F5F5F5;stroke-width:3;stroke-linecap:round;stroke-linejoin:round;}
</style>
<g>
	<path class="st0" d="M685.2,72.1l-72.5,38.6 M745.7,68.8l-60.5,3.3 M745.7,68.8l-64.8,34.6 M807.9,73.4l-62.2-4.7 M807.9,73.4
		L751,103.7 M870.7,85.7l-62.8-12.3 M870.7,85.7l-48.2,25.9 M933.9,106.3l-63.2-20.6 M933.9,106.3L895,127 M997.1,134.3l-63.2-27.9
		 M997.1,134.3l-29.9,16 M1059,169.5l-61.9-35.2 M1059,169.5l-20,10.6 M1109.5,217.4l-70.5-37.2 M1109.5,217.4l10-5.3 M1178,261.3
		l-68.5-43.9 M1178,261.3l-46.2-52.5 M1178,261.3l-58.5-49.2 M1083.2,163.2l-24.3,6.3 M1119.5,212.1l-60.5-42.6 M1131.8,208.8
		l-12.3,3.3 M1033.4,124.3l-36.2,10 M1083.2,163.2l-49.9-38.9 M981.8,93.4l-47.9,13 M1033.4,124.3l-51.5-30.9 M929.6,69.8l-58.9,16
		 M981.8,93.4l-52.2-23.6 M877,54.5l-69.2,19 M929.6,69.8l-52.5-15.3 M824.8,47.1l-79.2,21.6 M877,54.5l-52.2-7.3 M773.3,48.1
		l-88.1,24 M824.8,47.1l-51.5,1 M723.1,57.4l-96.4,26.3 M773.3,48.1l-50.2,9.3 M873.7,39.5l-100.4,8.6 M915,39.5h-41.2 M915,39.5
		l-90.1,7.7 M956.2,47.8L915,39.5 M996.8,64.1l-40.6-16.3 M996.8,64.1l-67.2,5.7 M1036.3,88.7l-39.6-24.6 M1036.3,88.7l-54.5,4.7
		 M1074.6,121l-38.2-32.3 M1074.6,121l-41.2,3.3 M1111.2,160.5l-36.6-39.6 M1111.2,160.5l-27.9,2.7 M1131.8,208.8l-48.6-45.6
		 M1145.8,207.4l-34.6-46.9 M1145.8,207.4l-14,1.3 M1178,261.3l-32.3-53.9 M1145.8,207.4l15,1 M1178,261.3l-17.3-52.9 M1141.1,162.5
		l-29.9-2 M1160.7,208.4l-19.6-45.9 M1119.2,123.6l-44.6-2.7 M1141.1,162.5l-21.9-38.9 M1095.2,92.4l-58.9-3.7 M1119.2,123.6
		l-23.9-31.3 M1069.3,68.8l-72.5-4.7 M1095.2,92.4l-25.9-23.6 M1042,53.1l-85.8-5.3 M1069.3,68.8L1042,53.1 M1013.1,45.8L915,39.5
		 M1042,53.1l-28.9-7.3 M1114.8,65.8l-101.8-20 M1131.1,70.7l-16.3-5 M1131.1,70.7L1042,53.1 M1145.1,83.7l-14-13 M1145.1,83.7
		l-75.8-15 M1156.7,104.7l-11.6-20.9 M1156.7,104.7l-61.5-12.3 M1166.1,132.9l-9.3-28.3 M1166.1,132.9l-46.9-9.3 M1172.7,168.9
		l-6.7-35.9 M1172.7,168.9l-31.6-6.3 M1176.7,211.8l-4-42.9 M1176.7,211.8l-16-3.3 M1178,261.3l-1.3-49.6 M1178,261.3l14.3-44.6
		 M1204,179.2l-31.3-10.3 M1192.3,216.7l11.6-37.6 M1192.3,216.7l-15.6-5 M1212.6,148.2l-46.6-15.3 M1204,179.2l8.7-30.9
		 M1218.3,124.6l-61.5-20 M1212.6,148.2l5.7-23.6 M1220.6,108.3l-75.5-24.6 M1218.3,124.6l2.3-16.3 M1220.3,100l-89.1-29.3
		 M1220.6,108.3l-0.3-8.3 M1306.1,139.2l8.7,5 M1306.1,139.2l-85.8-39.2 M1293.4,141.9l12.6-2.7 M1293.4,141.9l-72.8-33.6
		 M1277.1,151.9l16.3-10 M1277.1,151.9l-58.9-27.3 M1257.2,168.9l19.9-17 M1257.2,168.9l-44.6-20.6 M1233.9,192.8l23.3-23.9
		 M1233.9,192.8l-29.9-13.6 M1192.3,216.7l11.6-37.6 M1207.3,223.7l26.6-30.9 M1192.3,216.7l15,7 M1178,261.3l29.3-37.6 M1178,261.3
		l14.3-44.6 M1178,261.3l43.2-28.9 M1178,261.3l29.3-37.6 M1261.8,209.8l-27.9-17 M1207.3,223.7l26.6-30.9 M1221.3,232.4l40.6-22.6
		 M1221.3,232.4l-14-8.6 M1298.8,194.1l-41.6-25.3 M1261.8,209.8l36.9-15.6 M1331.7,185.1l-54.5-33.3 M1298.8,194.1l32.9-9
		 M1360.6,182.8l-67.2-40.9 M1331.7,185.1l28.9-2.3 M1384.9,187.8l-78.8-48.6 M1360.6,182.8l24.3,5 M1484,262.3l23.9,25.6
		 M1454.4,243l29.6,19.3 M1454.4,243l-69.5-55.2 M1419.5,229.7l34.9,13.3 M1419.5,229.7l-58.9-46.9 M1379.2,223.1l40.2,6.6
		 M1379.2,223.1l-47.6-37.9 M1334.7,222.7l44.6,0.3 M1334.7,222.7l-35.9-28.6 M1286.1,229.1l48.6-6.3 M1286.1,229.1l-24.3-19.3
		 M1233.6,242l52.6-13 M1233.6,242l-12.3-9.6 M1178,261.3l55.5-19.3 M1233.6,242l10,10.6 M1178,261.3l65.5-8.6 M1306.1,250.3
		l-19.9-21.3 M1243.5,252.7l62.5-2.3 M1364.6,254.3l-29.9-31.6 M1306.1,250.3l58.5,4 M1418.5,264.3l-39.2-41.2 M1364.6,254.3
		l53.9,10 M1467.7,280.6l-48.2-50.9 M1418.5,264.3l49.2,16.3 M1511.3,302.9l-56.9-59.9 M1467.7,280.6l43.6,22.3 M1511.3,302.9
		l37.6,27.9 M1580.1,364.4l-72.2-76.5 M1634,444.2l29.9,45.9 M1634,444.2l-53.9-79.8 M1597.1,402.3l36.9,41.9 M1597.1,402.3
		l-48.2-71.5 M1553.5,365.4l43.6,36.9 M1553.5,365.4l-42.2-62.5 M1503.3,333.8l50.2,31.6 M1503.3,333.8l-35.6-53.2 M1447.7,307.5
		l55.5,26.3 M1447.7,307.5l-29.3-43.2 M1386.5,286.9l61.2,20.6 M1386.5,286.9l-21.9-32.6 M1320.7,272.3l65.8,14.6 M1320.7,272.3
		l-14.6-21.9 M1251.2,263.6l69.5,8.6 M1251.2,263.6l-7.7-11 M1178,261.3l73.2,2.3 M1255.5,274.6l-77.5-13.3 M1251.2,263.6l4.3,11
		 M1330,294.2l-9.3-22 M1255.5,274.6l74.5,19.6 M1330,294.2l70.2,25.6 M1465.7,350.8l-18-43.2 M1400.2,319.8l65.5,30.9
		 M1400.2,319.8l-13.6-32.9 M1525.6,387l-22.3-53.2 M1465.7,350.8l59.9,36.2 M1579.4,428.2l-25.9-62.9 M1525.6,387l53.9,41.2
		 M1626.7,474.1l-29.6-71.8 M1579.4,428.2l47.2,45.9 M1667.2,524l-33.3-79.8 M1626.7,474.1l40.6,49.9 M1700.2,577.2l-36.2-87.1
		 M1667.2,524l32.9,53.2 M1700.2,577.2l25.3,56.9 M1725.4,634.1l17.3,59.2 M1742.7,693.3l9,60.9 M1766.3,854.9l-14.6-100.8
		 M1738.4,724.6l-13-90.5 M1712.1,661.4l-12-84.1 M1678.2,600.8l-11-76.8 M1636.6,543l-10-68.9 M1588.1,488.8l-8.7-60.5
		 M1532.9,438.2l-7.3-51.2 M1471.7,392.3l-6-41.6 M1404.8,351.4l-4.7-31.6 M1333,315.5l-3-21.3 M1257.2,285.2l-1.7-10.6"/>
	<path class="st0" d="M488.6,499.1l58.9,87.1 M559.1,452.5l-70.5,46.6 M559.1,452.5l53.5,79.5 M632.6,410l-73.5,42.6 M632.6,410
		l48.2,71.5 M708.8,372L632.6,410 M708.8,372l42.2,62.5 M786.6,339.5L708.8,372 M786.6,339.5l35.9,52.9 M865.7,312.2l-79.2,27.3
		 M865.7,312.2l29.3,42.9 M945.2,290.2l-79.5,22 M945.2,290.2l22,32.9 M1024.4,274.6l-79.2,15.6 M1024.4,274.6l14.6,22
		 M1109.5,275.9l-70.5,20.6 M1109.5,275.9l-7.3-11 M1178,261.3l-68.5,14.6 M1178,261.3l-75.8,3.7 M1015.1,252.6l9.3,22 M1102.2,265
		l-77.8,9.6 M1097.5,253.7l4.7,11.3 M931.6,257.6l13.6,32.6 M1015.1,252.6l-83.5,5 M847.8,269l18,43.2 M931.6,257.6L847.8,269
		 M764.6,286.2l22,53.2 M847.8,269l-83.1,17.3 M764.6,286.2l-81.8,23.3 M603,338.1l29.6,71.8 M682.8,309.5l25.9,62.5 M525.9,372.7
		l33.3,79.8 M452.4,412l36.2,87.1 M383.5,456.2l-64.2,48.2 M383.5,456.2l38.9,93.8 M319.3,504.4l-58.5,52.2 M319.3,504.4l41.2,99.4
		 M260.8,556.6l-52.6,55.5 M260.8,556.6L304,661 M208.3,612.2l-45.6,58.2 M208.3,612.2l44.9,108.1 M162.7,670.4l-38.6,60.5
		 M162.7,670.4l45.9,110.7 M92.9,793.1l46.9,112.7 M124.1,730.9l-31.3,62.2 M124.1,730.9l46.6,112.4 M69.6,855.9l46.6,112.4
		 M92.9,793.1l-23.3,62.9 M54.3,919.5l45.9,110.7 M69.6,855.9l-15.3,63.5 M47,983l44.9,108.1 M54.3,919.5L47,983 M49,1047.8
		l42.2,102.1 M47,983l1,59.5 M57.3,1106.7l41.2,99.4 M74.6,1165.9l38.9,93.8 M57.3,1106.7l17.3,59.2 M43.3,1010.6l14,96.1
		 M33.3,945.1l10,65.5 M32,878.9l1.3,66.2 M32,878.9L47,983 M38.7,813L32,878.9 M38.7,813l15.6,106.4 M54,747.8L38.7,813 M54,747.8
		l15.6,108.1 M77.2,684L54,747.8 M77.2,684l15.6,109.1 M108.5,622.5L77.2,684 M108.5,622.5l15.6,108.4 M147.1,563.6l-38.6,58.9
		 M147.1,563.6l15.6,106.8 M193.3,508.1l-46.2,55.5 M193.3,508.1l15,104.1 M246.2,456.2l-52.9,51.9 M246.2,456.2l14.6,100.4
		 M305.4,408.6l14,95.8 M370.2,365.7l13.3,90.5 M452.4,412l-68.8,44.2 M440.4,327.8l-70.2,37.9 M440.4,327.8l12,84.1 M525.9,372.7
		l-73.5,39.2 M514.5,295.6l11.3,77.2 M603,338.1l-77.2,34.6 M592.7,269.3l10.3,68.8 M682.8,309.5L603,338.1 M673.8,249l9,60.5
		 M757.3,234.7L673.8,249 M757.3,234.7l7.3,51.6 M841.8,227.1l-84.5,7.6 M841.8,227.1l6,41.9 M926.9,226.1l-85.1,1 M926.9,226.1
		l4.7,31.6 M1012.1,231.4l-85.1-5.3 M1012.1,231.4l3,21.3 M1097.5,253.7l-82.5-1 M1095.9,243l-83.8-11.6 M1097.5,253.7l-1.7-10.6
		 M1178,261.3l-82.1-18.3 M1178,261.3l-80.5-7.6 M1095.9,243l1.7-9.6 M1178,261.3l-80.5-27.9 M1015.1,211.8l-3,19.6 M1097.5,233.4
		l-82.5-21.6 M931.6,196.8l-4.7,29.3 M1015.1,211.8l-83.5-15 M847.8,188.8l-6,38.2 M931.6,196.8l-83.8-8 M764.6,187.5l-7.3,47.2
		 M847.8,188.8l-83.1-1.3 M682.8,193.1l-9,55.9 M764.6,187.5l-81.8,5.6 M603,205.4l-10.3,63.9 M673.8,249l-81.1,20.3 M682.8,193.1
		L603,205.4 M525.9,224.7l-11.3,70.8 M592.7,269.3l-78.2,26.3 M603,205.4l-77.2,19.3 M452.4,250.3l-12,77.5 M514.5,295.6l-74.2,32.3
		 M525.9,224.7l-73.5,25.6 M452.4,250.3l-68.8,31.6 M370.2,365.7l-64.9,42.9 M383.5,281.9l-64.2,37.9 M383.5,281.9l-13.3,83.8
		 M305.4,408.6l-59.2,47.5 M319.3,319.8l-58.5,43.6 M319.3,319.8l-14,88.8 M208.3,412l-15,96.1 M260.8,363.4L208.3,412 M260.8,363.4
		l-14.6,92.8 M162.7,465.2l-15.6,98.4 M208.3,412l-45.6,53.2 M124.1,522.7l-15.6,99.8 M162.7,465.2l-38.6,57.5 M92.9,583.6L77.2,684
		 M124.1,522.7l-31.3,60.9 M69.6,647.8L54,747.8 M92.9,583.6l-23.3,64.2 M54.3,714.3L38.6,813 M69.6,647.8l-15.3,66.5 M170.7,434.6
		l-31.6,65.5 M208.6,378.4l-37.9,56.2 M208.6,378.4l-45.9,86.8 M253.2,327.5l-44.6,50.9 M253.2,327.5L208.3,412 M304,281.6
		l-50.9,45.9 M304,281.6l-43.2,81.8 M360.6,242L304,281.6 M360.6,242l-41.2,77.8 M422.4,208.8L360.6,242 M422.4,208.8l-38.9,73.2
		 M488.6,181.8l-66.2,26.9 M488.6,181.8l-36.2,68.5 M559.1,162.2l-70.5,19.6 M559.1,162.2l-33.3,62.5 M632.6,149.6l-73.5,12.6
		 M632.6,149.6L603,205.4 M708.8,143.9l-76.2,5.6 M708.8,143.9l-25.9,49.2 M786.6,145.9l-77.8-2 M786.6,145.9l-22,41.6 M865.7,154.9
		l-79.2-9 M865.7,154.9l-18,33.9 M945.2,171.2l-79.5-16.3 M945.2,171.2l-13.6,25.6 M1024.4,194.5l-79.2-23.3 M1024.4,194.5
		l-9.3,17.3 M1097.5,233.4l4.7-8.6 M1178,261.3l-75.8-36.6 M1039,180.2l-14.6,14.3 M1102.2,224.7l-77.8-30.3 M1109.5,217.4l-7.3,7.3
		 M967.2,150.2l-22,20.9 M1039,180.2l-71.8-29.9 M895,126.9l-29.3,27.9 M967.2,150.2L895,126.9 M822.5,111.7l-35.9,34.3 M895,126.9
		l-72.5-15.3 M751,103.7l-42.2,40.2 M822.5,111.7l-71.5-8 M680.8,103.3l-48.2,46.2 M751,103.7l-70.2-0.3 M612.7,110.7l-53.5,51.5
		 M680.8,103.3l-68.2,7.3 M547.5,125.6l-58.9,56.2 M612.7,110.7l-65.2,15 M485.6,148.2l-63.2,60.5 M547.5,125.6l-61.9,22.6
		 M427.8,177.8L360.6,242 M485.6,148.2l-57.9,29.6 M374.2,214.4L304,281.6 M427.8,177.8l-53.5,36.6 M570.8,103l-85.1,45.2
		 M626.6,83.7L570.8,103 M626.6,83.7l-79.2,41.9 M685.2,72.1l-58.5,11.6"/>
	<path class="st0" d="M715.4,1036.8l-36.2,72.8 M715.4,1038.5l142.7,65.2 M753.3,963l-37.9,73.8 M753.3,963l136,62.5 M792.6,888.5
		L753.3,963 M792.6,888.5L921,947.4 M832.8,814l-40.2,74.5 M832.8,814l119.4,54.9 M873.7,740.2L832.8,814 M873.7,740.2l109.4,50.2
		 M915,668l-41.2,72.2 M915,668l98.1,45.2 M956.2,598.2L915,668 M956.2,598.2l85.8,39.6 M996.8,531.3l-40.6,66.8 M996.8,531.3
		l72.5,33.3 M1036.3,467.8l-39.6,63.5 M1036.3,467.8l58.9,27.3 M1074.6,408.6l-38.2,59.2 M1074.6,408.6l44.6,20.6 M1111.2,354.1
		l-36.6,54.5 M1111.2,354.1l29.9,13.6 M1145.8,304.5l-34.6,49.5 M1145.8,304.5l15,7 M1178,261.3l-32.3,43.2 M1145.8,304.5l-14-8.3
		 M1178,261.3l-46.2,34.9 M1083.2,337.1l27.9,17 M1131.8,296.2l-48.6,40.9 M1083.2,337.1l-49.9,46.2 M981.8,434.6l54.5,33.3
		 M1033.4,383.4l-51.5,51.2 M1033.4,383.4l41.2,25.3 M929.6,490.4l67.2,40.9 M981.8,434.6l-52.2,55.9 M929.6,490.4L877.1,550
		 M877,550l-52.2,63.2 M877,550l79.2,48.2 M824.8,613.2l-51.5,65.5 M824.8,613.2L915,668 M773.3,678.7l-50.2,68.2 M773.3,678.7
		l100.4,61.5 M723.1,746.8L674.2,816 M723.1,746.8L832.8,814 M674.2,816L628,886.5 M674.2,816l118.4,72.5 M628,886.5l-43.9,70.2
		 M628,886.5L753.3,963 M543.2,1026.5l135.7,84.5 M584.1,956.7l-40.9,69.8 M584.1,956.7l131.4,81.8 M505.9,1095.1l139.3,86.8
		 M442.7,1226.1l142.3,86.8 M472.3,1161.9l141.7,86.5 M417.8,1286.9l141.7,86.5 M397.5,1344.5l139.3,85.1 M417.8,1286.9l-20.3,57.5
		 M381.9,1397.3l136,83.1 M397.5,1344.5l-15.6,52.9 M371.2,1445.6l131.4,80.2 M381.9,1397.3l-10.6,48.2 M365.9,1488.5l125.4,76.8
		 M371.2,1445.6l-5.3,42.9 M365.6,1526.1l118.1,72.2 M365.9,1488.5l-0.3,37.6 M370.2,1557.3l110.1,67.2 M365.6,1526.1l4.7,31.3
		 M380.2,1582.3l100.4,61.2 M370.2,1557.3l10,24.9 M395.2,1600.6l90.1,55.2 M380.2,1582.3l15,18.3 M316,1537.4l79.1,63.2
		 M292.1,1511.8l23.9,25.6 M292.1,1511.8l88.1,70.5 M273.8,1480.5l18.3,31.3 M273.8,1480.5l96.4,76.8 M261.8,1443.2l12,37.2
		 M261.8,1443.2l103.8,82.8 M255.8,1401l6,42.2 M255.8,1401l110.1,87.5 M256.1,1353.8l-0.3,47.2 M256.1,1353.8l115.1,91.8
		 M262.5,1302.2l-6.3,51.6 M262.5,1302.2l119.4,95.1 M275.1,1246.7l-12.6,55.5 M275.1,1246.7l122.4,97.8 M293.7,1188.2l124.1,98.8
		 M442.7,1226.1l-24.9,60.9 M318,1126.7l124.7,99.4 M472.3,1161.9l-29.6,64.2 M348.3,1062.8l124.1,99.1 M505.9,1095.1l-33.6,66.8
		 M383.5,997.6l122.4,97.4 M543.2,1026.5l-37.2,68.5 M423.8,931.4l-40.2,66.2 M423.8,931.4l119.4,95.1 M468.7,864.9l-44.9,66.5
		 M468.7,864.9l115.4,91.8 M517.9,798.7l-49.2,66.2 M517.9,798.7L628,886.5 M570.8,733.5l-52.9,65.2 M570.8,733.5L674.2,816
		 M626.6,670l-55.9,63.5 M626.6,670l96.4,76.8 M685.2,608.5L626.6,670 M685.2,608.5l88.1,70.2 M745.7,550l-60.5,58.5 M745.7,550
		l79.2,63.2 M807.9,494.8L745.7,550 M807.9,494.8l69.2,55.2 M870.7,443.5l-62.9,51.2 M870.7,443.5l58.9,46.9 M933.9,396.7
		l-63.2,46.9 M933.9,396.7l47.9,37.9 M997.1,354.4l-63.2,42.2 M997.1,354.4l36.2,28.9 M1059,317.5l-61.9,36.9 M1059,317.5l24.3,19.6
		 M1119.5,286.6l-60.5,30.9 M1119.5,286.6l12.3,9.6 M1178,261.3l-58.5,25.3 M1039,296.5l20,21 M1109.5,275.9l10,10.6 M967.2,323.2
		l29.9,31.3 M1039,296.5l-71.8,26.6 M895,355.1l38.9,41.6 M967.2,323.2L895,355.1 M822.5,392.3l48.2,51.2 M895,355.1l-72.5,37.2
		 M822.5,392.3L751,434.6 M751,434.6l-70.2,46.9 M751,434.6l56.9,60.2 M680.8,481.5L612.7,532 M680.8,481.5l64.8,68.5 M612.7,532
		l-65.2,54.2 M612.7,532l72.5,76.5 M547.5,586.2l-61.9,57.5 M547.5,586.2l79.2,83.8 M485.6,643.8l-57.9,59.5 M485.6,643.8l85.1,89.8
		 M427.8,703.3l-53.5,61.8 M427.8,703.3l90.1,95.4 M374.2,765.1L326,828 M374.2,765.1l94.4,99.8 M326,828l-42.9,63.5 M326,828
		l97.8,103.4 M383.5,997.6l-35.2,65.2 M283.1,891.5l-36.6,63.8 M283.1,891.5l100.4,106.1 M215.9,1018.6L318,1126.6 M348.3,1062.8
		l-30.3,63.8 M246.5,955.4l-30.6,63.2 M246.5,955.4l101.8,107.4 M192,1080.4l101.8,107.8 M318,1126.7l-24.3,61.5 M215.9,1018.6
		l-23.9,61.9 M174.7,1140.9l100.4,105.8 M293.7,1188.2l-18.6,58.5 M192,1080.4l-17.3,60.5 M164.7,1198.8l97.8,103.4 M174.7,1140.9
		l-10,57.9 M161.4,1254l94.8,99.8 M164.7,1198.8l-3.3,55.2 M165.7,1305.6l90.1,95.4 M161.4,1254l4.3,51.6 M176.7,1353.4l85.1,89.8
		 M165.7,1305.6l11,47.9 M194.6,1396.7l79.1,83.8 M176.7,1353.4l18,43.2 M219.6,1435.6l72.5,76.2 M166,1355.8l53.5,79.8
		 M136.1,1309.6l29.9,46.2 M113.5,1259.7l22.6,49.9 M113.5,1259.7l63.2,93.8 M98.5,1206.1l15,53.5 M98.5,1206.1l67.2,99.4
		 M91.2,1149.9l7.3,56.2 M91.2,1149.9l70.2,104.1 M91.9,1091.1l-0.7,58.9 M91.9,1091.1l72.8,107.8 M100.2,1030.2l-8.3,60.9
		 M100.2,1030.2l74.5,110.7 M116.1,968.3l-16,61.9 M116.1,968.3l75.8,112.1 M139.8,905.8l-23.6,62.5 M139.8,905.8l76.2,112.7
		 M170.7,843.3l-30.9,62.5 M170.7,843.3l75.8,112.1 M208.6,781.1l-37.9,62.2 M208.6,781.1l74.5,110.4 M253.2,720.2l-44.6,60.9
		 M253.2,720.2L326,828 M304,661l-50.9,59.2 M304,661l70.2,104.1 M360.6,603.8L304,661 M360.6,603.8l67.2,99.4 M422.4,550
		l-61.9,53.9 M422.4,550l63.2,93.8 M488.6,499.1L422.4,550"/>
	<path class="st0" d="M1281.8,1267.7l-18.9,74.5 M1281.8,1267.7l136.3-11.6 M1297.1,1189.5l-15.3,78.2 M1297.1,1189.5l131.7-11.3
		 M1308.7,1108.7l-11.6,80.8 M1308.7,1108.7l125.4-11 M1316,1025.5l-7.3,83.1 M1316,1025.5l118.4-10 M1319.7,941.4l-3.7,84.1
		 M1319.7,941.4l110.1-9.3 M1319,856.9l0.7,84.5 M1319,856.9l100.8-8.7 M1314.7,772.8l4.3,84.1 M1314.7,772.8l90.1-7.7 M1306.1,690
		l8.7,82.8 M1306.1,690l78.8-7 M1293.4,609.2l12.6,80.8 M1293.4,609.2l67.2-6 M1277.1,531l54.5-4.7 M1257.2,456.5l19.9,74.5
		 M1257.2,456.5l41.6-3.7 M1233.9,386.4l23.3,70.2 M1233.9,386.4l27.9-2.7 M1207.3,320.8l26.6,65.5 M1207.3,320.8l14-1 M1178,261.3
		l29.3,59.5 M1207.3,320.8l-15-1 M1178,261.3l14.3,58.5 M1204,384.4l29.9,2 M1192.3,319.8l11.6,64.5 M1204,384.4l8.7,69.2
		 M1218.3,527l58.9,4 M1212.6,453.5l5.7,73.5 M1212.6,453.5l44.6,3 M1220.6,604.5l72.8,4.7 M1277.1,531l16.3,78.2 M1220.6,604.5
		l-0.3,79.8 M1220.3,684.3l-3.7,82.1 M1220.3,684.3l85.8,5.7 M1216.6,766.5l-6.7,83.5 M1216.6,766.5l98.1,6.3 M1209.9,850l-9.7,83.8
		 M1209.9,850l109.1,7 M1200.3,933.8l-12.6,83.8 M1200.3,933.8l119.4,7.7 M1187.7,1017.6l-15.3,82.1 M1187.7,1017.6l128.4,8
		 M1154.8,1180.5l142.3,9 M1172.4,1099.7l-17.6,80.8 M1172.4,1099.7l136.3,9 M1154.8,1180.5l-20.6,77.5 M1134.1,1258l-22.6,74.5
		 M1134.1,1258l147.7,9.7 M1111.5,1332.5l151.3,9.7 M1086.9,1402.7l-26.3,65.5 M1086.9,1402.7l153.6,10 M1032.4,1528.1l153.6,9.6
		 M1060.6,1468.2l-28.3,59.9 M1060.6,1468.2l154.3,10 M1003.1,1581.6l151.3,10 M1032.4,1528.1l-29.3,53.5 M972.8,1629.2l147.7,9.3
		 M1003.1,1581.6l-30.3,47.6 M941.9,1669.4l142.7,9 M972.8,1629.2l-30.9,40.2 M910.6,1702l136,9 M941.9,1669.4l-31.3,32.6
		 M879,1727.3l128.4,8.3 M910.6,1702l-31.6,25.3 M847.8,1744.2l119.4,7.7 M879,1727.3l-31.3,17 M816.9,1753.2l109.1,7.3
		 M847.8,1744.2l-30.9,9 M786.9,1754.2l97.8,6.3 M816.9,1753.2l-29.9,1 M685.2,1733.9l101.8,20.3 M703.5,1730.9l-18.3,3
		 M723.7,1719.6l-20.3,11.3 M723.7,1719.6l124,24.6 M745.7,1700.7l-22,18.9 M745.7,1700.7l133.4,26.6 M769,1674.1l-23.3,26.6
		 M769,1674.1l141.7,27.9 M793.6,1639.8l-24.6,34.3 M793.6,1639.8l148.3,29.6 M819.2,1598.6l-25.6,41.2 M819.2,1598.6l153.6,30.6
		 M845.8,1550.7l-26.6,47.9 M845.8,1550.7l157.3,30.9 M872.7,1496.5l-26.9,54.2 M872.7,1496.5l159.6,31.6 M900,1436.3l-27.3,60.2
		 M900,1436.3l160.6,31.9 M927.3,1371.1l-27.3,65.2 M927.3,1371.1l159.6,31.6 M1111.5,1332.5l-24.6,70.2 M954.2,1301.2l-26.9,69.8
		 M954.2,1301.2l157.3,31.3 M980.5,1227.7l-26.3,73.5 M980.5,1227.7l153.6,30.3 M1006.4,1150.9l-25.9,76.8 M1003.1,1150.9
		l148.3,29.6 M1031,1071.8l-24.6,79.2 M1027.7,1071.8l141.7,27.9 M1054.3,991l-23.3,80.8 M1051,991l133.7,26.6 M1076.3,909.1
		l-21.9,81.8 M1072.9,909.1l124.1,24.6 M1096.5,827.3l-20.3,81.8 M1093.2,827.3l113.4,22.6 M1114.8,746.5l-18.3,80.8 M1114.8,746.5
		l101.8,20 M1131.1,666.7l-16.3,79.8 M1131.1,666.7l89.1,17.6 M1145.1,589.5l-14,77.2 M1145.1,589.5l75.5,15 M1218.3,527l2.3,77.5
		 M1156.7,515l61.5,12 M1166.1,444.2l-9.3,70.8 M1166.1,444.2l46.6,9.3 M1172.7,378l-6.7,66.2 M1172.7,378l31.3,6.3 M1176.7,316.9
		l-4,61.2 M1176.7,316.9l15.6,3 M1178,261.3l-1.3,55.5 M1176.7,316.9l-16-5.3 M1178,261.3l-17.3,50.2 M1141.1,367.7l31.6,10.3
		 M1160.7,311.5l-19.6,56.2 M1141.1,367.7l-21.9,61.5 M1095.2,495.1l61.5,20 M1119.2,429.2l-23.9,65.9 M1119.2,429.2l46.9,15
		 M1069.3,564.6l75.8,24.9 M1156.7,515l-11.6,74.5 M1095.2,495.1l-25.9,69.5 M1069.3,564.6l-27.3,73.2 M1042,637.8l-28.9,75.5
		 M1042,637.8l89.1,28.9 M1013.1,713.3l-29.9,77.2 M1013.1,713.3l101.8,33.3 M983.1,790.4l-30.9,78.5 M983.1,790.4l110.1,36.9
		 M952.2,868.9L921,947.4 M952.2,868.9l120.7,40.2 M921,947.4l-31.6,78.2 M921,947.4l130,43.6 M889.4,1025.5l-31.3,77.2
		 M889.4,1025.5l138.3,46.2 M827.2,1177.5l153.3,50.2 M858.1,1102.7l-30.9,74.8 M858.1,1103.7l148.3,48.6 M827.2,1177.5l-30.3,72.5
		 M796.9,1250l-29.6,68.8 M796.2,1251l154.7,50.2 M739.4,1383.7l160.6,52.5 M767.3,1318.9l-27.9,64.8 M767,1319.9l157,51.2
		 M713.1,1444.2l159.6,52.2 M739.4,1383.7l-26.3,60.5 M688.2,1499.1l157.6,51.6 M713.1,1444.2l-24.9,54.9 M665.5,1548.3l153.6,50.2
		 M688.2,1499.1l-22.6,49.2 M645.2,1591.6l148.3,48.2 M665.5,1548.3l-20.3,43.2 M627.3,1627.8L769,1674 M645.2,1591.6l-18,36.2
		 M612,1657.1l133.7,43.6 M627.3,1627.8l-15.3,29.3 M599.7,1679.4l124,40.2 M612,1657.1l-12.3,22.3 M599.7,1679.4l-9.7,14.3
		 M583.4,1700.7l101.8,33.2 M590,1693.7l-6.7,7 M493.9,1660.4l89.5,40.2 M480.6,1643.4l4.6,12.3 M480.6,1643.4l109.4,50.2
		 M480.3,1624.5l0.3,18.9 M480.3,1624.5l119.4,54.9 M483.6,1598.2l-3.3,26.3 M483.6,1598.2l128.4,58.9 M491.3,1565.3l-7.6,32.9
		 M491.3,1565.3l136,62.5 M502.6,1525.7l-11.3,39.6 M502.6,1525.7l142.7,65.8 M517.9,1480.5l-15.3,45.2 M517.9,1480.5l147.7,67.8
		 M536.8,1429.6l-19,50.9 M536.8,1429.6l151.3,69.5 M559.5,1373.4l-22.6,56.2 M559.5,1373.4l153.6,70.8 M585.1,1312.9l-25.6,60.5
		 M585.1,1312.9l154.3,70.8 M614,1248.4l-28.9,64.5 M614,1248.4l152.3,70.8 M645.2,1180.2l-31.3,68.2 M645.2,1181.8l150.3,68.8
		 M679.2,1109.7l-33.9,70.5 M678.8,1111l148.3,66.5"/>
	<path class="st0" d="M1738.4,724.6l18.3,64.5 M1725.4,808l17.3,69.5 M1751.7,947.7l14.6-92.8 M1756.7,789.1l9.7,65.8 M1742.7,877.5
		l9,70.2 M1752.7,1017.2l15.3-96.1 M1766.3,854.9l1.7,66.2 M1751.7,947.7l1,69.5 M1745.7,1085.4L1761,987 M1768,921.1l-7,65.8
		 M1745.7,1085.4l-15.3,66.5 M1730.4,1151.9l-23.6,64.2 M1706.8,1216.1l-30.9,61.2 M1591.4,1421.3l-44.6,51.2 M1629.3,1365.1
		l-37.9,56.2 M1629.3,1365.1l46.6-87.8 M1683.5,1240.1l-23.3,64.5 M1683.5,1240.1l46.9-88.1 M1699.8,1172.2l-16.3,67.8
		 M1699.8,1172.2l45.9-86.8 M1708.1,1101.7l-8.3,70.5 M1708.1,1101.7l44.6-84.5 M1708.5,1029.2l-0.3,72.5 M1708.5,1029.2l43.2-81.5
		 M1701.5,955.7l7,73.5 M1701.5,955.7l41.2-78.2 M1686.5,881.5l15,74.2 M1686.5,881.5l38.9-73.5 M1663.9,807.4l22.6,74.2
		 M1663.9,807.4l36.2-68.2 M1634,734.2l29.9,73.2 M1634,734.2l33.2-62.2 M1597.1,662.7l36.9,71.5 M1597.1,662.7l29.6-55.9
		 M1553.5,593.5l43.6,69.2 M1553.5,593.5l25.9-48.9 M1503.3,527.4l50.2,66.2 M1503.3,527.4l22.3-41.6 M1447.7,464.5l55.5,62.9
		 M1447.7,464.5l18-33.6 M1386.6,406l61.2,58.5 M1386.6,406l13.6-25.6 M1320.7,352.4l65.8,53.5 M1320.7,352.4l9.3-17.3
		 M1251.2,303.9l69.5,48.6 M1251.2,303.9l4.3-8.6 M1178,261.3l73.2,42.6 M1251.2,303.9l-7.7,7 M1178,261.3l65.5,49.6 M1306.1,366.4
		l14.6-14 M1243.5,310.9l62.5,55.5 M1306.1,366.4l58.5,60.9 M1418.5,492.4l29.3-27.9 M1364.6,427.2l53.9,65.2 M1364.6,427.2
		l21.9-21.3 M1467.7,561.6l35.6-34.3 M1418.5,492.4l49.2,69.2 M1511.3,634.1l42.2-40.6 M1467.7,561.6l43.6,72.5 M1511.3,634.1
		l37.6,74.8 M1580.1,785.8l53.9-51.5 M1548.8,708.9l31.3,76.8 M1548.8,708.9l48.2-46.2 M1580.1,785.8l24.9,77.8 M1605,863.6
		l18.3,78.5 M1605,863.6l58.9-56.2 M1634.3,1019.9l67.2-64.2 M1623.3,942.1l11,77.8 M1623.3,942.1l63.2-60.5 M1638.3,1096.4
		l70.2-67.2 M1634.3,1019.9l4,76.5 M1635.3,1171.2l72.8-69.5 M1638.3,1096.4l-3,74.8 M1625,1243.4l74.8-71.2 M1635.3,1171.2
		l-10.3,72.2 M1608,1312.6l75.5-72.5 M1625,1243.4l-17,69.2 M1584.1,1377.4l76.2-72.8 M1608,1312.6l-23.9,64.8 M1553.5,1437.6
		l75.8-72.5 M1584.1,1377.4l-30.6,60.2 M1516.6,1492.8l74.8-71.5 M1553.5,1437.6l-36.9,55.2 M1474,1542l72.8-69.5 M1516.6,1492.8
		L1474,1542 M1474,1542l-48.2,43.2 M1425.8,1585.2l-53.5,36.9 M1229.2,1697l-55.9,19.3 M1229.2,1697l85.1-45.2 M1282.1,1670.1
		l90.1-47.9 M1331,1635.8l-48.9,34.3 M1331,1635.8l94.8-50.6 M1375.9,1594.2l-44.9,41.6 M1375.9,1594.2l98.1-52.2 M1416.5,1546
		l-40.6,48.2 M1416.5,1546l100.1-53.2 M1451.7,1491.8l-35.2,54.2 M1451.7,1491.8l101.8-54.2 M1481.7,1431.6l-29.9,60.2
		 M1481.7,1431.6l102.4-54.2 M1506.3,1366.4l-24.6,65.2 M1506.3,1366.4l101.8-53.9 M1524.9,1296.9l-18.6,69.5 M1524.9,1296.9
		l100.1-53.5 M1537.5,1223.4l-12.6,73.5 M1537.5,1223.4l97.8-52.2 M1543.8,1146.9l-6.3,76.5 M1543.8,1146.9l94.4-50.6
		 M1544.2,1067.8l-0.3,79.2 M1544.2,1067.8l90.1-47.9 M1538.2,987.3l6,80.5 M1538.2,987.3l85.1-45.2 M1525.9,905.8l12.3,81.5
		 M1525.9,905.8l79.2-42.2 M1507.9,824.3l18,81.5 M1507.9,824.3l72.2-38.6 M1484,743.5l23.9,80.8 M1484,743.5l64.8-34.6
		 M1454.4,664.4l29.6,79.2 M1454.4,664.4l56.9-30.3 M1419.5,587.2l34.9,77.2 M1419.5,587.2l48.2-25.6 M1379.2,513.4l40.2,73.8
		 M1379.2,513.4l39.2-21 M1334.7,442.9l44.6,70.5 M1334.7,442.9l29.9-15.6 M1286.1,377l48.6,65.9 M1286.1,377l19.9-10.6
		 M1233.6,316.5l52.6,60.5 M1233.6,316.5l10-5.6 M1178,261.3l55.5,55.2 M1233.6,316.5l-12.3,3.3 M1178,261.3l43.2,58.5
		 M1261.8,383.7l24.3-6.6 M1221.3,319.8l40.6,63.9 M1261.8,383.7l36.9,69.2 M1331.7,526.4l47.6-13 M1298.8,452.9l32.9,73.5
		 M1298.8,452.9l35.9-10 M1360.6,603.2l58.9-16 M1331.7,526.4l28.9,76.8 M1360.6,603.2l24.3,79.8 M1384.9,683l19.9,82.1 M1384.9,683
		l69.5-18.6 M1404.8,765.2l15,83.1 M1404.8,765.2l79.2-21.6 M1419.8,848.3l10,83.8 M1419.8,848.3l88.1-24 M1429.8,932.1l4.7,83.5
		 M1429.8,932.1l96.1-26.3 M1434.4,1015.6l-0.3,82.1 M1434.4,1015.6l103.8-28.3 M1434.1,1097.7l-5.3,80.5 M1434.1,1097.7l110.1-29.9
		 M1428.8,1178.2l-10.6,77.8 M1428.8,1178.2l115.1-31.3 M1402.5,1330.2l122.4-33.3 M1418.1,1256l-15.6,74.2 M1418.1,1256l119.4-32.6
		 M1382.2,1400.3l124-33.9 M1402.5,1330.2l-20.3,70.2 M1356.9,1465.9l124.7-34.3 M1382.2,1400.3l-25.3,65.5 M1327.7,1525.7l124-33.9
		 M1356.9,1465.9l-29.3,59.9 M1294.1,1579.6l122.4-33.6 M1327.7,1525.7l-33.6,53.9 M1256.8,1626.8l119.1-32.6 M1294.1,1579.6
		l-37.2,47.2 M1215.9,1667.1l115.1-31.3 M1256.8,1626.8l-40.9,40.2 M1172,1700l110.1-29.9 M1215.9,1667.1L1172,1700 M1125.5,1725.3
		l103.8-28.3 M1172,1700l-46.6,25.3 M1076.9,1742.6l96.4-26.3 M1125.5,1725.3l-48.6,17.3 M1076.9,1742.6l-50.2,9 M925.9,1760.5
		h-41.2 M925.9,1760.5l100.8-9 M967.2,1751.9l-41.2,8.7 M967.2,1751.9l109.7-9.3 M1007.4,1735.6l-40.2,16.3 M1007.4,1735.6
		l118.1-10.3 M1046.7,1711l-39.2,24.6 M1046.7,1711l125.4-11 M1084.6,1678.4l-37.9,32.6 M1084.6,1678.4l131.4-11.3 M1120.5,1638.5
		l-35.9,39.9 M1120.5,1638.5l136.3-11.6 M1154.4,1591.6l-33.9,46.9 M1154.4,1591.6l139.7-12 M1186,1537.7l-31.6,53.9 M1186,1537.7
		l141.7-12 M1214.9,1478.2l-28.9,59.5 M1214.9,1478.2l142-12.3 M1240.6,1412.7l-25.6,65.5 M1240.6,1412.7l141.7-12.3 M1262.8,1342.2
		l-22.3,70.5 M1262.8,1342.2l139.7-12"/>
	<path class="st0" d="M1752.7,1017.2l0.7,18.9 M877,54.5l79.2-6.7 M703.5,1730.9l113.4,22.3 M590,1693.7l113.4,37.2 M485.3,1655.8
		l8.6,4.7 M1257.2,285.2l-1.7,10 M1178,261.3l77.5,33.9 M1178,261.3l79.2,23.9 M1330,335.1l3-19.6 M1257.2,285.2l75.8,30.3
		 M1255.5,295.2l74.5,39.9 M1333,315.5l71.8,35.9 M1330,335.1l70.2,45.2 M1465.7,430.9l6-38.6 M1404.8,351.4l66.8,40.9
		 M1400.2,380.4l65.5,50.5 M1400.2,380.4l4.7-28.9 M1525.6,485.8l7.3-47.6 M1471.7,392.3l61.2,45.9 M1465.7,430.9l59.9,54.9
		 M1579.4,544.7l8.7-55.9 M1532.9,438.2l55.2,50.5 M1525.6,485.8l53.9,58.9 M1626.7,606.8l10-63.8 M1588.1,488.8l48.6,54.2
		 M1579.4,544.7l47.2,62.2 M1667.2,672l11-71.2 M1636.6,543l41.6,57.9 M1626.7,606.8l40.6,65.2 M1700.2,739.2l12-77.8 M1678.2,600.9
		l33.9,60.5 M1667.2,672l32.9,67.2 M1725.4,808l13-83.5 M1712.1,661.4l26.3,63.2 M1700.2,739.2l25.3,68.8 M1742.7,877.5l14-88.5"/>
</g>
</svg>
