<?xml version="1.0" encoding="utf-8"?>
<!-- Generator: Adobe Illustrator 25.2.3, SVG Export Plug-In . SVG Version: 6.00 Build 0)  -->
<svg version="1.1" id="Layer_1" xmlns="http://www.w3.org/2000/svg" xmlns:xlink="http://www.w3.org/1999/xlink" x="0px" y="0px"
	 width="3138px" height="2398px" viewBox="0 0 3138 2398" style="enable-background:new 0 0 3138 2398;" xml:space="preserve">
<style type="text/css">
	.st0{fill:none;stroke:#F5F6F6;stroke-width:3;stroke-linecap:round;stroke-linejoin:round;}
	.st1{fill:none;stroke:#F5F6F6;stroke-width:3;stroke-linejoin:round;}
	.st2{fill:none;stroke:#F5F6F6;stroke-width:3;stroke-linejoin:round;stroke-dasharray:19.8728,19.8728;}
	.st3{fill:none;stroke:#F5F6F6;stroke-width:3;stroke-linejoin:round;stroke-dasharray:20.1565,20.1565;}
	.st4{fill:none;stroke:#F5F6F6;stroke-width:3;stroke-linejoin:round;stroke-dasharray:19.9755,19.9755;}
	.st5{fill:none;stroke:#F5F6F6;stroke-width:3;stroke-linejoin:round;stroke-dasharray:19.8077,19.8077;}
	.st6{fill:#F5F6F6;}
</style>
<g>
	<path class="st0" d="M2017.27,687.04l-72.5,38.6 M2077.77,683.74l-60.5,3.3 M2077.77,683.74l-64.8,34.6 M2139.97,688.34l-62.2-4.7
		 M2139.97,688.34l-56.9,30.3 M2202.77,700.64l-62.8-12.3 M2202.77,700.64l-48.2,25.9 M2265.97,721.24l-63.2-20.6 M2265.97,721.24
		l-38.9,20.7 M2329.17,749.24l-63.2-27.9 M2329.17,749.24l-29.9,16 M2391.07,784.44l-61.9-35.2 M2391.07,784.44l-20,10.6
		 M2441.57,832.34l-70.5-37.2 M2441.57,832.34l10-5.3 M2510.07,876.24l-68.5-43.9 M2510.07,876.24l-46.2-52.5 M2510.07,876.24
		l-58.5-49.2 M2415.27,778.14l-24.3,6.3 M2451.57,827.04l-60.5-42.6 M2463.87,823.74l-12.3,3.3 M2365.47,739.24l-36.2,10
		 M2415.27,778.14l-49.9-38.9 M2313.87,708.34l-47.9,13 M2365.47,739.24l-51.5-30.9 M2261.67,684.74l-58.9,16 M2313.87,708.34
		l-52.2-23.6 M2209.07,669.44l-69.2,19 M2261.67,684.74l-52.5-15.3 M2156.87,662.04l-79.2,21.6 M2209.07,669.44l-52.2-7.3
		 M2105.37,663.04l-88.1,24 M2156.87,662.04l-51.5,1 M2055.17,672.34l-96.4,26.3 M2105.37,663.04l-50.2,9.3 M2205.77,654.44
		l-100.4,8.6 M2247.07,654.44h-41.2 M2247.07,654.44l-90.1,7.7 M2288.27,662.74l-41.2-8.3 M2328.87,679.04l-40.6-16.3
		 M2328.87,679.04l-67.2,5.7 M2368.37,703.64l-39.6-24.6 M2368.37,703.64l-54.5,4.7 M2406.67,735.94l-38.2-32.3 M2406.67,735.94
		l-41.2,3.3 M2443.27,775.44l-36.6-39.6 M2443.27,775.44l-27.9,2.7 M2463.87,823.74l-48.6-45.6 M2477.87,822.34l-34.6-46.9
		 M2477.87,822.34l-14,1.3 M2510.07,876.24l-32.3-53.9 M2477.87,822.34l15,1 M2510.07,876.24l-17.3-52.9 M2473.17,777.44l-29.9-2
		 M2492.77,823.34l-19.6-45.9 M2451.27,738.54l-44.6-2.7 M2473.17,777.44l-21.9-38.9 M2427.27,707.34l-58.9-3.7 M2451.27,738.54
		l-23.9-31.3 M2401.37,683.74l-72.5-4.7 M2427.27,707.34l-25.9-23.6 M2374.07,668.04l-85.8-5.3 M2401.37,683.74l-27.3-15.7
		 M2345.17,660.74l-98.1-6.3 M2374.07,668.04l-28.9-7.3 M2446.87,680.74l-101.8-20 M2463.17,685.64l-16.3-5 M2463.17,685.64
		l-89.1-17.6 M2477.17,698.64l-14-13 M2477.17,698.64l-75.8-15 M2488.77,719.64l-11.6-20.9 M2488.77,719.64l-61.5-12.3
		 M2498.17,747.84l-9.3-28.3 M2498.17,747.84l-46.9-9.3 M2504.77,783.84l-6.7-35.9 M2504.77,783.84l-31.6-6.3 M2508.77,826.74
		l-4-42.9 M2508.77,826.74l-16-3.3 M2510.07,876.24l-1.3-49.6 M2510.07,876.24l14.3-44.6 M2536.07,794.14l-31.3-10.3
		 M2524.37,831.64l11.6-37.6 M2524.37,831.64l-15.6-5 M2544.67,763.14l-46.6-15.3 M2536.07,794.14l8.7-30.9 M2550.37,739.54
		l-61.5-20 M2544.67,763.14l5.7-23.6 M2552.67,723.24l-75.5-24.6 M2550.37,739.54l2.3-16.3 M2552.37,714.94l-89.1-29.3
		 M2552.67,723.24l-0.3-8.3 M2638.17,754.14l8.7,5 M2638.17,754.14l-85.8-39.2 M2625.47,756.84l12.6-2.7 M2625.47,756.84l-72.8-33.6
		 M2609.17,766.84l16.3-10 M2609.17,766.84l-58.9-27.3 M2589.27,783.84l19.9-17 M2589.27,783.84l-44.6-20.6 M2565.97,807.74
		l23.3-23.9 M2565.97,807.74l-29.9-13.6 M2524.37,831.64l11.6-37.6 M2539.37,838.64l26.6-30.9 M2524.37,831.64l15,7 M2510.07,876.24
		l29.3-37.6 M2510.07,876.24l14.3-44.6 M2510.07,876.24l43.2-28.9 M2510.07,876.24l29.3-37.6 M2593.87,824.74l-27.9-17
		 M2539.37,838.64l26.6-30.9 M2553.37,847.34l40.6-22.6 M2553.37,847.34l-14-8.6 M2630.87,809.04l-41.6-25.3 M2593.87,824.74
		l36.9-15.6 M2663.77,800.04l-54.5-33.3 M2630.87,809.04l32.9-9 M2692.67,797.74l-67.2-40.9 M2663.77,800.04l28.9-2.3
		 M2716.97,802.74l-78.8-48.6 M2692.67,797.74l24.3,5 M2816.07,877.24l23.9,25.6 M2786.47,857.94l29.6,19.3 M2786.47,857.94
		l-69.5-55.2 M2751.57,844.64l34.9,13.3 M2751.57,844.64l-58.9-46.9 M2711.27,838.04l40.2,6.6 M2711.27,838.04l-47.6-37.9
		 M2666.77,837.64l44.6,0.3 M2666.77,837.64l-35.9-28.6 M2618.17,844.04l48.6-6.3 M2618.17,844.04l-24.3-19.3 M2565.67,856.94
		l52.6-13 M2565.67,856.94l-12.3-9.6 M2510.07,876.24l55.5-19.3 M2565.67,856.94l10,10.6 M2510.07,876.24l65.5-8.6 M2638.17,865.24
		l-19.9-21.3 M2575.57,867.64l62.5-2.3 M2696.67,869.24l-29.9-31.6 M2638.17,865.24l58.5,4 M2750.57,879.24l-39.2-41.2
		 M2696.67,869.24l53.9,10 M2799.77,895.54l-48.2-50.9 M2750.57,879.24l49.2,16.3 M2843.37,917.84l-56.9-59.9 M2799.77,895.54
		l43.6,22.3 M2843.37,917.84l37.6,27.9 M2912.17,979.34l-72.2-76.5 M2966.07,1059.14l29.9,45.9 M2966.07,1059.14l-53.9-79.8
		 M2929.17,1017.24l36.9,41.9 M2929.17,1017.24l-48.2-71.5 M2885.57,980.34l43.6,36.9 M2885.57,980.34l-42.2-62.5 M2835.37,948.74
		l50.2,31.6 M2835.37,948.74l-35.6-53.2 M2779.77,922.44l55.5,26.3 M2779.77,922.44l-29.3-43.2 M2718.57,901.84l61.2,20.6
		 M2718.57,901.84l-21.9-32.6 M2652.77,887.24l65.8,14.6 M2652.77,887.24l-14.6-21.9 M2583.27,878.54l69.5,8.6 M2583.27,878.54
		l-7.7-11 M2510.07,876.24l73.2,2.3 M2587.57,889.54l-77.5-13.3 M2583.27,878.54l4.3,11 M2662.07,909.14l-9.3-22 M2587.57,889.54
		l74.5,19.6 M2662.07,909.14l70.2,25.6 M2797.77,965.74l-18-43.2 M2732.27,934.74l65.5,30.9 M2732.27,934.74l-13.6-32.9
		 M2857.67,1001.94l-22.3-53.2 M2797.77,965.74l59.9,36.2 M2911.47,1043.14l-25.9-62.9 M2857.67,1001.94l53.9,41.2 M2958.77,1089.04
		l-29.6-71.8 M2911.47,1043.14l47.2,45.9 M2999.27,1138.94l-33.3-79.8 M2958.77,1089.04l40.6,49.9 M3032.27,1192.14l-36.2-87.1
		 M2999.27,1138.94l32.9,53.2 M3032.27,1192.14l25.3,56.9 M3057.47,1249.04l17.3,59.2 M3074.77,1308.24l9,60.9 M3098.37,1469.84
		l-14.6-100.8 M3070.47,1339.54l-13-90.5 M3044.17,1276.34l-12-84.1 M3010.27,1215.74l-11-76.8 M2968.67,1157.94l-10-68.9
		 M2920.17,1103.74l-8.7-60.5 M2864.97,1053.14l-7.3-51.2 M2803.77,1007.24l-6-41.6 M2736.87,966.34l-4.7-31.6 M2665.07,930.44
		l-3-21.3 M2589.27,900.14l-1.7-10.6"/>
	<path class="st0" d="M1820.67,1114.04l58.9,87.1 M1891.17,1067.44l-70.5,46.6 M1891.17,1067.44l53.5,79.5 M1964.67,1024.94
		l-73.5,42.6 M1964.67,1024.94l48.2,71.5 M2040.87,986.94l-76.2,38 M2040.87,986.94l42.2,62.5 M2118.67,954.44l-77.8,32.5
		 M2118.67,954.44l35.9,52.9 M2197.77,927.14l-79.2,27.3 M2197.77,927.14l29.3,42.9 M2277.27,905.14l-79.5,22 M2277.27,905.14
		l22,32.9 M2356.47,889.54l-79.2,15.6 M2356.47,889.54l14.6,22 M2441.57,890.84l-70.5,20.6 M2441.57,890.84l-7.3-11 M2510.07,876.24
		l-68.5,14.6 M2510.07,876.24l-75.8,3.7 M2347.17,867.54l9.3,22 M2434.27,879.94l-77.8,9.6 M2429.57,868.64l4.7,11.3
		 M2263.67,872.54l13.6,32.6 M2347.17,867.54l-83.5,5 M2179.87,883.94l18,43.2 M2263.67,872.54l-83.8,11.4 M2096.67,901.14l22,53.2
		 M2179.87,883.94l-83.1,17.3 M2096.67,901.14l-81.8,23.3 M1935.07,953.04l29.6,71.8 M2014.87,924.44l25.9,62.5 M1857.97,987.64
		l33.3,79.8 M1784.47,1026.94l36.2,87.1 M1715.57,1071.14l-64.2,48.2 M1715.57,1071.14l38.9,93.8 M1651.37,1119.34l-58.5,52.2
		 M1651.37,1119.34l41.2,99.4 M1592.87,1171.54l-52.6,55.5 M1592.87,1171.54l43.2,104.4 M1540.37,1227.14l-45.6,58.2
		 M1540.37,1227.14l44.9,108.1 M1494.77,1285.34l-38.6,60.5 M1494.77,1285.34l45.9,110.7 M1424.97,1408.04l46.9,112.7
		 M1456.17,1345.84l-31.3,62.2 M1456.17,1345.84l46.6,112.4 M1401.67,1470.84l46.6,112.4 M1424.97,1408.04l-23.3,62.9
		 M1386.37,1534.44l45.9,110.7 M1401.67,1470.84l-15.3,63.5 M1379.07,1597.94l44.9,108.1 M1386.37,1534.44l-7.3,63.5
		 M1381.07,1662.74l42.2,102.1 M1379.07,1597.94l1,59.5 M1389.37,1721.64l41.2,99.4 M1406.67,1780.84l38.9,93.8 M1389.37,1721.64
		l17.3,59.2 M1375.37,1625.54l14,96.1 M1365.37,1560.04l10,65.5 M1364.07,1493.84l1.3,66.2 M1364.07,1493.84l15,104.1
		 M1370.77,1427.94l-6.7,65.9 M1370.77,1427.94l15.6,106.4 M1386.07,1362.74l-15.3,65.2 M1386.07,1362.74l15.6,108.1
		 M1409.27,1298.94l-23.2,63.8 M1409.27,1298.94l15.6,109.1 M1440.57,1237.44l-31.3,61.5 M1440.57,1237.44l15.6,108.4
		 M1479.17,1178.54l-38.6,58.9 M1479.17,1178.54l15.6,106.8 M1525.37,1123.04l-46.2,55.5 M1525.37,1123.04l15,104.1
		 M1578.27,1071.14l-52.9,51.9 M1578.27,1071.14l14.6,100.4 M1637.47,1023.54l14,95.8 M1702.27,980.64l13.3,90.5 M1784.47,1026.94
		l-68.8,44.2 M1772.47,942.74l-70.2,37.9 M1772.47,942.74l12,84.1 M1857.97,987.64l-73.5,39.2 M1846.57,910.54l11.3,77.2
		 M1935.07,953.04l-77.2,34.6 M1924.77,884.24l10.3,68.8 M2014.87,924.44l-79.8,28.6 M2005.87,863.94l9,60.5 M2089.37,849.64
		l-83.5,14.3 M2089.37,849.64l7.3,51.6 M2173.87,842.04l-84.5,7.6 M2173.87,842.04l6,41.9 M2258.97,841.04l-85.1,1 M2258.97,841.04
		l4.7,31.6 M2344.17,846.34l-85.1-5.3 M2344.17,846.34l3,21.3 M2429.57,868.64l-82.5-1 M2427.97,857.94l-83.8-11.6 M2429.57,868.64
		l-1.7-10.6 M2510.07,876.24l-82.1-18.3 M2510.07,876.24l-80.5-7.6 M2427.97,857.94l1.7-9.6 M2510.07,876.24l-80.5-27.9
		 M2347.17,826.74l-3,19.6 M2429.57,848.34l-82.5-21.6 M2263.67,811.74l-4.7,29.3 M2347.17,826.74l-83.5-15 M2179.87,803.74l-6,38.2
		 M2263.67,811.74l-83.8-8 M2096.67,802.44l-7.3,47.2 M2179.87,803.74l-83.1-1.3 M2014.87,808.04l-9,55.9 M2096.67,802.44l-81.8,5.6
		 M1935.07,820.34l-10.3,63.9 M2005.87,863.94l-81.1,20.3 M2014.87,808.04l-79.8,12.3 M1857.97,839.64l-11.3,70.8 M1924.77,884.24
		l-78.2,26.3 M1935.07,820.34l-77.2,19.3 M1784.47,865.24l-12,77.5 M1846.57,910.54l-74.2,32.3 M1857.97,839.64l-73.5,25.6
		 M1784.47,865.24l-68.8,31.6 M1702.27,980.64l-64.9,42.9 M1715.57,896.84l-64.2,37.9 M1715.57,896.84l-13.3,83.8 M1637.47,1023.54
		l-59.2,47.5 M1651.37,934.74l-58.5,43.6 M1651.37,934.74l-14,88.8 M1540.37,1026.94l-15,96.1 M1592.87,978.34l-52.5,48.6
		 M1592.87,978.34l-14.6,92.8 M1494.77,1080.14l-15.6,98.4 M1540.37,1026.94l-45.6,53.2 M1456.17,1137.64l-15.6,99.8
		 M1494.77,1080.14l-38.6,57.5 M1424.97,1198.54l-15.7,100.4 M1456.17,1137.64l-31.3,60.9 M1401.67,1262.74l-15.6,100
		 M1424.97,1198.54l-23.3,64.2 M1386.37,1329.24l-15.7,98.7 M1401.67,1262.74l-15.3,66.5 M1502.77,1049.54l-31.6,65.5
		 M1540.67,993.34l-37.9,56.2 M1540.67,993.34l-45.9,86.8 M1585.27,942.44l-44.6,50.9 M1585.27,942.44l-44.9,84.5 M1636.07,896.54
		l-50.9,45.9 M1636.07,896.54l-43.2,81.8 M1692.67,856.94l-56.6,39.6 M1692.67,856.94l-41.2,77.8 M1754.47,823.74l-61.8,33.2
		 M1754.47,823.74l-38.9,73.2 M1820.67,796.74l-66.2,26.9 M1820.67,796.74l-36.2,68.5 M1891.17,777.14l-70.5,19.6 M1891.17,777.14
		l-33.3,62.5 M1964.67,764.54l-73.5,12.6 M1964.67,764.54l-29.6,55.8 M2040.87,758.84l-76.2,5.6 M2040.87,758.84l-25.9,49.2
		 M2118.67,760.84l-77.8-2 M2118.67,760.84l-22,41.6 M2197.77,769.84l-79.2-9 M2197.77,769.84l-18,33.9 M2277.27,786.14l-79.5-16.3
		 M2277.27,786.14l-13.6,25.6 M2356.47,809.44l-79.2-23.3 M2356.47,809.44l-9.3,17.3 M2429.57,848.34l4.7-8.6 M2510.07,876.24
		l-75.8-36.6 M2371.07,795.14l-14.6,14.3 M2434.27,839.64l-77.8-30.3 M2441.57,832.34l-7.3,7.3 M2299.27,765.14l-22,20.9
		 M2371.07,795.14l-71.8-29.9 M2227.07,741.84l-29.3,27.9 M2299.27,765.14l-72.2-23.3 M2154.57,726.64l-35.9,34.3 M2227.07,741.84
		l-72.5-15.3 M2083.07,718.64l-42.2,40.2 M2154.57,726.64l-71.5-8 M2012.87,718.24l-48.2,46.2 M2083.07,718.64l-70.2-0.3
		 M1944.77,725.64l-53.5,51.5 M2012.87,718.24l-68.2,7.3 M1879.57,740.54l-58.9,56.2 M1944.77,725.64l-65.2,15 M1817.67,763.14
		l-63.2,60.5 M1879.57,740.54l-61.9,22.6 M1759.87,792.74l-67.2,64.2 M1817.67,763.14l-57.9,29.6 M1706.27,829.34l-70.2,67.2
		 M1759.87,792.74l-53.5,36.6 M1902.87,717.94l-85.1,45.2 M1958.67,698.64l-55.8,19.3 M1958.67,698.64l-79.2,41.9 M2017.27,687.04
		l-58.5,11.6"/>
	<path class="st0" d="M2047.47,1651.74l-36.2,72.8 M2047.47,1653.44l142.7,65.2 M2085.37,1577.94l-37.9,73.8 M2085.37,1577.94
		l136,62.5 M2124.67,1503.44l-39.3,74.5 M2124.67,1503.44l128.4,58.9 M2164.87,1428.94l-40.2,74.5 M2164.87,1428.94l119.4,54.9
		 M2205.77,1355.14l-40.9,73.8 M2205.77,1355.14l109.4,50.2 M2247.07,1282.94l-41.2,72.2 M2247.07,1282.94l98.1,45.2
		 M2288.27,1213.14l-41.2,69.8 M2288.27,1213.14l85.8,39.6 M2328.87,1146.24l-40.6,66.8 M2328.87,1146.24l72.5,33.3
		 M2368.37,1082.74l-39.6,63.5 M2368.37,1082.74l58.9,27.3 M2406.67,1023.54l-38.2,59.2 M2406.67,1023.54l44.6,20.6 M2443.27,969.04
		l-36.6,54.5 M2443.27,969.04l29.9,13.6 M2477.87,919.44l-34.6,49.5 M2477.87,919.44l15,7 M2510.07,876.24l-32.3,43.2
		 M2477.87,919.44l-14-8.3 M2510.07,876.24l-46.2,34.9 M2415.27,952.04l27.9,17 M2463.87,911.14l-48.6,40.9 M2415.27,952.04
		l-49.9,46.2 M2313.87,1049.54l54.5,33.3 M2365.47,998.34l-51.5,51.2 M2365.47,998.34l41.2,25.3 M2261.67,1105.34l67.2,40.9
		 M2313.87,1049.54l-52.2,55.9 M2261.67,1105.34l-52.5,59.6 M2209.07,1164.94l-52.2,63.2 M2209.07,1164.94l79.2,48.2
		 M2156.87,1228.14l-51.5,65.5 M2156.87,1228.14l90.2,54.8 M2105.37,1293.64l-50.2,68.2 M2105.37,1293.64l100.4,61.5
		 M2055.17,1361.74l-48.9,69.2 M2055.17,1361.74l109.7,67.2 M2006.27,1430.94l-46.2,70.5 M2006.27,1430.94l118.4,72.5
		 M1960.07,1501.44l-43.9,70.2 M1960.07,1501.44l125.3,76.5 M1875.27,1641.44l135.7,84.5 M1916.17,1571.64l-40.9,69.8
		 M1916.17,1571.64l131.4,81.8 M1837.97,1710.04l139.3,86.8 M1774.77,1841.04l142.3,86.8 M1804.37,1776.84l141.7,86.5
		 M1749.87,1901.84l141.7,86.5 M1729.57,1959.44l139.3,85.1 M1749.87,1901.84l-20.3,57.5 M1713.97,2012.24l136,83.1
		 M1729.57,1959.44l-15.6,52.9 M1703.27,2060.54l131.4,80.2 M1713.97,2012.24l-10.6,48.2 M1697.97,2103.44l125.4,76.8
		 M1703.27,2060.54l-5.3,42.9 M1697.67,2141.04l118.1,72.2 M1697.97,2103.44l-0.3,37.6 M1702.27,2172.24l110.1,67.2
		 M1697.67,2141.04l4.7,31.3 M1712.27,2197.24l100.4,61.2 M1702.27,2172.24l10,24.9 M1727.27,2215.54l90.1,55.2 M1712.27,2197.24
		l15,18.3 M1648.07,2152.34l79.1,63.2 M1624.17,2126.74l23.9,25.6 M1624.17,2126.74l88.1,70.5 M1605.87,2095.44l18.3,31.3
		 M1605.87,2095.44l96.4,76.8 M1593.87,2058.14l12,37.2 M1593.87,2058.14l103.8,82.8 M1587.87,2015.94l6,42.2 M1587.87,2015.94
		l110.1,87.5 M1588.17,1968.74l-0.3,47.2 M1588.17,1968.74l115.1,91.8 M1594.57,1917.14l-6.3,51.6 M1594.57,1917.14l119.4,95.1
		 M1607.17,1861.64l-12.6,55.5 M1607.17,1861.64l122.4,97.8 M1625.77,1803.14l124.1,98.8 M1774.77,1841.04l-24.9,60.9
		 M1650.07,1741.64l124.7,99.4 M1804.37,1776.84l-29.6,64.2 M1680.37,1677.74l124.1,99.1 M1837.97,1710.04l-33.6,66.8
		 M1715.57,1612.54l122.4,97.4 M1875.27,1641.44l-37.2,68.5 M1755.87,1546.34l-40.2,66.2 M1755.87,1546.34l119.4,95.1
		 M1800.77,1479.84l-44.9,66.5 M1800.77,1479.84l115.4,91.8 M1849.97,1413.64l-49.2,66.2 M1849.97,1413.64l110.1,87.8
		 M1902.87,1348.44l-52.9,65.2 M1902.87,1348.44l103.4,82.5 M1958.67,1284.94l-55.9,63.5 M1958.67,1284.94l96.4,76.8
		 M2017.27,1223.44l-58.6,61.5 M2017.27,1223.44l88.1,70.2 M2077.77,1164.94l-60.5,58.5 M2077.77,1164.94l79.2,63.2
		 M2139.97,1109.74l-62.2,55.2 M2139.97,1109.74l69.2,55.2 M2202.77,1058.44l-62.9,51.2 M2202.77,1058.44l58.9,46.9
		 M2265.97,1011.64l-63.2,46.9 M2265.97,1011.64l47.9,37.9 M2329.17,969.34l-63.2,42.2 M2329.17,969.34l36.2,28.9 M2391.07,932.44
		l-61.9,36.9 M2391.07,932.44l24.3,19.6 M2451.57,901.54l-60.5,30.9 M2451.57,901.54l12.3,9.6 M2510.07,876.24l-58.5,25.3
		 M2371.07,911.44l20,21 M2441.57,890.84l10,10.6 M2299.27,938.14l29.9,31.3 M2371.07,911.44l-71.8,26.6 M2227.07,970.04l38.9,41.6
		 M2299.27,938.14l-72.2,31.9 M2154.57,1007.24l48.2,51.2 M2227.07,970.04l-72.5,37.2 M2154.57,1007.24l-71.5,42.3 M2083.07,1049.54
		l-70.2,46.9 M2083.07,1049.54l56.9,60.2 M2012.87,1096.44l-68.1,50.5 M2012.87,1096.44l64.8,68.5 M1944.77,1146.94l-65.2,54.2
		 M1944.77,1146.94l72.5,76.5 M1879.57,1201.14l-61.9,57.5 M1879.57,1201.14l79.2,83.8 M1817.67,1258.74l-57.9,59.5
		 M1817.67,1258.74l85.1,89.8 M1759.87,1318.24l-53.5,61.8 M1759.87,1318.24l90.1,95.4 M1706.27,1380.04l-48.2,62.9
		 M1706.27,1380.04l94.4,99.8 M1658.07,1442.94l-42.9,63.5 M1658.07,1442.94l97.8,103.4 M1715.57,1612.54l-35.2,65.2
		 M1615.17,1506.44l-36.6,63.8 M1615.17,1506.44l100.4,106.1 M1547.97,1633.54l102.1,108 M1680.37,1677.74l-30.3,63.8
		 M1578.57,1570.34l-30.6,63.2 M1578.57,1570.34l101.8,107.4 M1524.07,1695.34l101.8,107.8 M1650.07,1741.64l-24.3,61.5
		 M1547.97,1633.54l-23.9,61.9 M1506.77,1755.84l100.4,105.8 M1625.77,1803.14l-18.6,58.5 M1524.07,1695.34l-17.3,60.5
		 M1496.77,1813.74l97.8,103.4 M1506.77,1755.84l-10,57.9 M1493.47,1868.94l94.8,99.8 M1496.77,1813.74l-3.3,55.2 M1497.77,1920.54
		l90.1,95.4 M1493.47,1868.94l4.3,51.6 M1508.77,1968.34l85.1,89.8 M1497.77,1920.54l11,47.9 M1526.67,2011.64l79.1,83.8
		 M1508.77,1968.34l18,43.2 M1551.67,2050.54l72.5,76.2 M1498.07,1970.74l53.5,79.8 M1468.17,1924.54l29.9,46.2 M1445.57,1874.64
		l22.6,49.9 M1445.57,1874.64l63.2,93.8 M1430.57,1821.04l15,53.5 M1430.57,1821.04l67.2,99.4 M1423.27,1764.84l7.3,56.2
		 M1423.27,1764.84l70.2,104.1 M1423.97,1706.04l-0.7,58.9 M1423.97,1706.04l72.8,107.8 M1432.27,1645.14l-8.3,60.9
		 M1432.27,1645.14l74.5,110.7 M1448.17,1583.24l-16,61.9 M1448.17,1583.24l75.8,112.1 M1471.87,1520.74l-23.6,62.5
		 M1471.87,1520.74l76.2,112.7 M1502.77,1458.24l-30.9,62.5 M1502.77,1458.24l75.8,112.1 M1540.67,1396.04l-37.9,62.2
		 M1540.67,1396.04l74.5,110.4 M1585.27,1335.14l-44.6,60.9 M1585.27,1335.14l72.8,107.8 M1636.07,1275.94l-50.9,59.2
		 M1636.07,1275.94l70.2,104.1 M1692.67,1218.74l-56.6,57.2 M1692.67,1218.74l67.2,99.4 M1754.47,1164.94l-61.9,53.9
		 M1754.47,1164.94l63.2,93.8 M1820.67,1114.04l-66.2,50.9"/>
	<path class="st0" d="M2613.87,1882.64l-18.9,74.5 M2613.87,1882.64l136.3-11.6 M2629.17,1804.44l-15.3,78.2 M2629.17,1804.44
		l131.7-11.3 M2640.77,1723.64l-11.6,80.8 M2640.77,1723.64l125.4-11 M2648.07,1640.44l-7.3,83.1 M2648.07,1640.44l118.4-10
		 M2651.77,1556.34l-3.7,84.1 M2651.77,1556.34l110.1-9.3 M2651.07,1471.84l0.7,84.5 M2651.07,1471.84l100.8-8.7 M2646.77,1387.74
		l4.3,84.1 M2646.77,1387.74l90.1-7.7 M2638.17,1304.94l8.7,82.8 M2638.17,1304.94l78.8-7 M2625.47,1224.14l12.6,80.8
		 M2625.47,1224.14l67.2-6 M2609.17,1145.94l54.5-4.7 M2589.27,1071.44l19.9,74.5 M2589.27,1071.44l41.6-3.7 M2565.97,1001.34
		l23.3,70.2 M2565.97,1001.34l27.9-2.7 M2539.37,935.74l26.6,65.5 M2539.37,935.74l14-1 M2510.07,876.24l29.3,59.5 M2539.37,935.74
		l-15-1 M2510.07,876.24l14.3,58.5 M2536.07,999.34l29.9,2 M2524.37,934.74l11.6,64.5 M2536.07,999.34l8.7,69.2 M2550.37,1141.94
		l58.9,4 M2544.67,1068.44l5.7,73.5 M2544.67,1068.44l44.6,3 M2552.67,1219.44l72.8,4.7 M2609.17,1145.94l16.3,78.2
		 M2552.67,1219.44l-0.3,79.8 M2552.37,1299.24l-3.7,82.1 M2552.37,1299.24l85.8,5.7 M2548.67,1381.44l-6.7,83.5 M2548.67,1381.44
		l98.1,6.3 M2541.97,1464.94l-9.7,83.8 M2541.97,1464.94l109.1,7 M2532.37,1548.74l-12.6,83.8 M2532.37,1548.74l119.4,7.7
		 M2519.77,1632.54l-15.3,82.1 M2519.77,1632.54l128.4,8 M2486.87,1795.44l142.3,9 M2504.47,1714.64l-17.6,80.8 M2504.47,1714.64
		l136.3,9 M2486.87,1795.44l-20.6,77.5 M2466.17,1872.94l-22.6,74.5 M2466.17,1872.94l147.7,9.7 M2443.57,1947.44l151.3,9.7
		 M2418.97,2017.64l-26.3,65.5 M2418.97,2017.64l153.6,10 M2364.47,2143.04l153.6,9.6 M2392.67,2083.14l-28.3,59.9 M2392.67,2083.14
		l154.3,10 M2335.17,2196.54l151.3,10 M2364.47,2143.04l-29.3,53.5 M2304.87,2244.14l147.7,9.3 M2335.17,2196.54l-30.3,47.6
		 M2273.97,2284.34l142.7,9 M2304.87,2244.14l-30.9,40.2 M2242.67,2316.94l136,9 M2273.97,2284.34l-31.3,32.6 M2211.07,2342.24
		l128.4,8.3 M2242.67,2316.94l-31.6,25.3 M2179.87,2359.14l119.4,7.7 M2211.07,2342.24l-31.3,17 M2148.97,2368.14l109.1,7.3
		 M2179.87,2359.14l-30.9,9 M2118.97,2369.14l97.8,6.3 M2148.97,2368.14l-29.9,1 M2017.27,2348.84l101.8,20.3 M2035.57,2345.84
		l-18.3,3 M2055.77,2334.54l-20.3,11.3 M2055.77,2334.54l124,24.6 M2077.77,2315.64l-22,18.9 M2077.77,2315.64l133.4,26.6
		 M2101.07,2289.04l-23.3,26.6 M2101.07,2289.04l141.7,27.9 M2125.67,2254.74l-24.6,34.3 M2125.67,2254.74l148.3,29.6
		 M2151.27,2213.54l-25.6,41.2 M2151.27,2213.54l153.6,30.6 M2177.87,2165.64l-26.6,47.9 M2177.87,2165.64l157.3,30.9
		 M2204.77,2111.44l-26.9,54.2 M2204.77,2111.44l159.6,31.6 M2232.07,2051.24l-27.3,60.2 M2232.07,2051.24l160.6,31.9
		 M2259.37,1986.04l-27.3,65.2 M2259.37,1986.04l159.6,31.6 M2443.57,1947.44l-24.6,70.2 M2286.27,1916.14l-26.9,69.8
		 M2286.27,1916.14l157.3,31.3 M2312.57,1842.64l-26.3,73.5 M2312.57,1842.64l153.6,30.3 M2338.47,1765.84l-25.9,76.8
		 M2335.17,1765.84l148.3,29.6 M2363.07,1686.74l-24.6,79.2 M2359.77,1686.74l141.7,27.9 M2386.37,1605.94l-23.3,80.8
		 M2383.07,1605.94l133.7,26.6 M2408.37,1524.04l-21.9,81.8 M2404.97,1524.04l124.1,24.6 M2428.57,1442.24l-20.3,81.8
		 M2425.27,1442.24l113.4,22.6 M2446.87,1361.44l-18.3,80.8 M2446.87,1361.44l101.8,20 M2463.17,1281.64l-16.3,79.8
		 M2463.17,1281.64l89.1,17.6 M2477.17,1204.44l-14,77.2 M2477.17,1204.44l75.5,15 M2550.37,1141.94l2.3,77.5 M2488.77,1129.94
		l61.5,12 M2498.17,1059.14l-9.3,70.8 M2498.17,1059.14l46.6,9.3 M2504.77,992.94l-6.7,66.2 M2504.77,992.94l31.3,6.3
		 M2508.77,931.84l-4,61.2 M2508.77,931.84l15.6,3 M2510.07,876.24l-1.3,55.5 M2508.77,931.84l-16-5.3 M2510.07,876.24l-17.3,50.2
		 M2473.17,982.64l31.6,10.3 M2492.77,926.44l-19.6,56.2 M2473.17,982.64l-21.9,61.5 M2427.27,1110.04l61.5,20 M2451.27,1044.14
		l-23.9,65.9 M2451.27,1044.14l46.9,15 M2401.37,1179.54l75.8,24.9 M2488.77,1129.94l-11.6,74.5 M2427.27,1110.04l-25.9,69.5
		 M2401.37,1179.54l-27.3,73.2 M2374.07,1252.74l-28.9,75.5 M2374.07,1252.74l89.1,28.9 M2345.17,1328.24l-29.9,77.2
		 M2345.17,1328.24l101.8,33.3 M2315.17,1405.34l-30.9,78.5 M2315.17,1405.34l110.1,36.9 M2284.27,1483.84l-31.2,78.5
		 M2284.27,1483.84l120.7,40.2 M2253.07,1562.34l-31.6,78.2 M2253.07,1562.34l130,43.6 M2221.47,1640.44l-31.3,77.2
		 M2221.47,1640.44l138.3,46.2 M2159.27,1792.44l153.3,50.2 M2190.17,1717.64l-30.9,74.8 M2190.17,1718.64l148.3,48.6
		 M2159.27,1792.44l-30.3,72.5 M2128.97,1864.94l-29.6,68.8 M2128.27,1865.94l154.7,50.2 M2071.47,1998.64l160.6,52.5
		 M2099.37,1933.84l-27.9,64.8 M2099.07,1934.84l157,51.2 M2045.17,2059.14l159.6,52.2 M2071.47,1998.64l-26.3,60.5
		 M2020.27,2114.04l157.6,51.6 M2045.17,2059.14l-24.9,54.9 M1997.57,2163.24l153.6,50.2 M2020.27,2114.04l-22.6,49.2
		 M1977.27,2206.54l148.3,48.2 M1997.57,2163.24l-20.3,43.2 M1959.37,2242.74l141.7,46.2 M1977.27,2206.54l-18,36.2
		 M1944.07,2272.04l133.7,43.6 M1959.37,2242.74l-15.3,29.3 M1931.77,2294.34l124,40.2 M1944.07,2272.04l-12.3,22.3
		 M1931.77,2294.34l-9.7,14.3 M1915.47,2315.64l101.8,33.2 M1922.07,2308.64l-6.7,7 M1825.97,2275.34l89.5,40.2 M1812.67,2258.34
		l4.6,12.3 M1812.67,2258.34l109.4,50.2 M1812.37,2239.44l0.3,18.9 M1812.37,2239.44l119.4,54.9 M1815.67,2213.14l-3.3,26.3
		 M1815.67,2213.14l128.4,58.9 M1823.37,2180.24l-7.6,32.9 M1823.37,2180.24l136,62.5 M1834.67,2140.64l-11.3,39.6 M1834.67,2140.64
		l142.7,65.8 M1849.97,2095.44l-15.3,45.2 M1849.97,2095.44l147.7,67.8 M1868.87,2044.54l-19,50.9 M1868.87,2044.54l151.3,69.5
		 M1891.57,1988.34l-22.6,56.2 M1891.57,1988.34l153.6,70.8 M1917.17,1927.84l-25.6,60.5 M1917.17,1927.84l154.3,70.8
		 M1946.07,1863.34l-28.9,64.5 M1946.07,1863.34l152.3,70.8 M1977.27,1795.14l-31.3,68.2 M1977.27,1796.74l150.3,68.8
		 M2011.27,1724.64l-33.9,70.5 M2010.87,1725.94l148.3,66.5"/>
	<path class="st0" d="M3070.47,1339.54l18.3,64.5 M3057.47,1422.94l17.3,69.5 M3083.77,1562.64l14.6-92.8 M3088.77,1404.04l9.7,65.8
		 M3074.77,1492.44l9,70.2 M3084.77,1632.14l15.3-96.1 M3098.37,1469.84l1.7,66.2 M3083.77,1562.64l1,69.5 M3077.77,1700.34
		l15.3-98.4 M3100.07,1536.04l-7,65.8 M3077.77,1700.34l-15.3,66.5 M3062.47,1766.84l-23.6,64.2 M3038.87,1831.04l-30.9,61.2
		 M2923.47,2036.24l-44.6,51.2 M2961.37,1980.04l-37.9,56.2 M2961.37,1980.04l46.6-87.8 M3015.57,1855.04l-23.3,64.5
		 M3015.57,1855.04l46.9-88.1 M3031.87,1787.14l-16.3,67.8 M3031.87,1787.14l45.9-86.8 M3040.17,1716.64l-8.3,70.5 M3040.17,1716.64
		l44.6-84.5 M3040.57,1644.14l-0.3,72.5 M3040.57,1644.14l43.2-81.5 M3033.57,1570.64l7,73.5 M3033.57,1570.64l41.2-78.2
		 M3018.57,1496.44l15,74.2 M3018.57,1496.44l38.9-73.5 M2995.97,1422.34l22.6,74.2 M2995.97,1422.34l36.2-68.2 M2966.07,1349.14
		l29.9,73.2 M2966.07,1349.14l33.2-62.2 M2929.17,1277.64l36.9,71.5 M2929.17,1277.64l29.6-55.9 M2885.57,1208.44l43.6,69.2
		 M2885.57,1208.44l25.9-48.9 M2835.37,1142.34l50.2,66.2 M2835.37,1142.34l22.3-41.6 M2779.77,1079.44l55.5,62.9 M2779.77,1079.44
		l18-33.6 M2718.67,1020.94l61.2,58.5 M2718.67,1020.94l13.6-25.6 M2652.77,967.34l65.8,53.5 M2652.77,967.34l9.3-17.3
		 M2583.27,918.84l69.5,48.6 M2583.27,918.84l4.3-8.6 M2510.07,876.24l73.2,42.6 M2583.27,918.84l-7.7,7 M2510.07,876.24l65.5,49.6
		 M2638.17,981.34l14.6-14 M2575.57,925.84l62.5,55.5 M2638.17,981.34l58.5,60.9 M2750.57,1107.34l29.3-27.9 M2696.67,1042.14
		l53.9,65.2 M2696.67,1042.14l21.9-21.3 M2799.77,1176.54l35.6-34.3 M2750.57,1107.34l49.2,69.2 M2843.37,1249.04l42.2-40.6
		 M2799.77,1176.54l43.6,72.5 M2843.37,1249.04l37.6,74.8 M2912.17,1400.74l53.9-51.5 M2880.87,1323.84l31.3,76.8 M2880.87,1323.84
		l48.2-46.2 M2912.17,1400.74l24.9,77.8 M2937.07,1478.54l18.3,78.5 M2937.07,1478.54l58.9-56.2 M2966.37,1634.84l67.2-64.2
		 M2955.37,1557.04l11,77.8 M2955.37,1557.04l63.2-60.5 M2970.37,1711.34l70.2-67.2 M2966.37,1634.84l4,76.5 M2967.37,1786.14
		l72.8-69.5 M2970.37,1711.34l-3,74.8 M2957.07,1858.34l74.8-71.2 M2967.37,1786.14l-10.3,72.2 M2940.07,1927.54l75.5-72.5
		 M2957.07,1858.34l-17,69.2 M2916.17,1992.34l76.2-72.8 M2940.07,1927.54l-23.9,64.8 M2885.57,2052.54l75.8-72.5 M2916.17,1992.34
		l-30.6,60.2 M2848.67,2107.74l74.8-71.5 M2885.57,2052.54l-36.9,55.2 M2806.07,2156.94l72.8-69.5 M2848.67,2107.74l-42.6,49.2
		 M2806.07,2156.94l-48.2,43.2 M2757.87,2200.14l-53.5,36.9 M2561.27,2311.94l-55.9,19.3 M2561.27,2311.94l85.1-45.2
		 M2614.17,2285.04l90.1-47.9 M2663.07,2250.74l-48.9,34.3 M2663.07,2250.74l94.8-50.6 M2707.97,2209.14l-44.9,41.6
		 M2707.97,2209.14l98.1-52.2 M2748.57,2160.94l-40.6,48.2 M2748.57,2160.94l100.1-53.2 M2783.77,2106.74l-35.2,54.2
		 M2783.77,2106.74l101.8-54.2 M2813.77,2046.54l-29.9,60.2 M2813.77,2046.54l102.4-54.2 M2838.37,1981.34l-24.6,65.2
		 M2838.37,1981.34l101.8-53.9 M2856.97,1911.84l-18.6,69.5 M2856.97,1911.84l100.1-53.5 M2869.57,1838.34l-12.6,73.5
		 M2869.57,1838.34l97.8-52.2 M2875.87,1761.84l-6.3,76.5 M2875.87,1761.84l94.4-50.6 M2876.27,1682.74l-0.3,79.2 M2876.27,1682.74
		l90.1-47.9 M2870.27,1602.24l6,80.5 M2870.27,1602.24l85.1-45.2 M2857.97,1520.74l12.3,81.5 M2857.97,1520.74l79.2-42.2
		 M2839.97,1439.24l18,81.5 M2839.97,1439.24l72.2-38.6 M2816.07,1358.44l23.9,80.8 M2816.07,1358.44l64.8-34.6 M2786.47,1279.34
		l29.6,79.2 M2786.47,1279.34l56.9-30.3 M2751.57,1202.14l34.9,77.2 M2751.57,1202.14l48.2-25.6 M2711.27,1128.34l40.2,73.8
		 M2711.27,1128.34l39.2-21 M2666.77,1057.84l44.6,70.5 M2666.77,1057.84l29.9-15.6 M2618.17,991.94l48.6,65.9 M2618.17,991.94
		l19.9-10.6 M2565.67,931.44l52.6,60.5 M2565.67,931.44l10-5.6 M2510.07,876.24l55.5,55.2 M2565.67,931.44l-12.3,3.3
		 M2510.07,876.24l43.2,58.5 M2593.87,998.64l24.3-6.6 M2553.37,934.74l40.6,63.9 M2593.87,998.64l36.9,69.2 M2663.77,1141.34
		l47.6-13 M2630.87,1067.84l32.9,73.5 M2630.87,1067.84l35.9-10 M2692.67,1218.14l58.9-16 M2663.77,1141.34l28.9,76.8
		 M2692.67,1218.14l24.3,79.8 M2716.97,1297.94l19.9,82.1 M2716.97,1297.94l69.5-18.6 M2736.87,1380.14l15,83.1 M2736.87,1380.14
		l79.2-21.6 M2751.87,1463.24l10,83.8 M2751.87,1463.24l88.1-24 M2761.87,1547.04l4.7,83.5 M2761.87,1547.04l96.1-26.3
		 M2766.47,1630.54l-0.3,82.1 M2766.47,1630.54l103.8-28.3 M2766.17,1712.64l-5.3,80.5 M2766.17,1712.64l110.1-29.9
		 M2760.87,1793.14l-10.6,77.8 M2760.87,1793.14l115.1-31.3 M2734.57,1945.14l122.4-33.3 M2750.17,1870.94l-15.6,74.2
		 M2750.17,1870.94l119.4-32.6 M2714.27,2015.24l124-33.9 M2734.57,1945.14l-20.3,70.2 M2688.97,2080.84l124.7-34.3
		 M2714.27,2015.24l-25.3,65.5 M2659.77,2140.64l124-33.9 M2688.97,2080.84l-29.3,59.9 M2626.17,2194.54l122.4-33.6
		 M2659.77,2140.64l-33.6,53.9 M2588.87,2241.74l119.1-32.6 M2626.17,2194.54l-37.2,47.2 M2547.97,2282.04l115.1-31.3
		 M2588.87,2241.74l-40.9,40.2 M2504.07,2314.94l110.1-29.9 M2547.97,2282.04l-43.9,32.9 M2457.57,2340.24l103.8-28.3
		 M2504.07,2314.94l-46.6,25.3 M2408.97,2357.54l96.4-26.3 M2457.57,2340.24l-48.6,17.3 M2408.97,2357.54l-50.2,9 M2257.97,2375.44
		h-41.2 M2257.97,2375.44l100.8-9 M2299.27,2366.84l-41.2,8.7 M2299.27,2366.84l109.7-9.3 M2339.47,2350.54l-40.2,16.3
		 M2339.47,2350.54l118.1-10.3 M2378.77,2325.94l-39.2,24.6 M2378.77,2325.94l125.4-11 M2416.67,2293.34l-37.9,32.6
		 M2416.67,2293.34l131.4-11.3 M2452.57,2253.44l-35.9,39.9 M2452.57,2253.44l136.3-11.6 M2486.47,2206.54l-33.9,46.9
		 M2486.47,2206.54l139.7-12 M2518.07,2152.64l-31.6,53.9 M2518.07,2152.64l141.7-12 M2546.97,2093.14l-28.9,59.5 M2546.97,2093.14
		l142-12.3 M2572.67,2027.64l-25.6,65.5 M2572.67,2027.64l141.7-12.3 M2594.87,1957.14l-22.3,70.5 M2594.87,1957.14l139.7-12"/>
	<path class="st0" d="M3084.77,1632.14l0.7,18.9 M2209.07,669.44l79.2-6.7 M2035.57,2345.84l113.4,22.3 M1922.07,2308.64l113.4,37.2
		 M1817.37,2270.74l8.6,4.7 M2589.27,900.14l-1.7,10 M2510.07,876.24l77.5,33.9 M2510.07,876.24l79.2,23.9 M2662.07,950.04l3-19.6
		 M2589.27,900.14l75.8,30.3 M2587.57,910.14l74.5,39.9 M2665.07,930.44l71.8,35.9 M2662.07,950.04l70.2,45.2 M2797.77,1045.84
		l6-38.6 M2736.87,966.34l66.8,40.9 M2732.27,995.34l65.5,50.5 M2732.27,995.34l4.7-28.9 M2857.67,1100.74l7.3-47.6
		 M2803.77,1007.24l61.2,45.9 M2797.77,1045.84l59.9,54.9 M2911.47,1159.64l8.7-55.9 M2864.97,1053.14l55.2,50.5 M2857.67,1100.74
		l53.9,58.9 M2958.77,1221.74l10-63.8 M2920.17,1103.74l48.6,54.2 M2911.47,1159.64l47.2,62.2 M2999.27,1286.94l11-71.2
		 M2968.67,1157.94l41.6,57.9 M2958.77,1221.74l40.6,65.2 M3032.27,1354.14l12-77.8 M3010.27,1215.84l33.9,60.5 M2999.27,1286.94
		l32.9,67.2 M3057.47,1422.94l13-83.5 M3044.17,1276.34l26.3,63.2 M3032.27,1354.14l25.3,68.8 M3074.77,1492.44l14-88.5"/>
</g>
<g>
	<g>
		<line class="st1" x1="45.62" y1="1819.09" x2="55.25" y2="1816.41"/>
		<line class="st2" x1="74.39" y1="1811.06" x2="1940.67" y2="1290.21"/>
		<line class="st1" x1="1950.24" y1="1287.54" x2="1959.87" y2="1284.85"/>
	</g>
</g>
<g>
	<g>
		<line class="st1" x1="1959.87" y1="1284.85" x2="1950.5" y2="1281.36"/>
		<line class="st3" x1="1931.62" y1="1274.32" x2="732.31" y2="827.21"/>
		<line class="st1" x1="722.87" y1="823.69" x2="713.5" y2="820.19"/>
	</g>
</g>
<g>
	<g>
		<line class="st1" x1="1959.87" y1="1284.85" x2="1954.42" y2="1276.47"/>
		<line class="st4" x1="1943.52" y1="1259.73" x2="1164.15" y2="62.87"/>
		<line class="st1" x1="1158.7" y1="54.5" x2="1153.24" y2="46.12"/>
	</g>
</g>
<g>
	<g>
		<line class="st1" x1="1959.87" y1="1284.85" x2="1966.36" y2="1277.25"/>
		<line class="st5" x1="1979.22" y1="1262.18" x2="2744.25" y2="365.67"/>
		<line class="st1" x1="2750.68" y1="358.13" x2="2757.17" y2="350.53"/>
	</g>
</g>
<circle class="st6" cx="1959.87" cy="1284.85" r="19.5"/>
<circle class="st6" cx="713.5" cy="820.19" r="19.5"/>
<circle class="st6" cx="1153.24" cy="46.12" r="19.5"/>
<circle class="st6" cx="2757.17" cy="350.53" r="19.5"/>
<circle class="st6" cx="45.62" cy="1819.09" r="19.5"/>
</svg>
