<?xml version="1.0" encoding="utf-8"?>
<!-- Generator: Adobe Illustrator 25.2.3, SVG Export Plug-In . SVG Version: 6.00 Build 0)  -->
<svg version="1.1" id="Layer_1" xmlns="http://www.w3.org/2000/svg" xmlns:xlink="http://www.w3.org/1999/xlink" x="0px" y="0px"
	 width="565px" height="370px" viewBox="0 0 565 370" style="enable-background:new 0 0 565 370;" xml:space="preserve">
<style type="text/css">
	.st0{fill:#FFFFFF;}
</style>
<path class="st0" d="M129.29,232.42v-59.63H94.14L66.82,199.7v32.84l-32.66,0.06L10.02,255.8v39.32h56.8v20.17h93.71l17.13-14.48
	v-68.48L129.29,232.42z M129.29,243.29H167v52.34l-11.15,9.22H77.46v-9.73H93.2l36.09-32.64V243.29z M69.24,200.71l25.89-25.51
	h31.74v52.56v4.67v2.41v4.58v3.87v1.46v16.66l-34.6,31.3H77.46v-4.62l12-0.01l32.8-30.14v-13.19h-0.03v-16.99h0.03v-46.83H96
	l-22.4,21.38v30.2l-4.36,0.01V200.71z M77.46,284.22v-40.93h40.94v12.95l-30.45,27.97L77.46,284.22z M118.4,232.44l-40.94,0.08
	v-28.54l20.09-19.17h20.85V232.44z M66.82,284.23l-46.2,0.04v-23.88l17.09-17.09h29.11V284.23z M62.44,239.42H36.11l-19.35,19.35
	v29.36l50.06-0.04v4.61H12.44v-35.88l22.69-21.82l27.31-0.05v-0.01h4.38h2.42v-0.01l4.36-0.01v0.01h3.86v-0.02l40.94-0.08v4.57
	H79.49h-2.03h-3.86h-4.36h-2.42H62.44z M175.24,299.68l-15.6,13.19H69.24v-16.74v-1.01v-2.42v-4.61v-3.87v-4.49v-36.45h4.36v36.45
	v4.48v3.87v4.61v2.42v1.01v12.59h83.65l13.63-11.27v-58.03h-41.58v-4.59l45.96-0.08V299.68z"/>
<path class="st0" d="M170.47,87.77h-0.07c-4.51-0.02-9.18-0.89-13.21-1.71c-4.87-0.98-9.04-2.32-12.75-4.08
	c-2.6-1.24-5.08-2.75-7.49-4.21c-2.96-1.8-6.02-3.65-9.24-4.96c-0.63-0.25-1.27-0.49-1.91-0.73c-1.53-0.57-3.09-1.15-4.52-1.95
	c0.94,2.81,1.25,5.82,0.9,8.78c-0.31,2.6-1.18,4.54-2.58,5.78c-1.83,1.62-4.68,2.11-7.81,1.34c-6.39-1.58-11.65-6.81-16.1-15.99
	c-1.46-3.01-2.73-6.26-2.2-9.59c0.08-0.53,0.58-0.89,1.1-0.8c0.53,0.08,0.89,0.58,0.8,1.11c-0.45,2.81,0.71,5.72,2.03,8.44
	c4.18,8.63,9.02,13.52,14.82,14.95c1.19,0.29,4.15,0.79,6.06-0.91c1.03-0.92,1.68-2.46,1.94-4.57c0.47-3.9-0.36-7.92-2.34-11.31
	l1.58-1.1c1.68,2.03,4.25,2.99,6.98,4.01c0.66,0.25,1.32,0.49,1.96,0.75c3.37,1.37,6.49,3.26,9.52,5.1c2.36,1.44,4.8,2.92,7.31,4.11
	c3.56,1.69,7.58,2.98,12.3,3.94c3.94,0.79,8.49,1.65,12.83,1.67h0.01c-0.03-0.27-0.17-0.86-0.77-2.07
	c-6.38-12.87-16.91-23.5-29.67-29.99c-0.53-0.27-1.07-0.54-1.61-0.8c-2.74-1.35-5.57-2.74-7.82-4.96l-1.07-1.05l1.4-0.54
	c3.35-1.29,7.63-3.6,9.64-6.24c1.8-2.37,2.39-5.78,1.59-9.12c-0.69-2.87-2.34-5.73-4.92-8.49c-8.83-9.47-25.19-12.36-31.43-7.68
	c-0.43,0.32-1.03,0.23-1.35-0.19c-0.32-0.43-0.23-1.03,0.19-1.35c3.78-2.84,10.01-3.42,17.09-1.59c6.64,1.71,12.97,5.26,16.91,9.49
	c2.81,3.01,4.62,6.16,5.39,9.36c0.93,3.9,0.21,7.91-1.93,10.74c-2.28,3-6.54,5.18-9.03,6.28c1.84,1.47,4.05,2.55,6.19,3.61
	c0.55,0.27,1.09,0.54,1.63,0.81c13.12,6.68,23.96,17.62,30.5,30.81c0.65,1.32,1.25,2.76,0.88,3.81c-0.15,0.43-0.45,0.75-0.85,0.93
	C171.05,87.76,170.72,87.77,170.47,87.77"/>
<path class="st0" d="M143.4,84.42c-0.34,0-0.67-0.18-0.85-0.5c-0.26-0.47-0.09-1.05,0.38-1.31c3.89-2.14,6.68-5.97,9.12-9.79
	c0.57-0.91,1.14-1.82,1.68-2.74c0.58-0.99,1.02-1.82,1.39-2.59c0.97-2.04,1.68-4.27,2.37-6.42c0.16-0.51,0.71-0.79,1.21-0.63
	c0.51,0.16,0.79,0.71,0.63,1.22c-0.7,2.22-1.43,4.5-2.46,6.67c-0.39,0.82-0.86,1.69-1.47,2.73c-0.55,0.95-1.13,1.88-1.72,2.81
	c-2.57,4.03-5.54,8.09-9.81,10.44C143.72,84.38,143.56,84.42,143.4,84.42"/>
<path class="st0" d="M170.01,87.57c-0.25,0-0.49-0.09-0.68-0.28c-1.1-1.09-2.25-2.22-3.62-3.01c-0.48-0.27-0.98-0.51-1.52-0.76
	l-2.53-1.18c-0.48-0.22-0.69-0.8-0.47-1.28s0.8-0.69,1.28-0.47l2.53,1.18c0.55,0.25,1.12,0.52,1.66,0.83
	c1.59,0.91,2.82,2.13,4.01,3.31c0.38,0.38,0.38,0.99,0.01,1.37C170.51,87.47,170.26,87.57,170.01,87.57"/>
<g>
	<path class="st0" d="M216.59,44.45c-2.26,0-4.5-0.54-6.51-1.03c-0.42-0.1-0.67-0.52-0.57-0.93c0.1-0.42,0.52-0.67,0.93-0.57
		c2.35,0.57,4.79,1.16,7.19,0.94c1.1-0.1,2.17-0.37,3.3-0.65c0.31-0.08,0.62-0.16,0.93-0.23c4.97-1.18,10.07-1.45,15.13-0.81
		l0.55,0.07c1.9,0.25,3.87,0.5,5.43-0.3c0.21-0.11,0.41-0.23,0.61-0.35c0.55-0.34,1.18-0.72,1.94-0.81
		c0.71-0.08,1.36,0.11,1.93,0.29l0.31,0.09c2.97,0.84,6.06,0.1,9.34-0.68c3.41-0.81,6.94-1.65,10.36-0.58
		c0.15,0.05,0.29,0.1,0.44,0.15c0.52,0.18,1.04,0.35,1.47,0.31c0.45-0.03,0.91-0.26,1.4-0.5c0.14-0.07,0.29-0.15,0.44-0.21
		c2.73-1.26,5.76-1.11,8.68-0.96c0.42,0.02,0.85,0.04,1.27,0.06c5.2,0.2,10.5-0.38,15.63-0.94l1.57-0.17
		c5.34-0.58,10.78-1.08,16.04-1.57l23.6-2.19c6.17-0.57,12.55-1.16,18.86-1.41c0.45-0.02,0.79,0.32,0.81,0.74
		c0.01,0.43-0.32,0.79-0.74,0.8c-6.27,0.25-12.63,0.84-18.78,1.41l-23.59,2.19c-5.27,0.49-10.7,0.99-16.03,1.57l-1.57,0.17
		c-5.18,0.57-10.54,1.16-15.86,0.95c-0.43-0.02-0.86-0.04-1.29-0.06c-2.73-0.13-5.56-0.28-7.95,0.83c-0.13,0.06-0.27,0.13-0.41,0.19
		c-0.57,0.28-1.22,0.61-1.98,0.66c-0.77,0.05-1.46-0.18-2.08-0.39l-0.4-0.13c-3.01-0.95-6.18-0.19-9.53,0.61
		c-3.33,0.79-6.76,1.61-10.12,0.67l-0.34-0.1c-0.47-0.14-0.91-0.28-1.31-0.23c-0.42,0.05-0.85,0.31-1.31,0.59
		c-0.23,0.14-0.47,0.29-0.71,0.41c-1.99,1.03-4.3,0.72-6.33,0.46l-0.54-0.07c-4.88-0.62-9.79-0.35-14.58,0.78
		c-0.3,0.07-0.61,0.15-0.91,0.22c-1.14,0.28-2.31,0.58-3.53,0.69C217.38,44.43,216.99,44.45,216.59,44.45"/>
</g>
<g>
	<path class="st0" d="M275.44,206.36c-1.34,0-2.6,0.81-3.46,1.54c-5.9,4.96-4.62,15.21-3.69,22.7l0.18,1.51
		c0.11,0.87,0.22,1.72,0.5,2.47c0.22,0.59,0.55,1.15,0.89,1.75l0.18,0.31c0.31,0.55,0.61,1.1,0.91,1.65c0.77,1.43,1.51,2.79,2.45,4
		c0.82,1.06,2.56,2.89,4.86,3.21c2.23,0.3,4.76-0.98,6.29-3.19c1.28-1.85,2.01-4.31,2.23-7.54c0.15-2.22,0.06-4.49-0.02-6.69
		c-0.24-6.33-0.7-11.92-3.89-16.16c-1.16-1.54-2.64-2.81-3.93-3.86c-0.96-0.77-1.98-1.53-3.1-1.68
		C275.71,206.36,275.58,206.36,275.44,206.36 M278.95,247.47c-0.31,0-0.63-0.02-0.94-0.06c-2.22-0.3-4.39-1.7-6.13-3.93
		c-1.04-1.34-1.85-2.83-2.63-4.27c-0.29-0.54-0.59-1.08-0.89-1.61l-0.17-0.3c-0.37-0.64-0.75-1.3-1.03-2.04
		c-0.35-0.96-0.49-1.93-0.61-2.92l-0.18-1.5c-0.99-7.93-2.34-18.79,4.36-24.42c1.25-1.05,3.19-2.24,5.38-1.95
		c1.61,0.21,2.94,1.19,4.06,2.09c1.39,1.12,2.98,2.49,4.27,4.2c3.81,5.07,4.06,11.82,4.27,17.24c0.08,2.24,0.17,4.57,0.02,6.89
		c-0.24,3.59-1.08,6.37-2.57,8.52C284.39,245.94,281.64,247.47,278.95,247.47"/>
	<path class="st0" d="M313.57,214.75c-0.73,4.43-0.51,8.91-0.25,12.31c0.04,0.54,0.05,1.16,0.05,1.82c0.01,1.29,0.03,2.75,0.35,3.64
		c0.34,0.93,1.33,1.17,2.79,1.42l4.35,0.77c0.96,0.17,1.96,0.35,2.88,0.25c3.04-0.32,5.12-3.37,6.91-6.62
		c1.45-2.63,2.95-5.36,3.84-8.24c0.55-1.8,0.88-3.71,1.14-5.5c0.51-3.47,0.94-7.46-0.51-10.88c-1.54-3.64-5.23-6.21-9.17-6.41
		c-0.35-0.02-0.77-0.02-1,0.13c-0.13,0.08-0.27,0.25-0.42,0.43c-0.08,0.09-0.15,0.18-0.23,0.27c-0.56,0.62-1.22,1.06-1.85,1.48
		l-0.41,0.28C317.73,202.88,314.64,208.29,313.57,214.75 M323.21,236.93c-0.93,0-1.84-0.16-2.66-0.31l-4.35-0.77
		c-1.48-0.26-3.51-0.62-4.26-2.66c-0.45-1.21-0.46-2.85-0.48-4.3c0-0.61-0.01-1.19-0.05-1.69c-0.28-3.51-0.5-8.14,0.27-12.78
		c1.15-6.98,4.53-12.86,9.29-16.11l0.44-0.29c0.56-0.37,1.09-0.72,1.48-1.16c0.06-0.07,0.12-0.14,0.18-0.22
		c0.22-0.27,0.47-0.58,0.85-0.82c0.7-0.45,1.51-0.48,2.15-0.44c4.67,0.23,9.03,3.28,10.86,7.59c1.65,3.89,1.19,8.19,0.64,11.92
		c-0.28,1.87-0.61,3.86-1.2,5.78c-0.94,3.07-2.49,5.89-3.99,8.61c-2.05,3.71-4.48,7.2-8.4,7.61
		C323.71,236.92,323.46,236.93,323.21,236.93"/>
	<path class="st0" d="M276.41,230.16c-0.33,0-0.66-0.17-0.84-0.49c-0.59-1.03-0.28-2.34,0.84-3.61l0.08-0.08
		c0.46-0.51,0.97-1.1,0.91-1.54c-0.07-0.53,0.3-1.02,0.83-1.09c0.53-0.08,1.01,0.3,1.09,0.83c0.18,1.32-0.73,2.34-1.39,3.08
		l-0.07,0.08c-0.5,0.56-0.75,1.13-0.61,1.37c0.27,0.46,0.11,1.05-0.36,1.32C276.74,230.12,276.58,230.16,276.41,230.16"/>
	<path class="st0" d="M279.1,230.33c-0.28,0-0.55-0.12-0.74-0.35c-1.35-1.6-2.84-3.11-4.43-4.47c-0.4-0.35-0.45-0.96-0.1-1.37
		c0.35-0.4,0.96-0.45,1.36-0.1c1.67,1.44,3.24,3.02,4.65,4.7c0.35,0.41,0.29,1.02-0.12,1.36
		C279.54,230.26,279.32,230.33,279.1,230.33"/>
	<path class="st0" d="M321.57,222.19c-0.19,0-0.38-0.06-0.54-0.17c-0.44-0.3-0.56-0.9-0.26-1.35c1.53-2.24,3.43-4.18,5.64-5.76
		c0.43-0.31,1.04-0.21,1.35,0.23c0.31,0.44,0.21,1.04-0.23,1.35c-2.03,1.44-3.77,3.21-5.16,5.27
		C322.18,222.04,321.88,222.19,321.57,222.19"/>
	<path class="st0" d="M325.09,222.36c-0.47,0-0.89-0.35-0.96-0.83c-0.1-0.69-0.2-1.4-0.52-1.94c-0.21-0.34-0.53-0.67-0.88-1.02
		c-0.62-0.62-1.33-1.32-1.55-2.37c-0.11-0.52,0.23-1.03,0.75-1.15c0.53-0.11,1.03,0.23,1.15,0.75c0.1,0.48,0.53,0.91,1.02,1.4
		c0.4,0.4,0.85,0.84,1.18,1.4c0.52,0.86,0.66,1.85,0.77,2.65c0.08,0.53-0.29,1.02-0.82,1.1
		C325.18,222.36,325.13,222.36,325.09,222.36"/>
	<path class="st0" d="M289.34,273.71c0.41,0.05,1.32-0.09,2.04-0.32c0.48-0.15,0.88-0.55,1.35-1.01c0.44-0.44,0.95-0.93,1.6-1.27
		c0.92-0.47,1.95-0.54,2.78-0.6l2.59-0.17c0.62-0.04,1.22-0.08,1.75-0.23c0.45-0.13,0.88-0.34,1.35-0.56
		c0.4-0.19,0.79-0.38,1.2-0.53c1.61-0.59,3.28-0.57,4.89-0.55c0.63,0.01,1.25,0.01,1.88-0.01c0.47-0.02,0.94-0.07,1.41-0.12
		c0.98-0.1,1.78-0.21,2.43-0.58c0.13-0.08,0.25-0.16,0.38-0.25c0.22-0.15,0.44-0.3,0.68-0.42c0.7-0.36,1.44-0.46,2.02-0.5
		c0.51-0.04,1.27-0.08,2.02,0.03c0.18,0.03,0.4,0.09,0.62,0.16c0.11,0.04,0.29,0.1,0.35,0.1c0.1-0.02,0.51-0.51,0.77-1.6
		c0.36-1.54-0.04-3.24-0.42-4.9c-0.11-0.47-0.22-0.94-0.31-1.41c-0.63-3.16-0.55-6.41-0.47-9.56c0.09-3.9,0.18-7.58-0.96-11.08
		c-0.33-1.01-0.67-1.69-1.11-2.21c-1.53-1.79-4.48-1.85-7.09-1.89l-0.12,0c-3.39-0.06-6.79-0.4-10.12-1.02
		c-0.37-0.07-0.74-0.14-1.11-0.21c-2.3-0.45-4.48-0.87-6.63-0.54c-2.21,0.34-4.63,1.86-4.96,4.12c-0.05,0.33-0.06,0.69-0.07,1.07
		c-0.01,0.49-0.02,1-0.12,1.53c-0.18,0.92-0.59,1.71-0.99,2.46c-0.16,0.31-0.33,0.62-0.47,0.94c-0.86,1.91-1.01,4.3-0.46,7.13
		c0.3,1.53,0.76,3.06,1.22,4.55c0.3,0.98,0.6,1.97,0.86,2.96c0.69,2.65,1.13,5.49,1.33,8.7c0.09,1.34,0.13,2.74,0.14,4.29
		c0,0.24-0.04,0.67-0.09,1.17C289.41,271.94,289.28,273.17,289.34,273.71 M289.6,275.66c-0.73,0-1.42-0.17-1.83-0.69
		c-0.51-0.66-0.43-1.87-0.23-3.78c0.04-0.41,0.08-0.76,0.08-0.96c-0.01-1.51-0.05-2.88-0.13-4.17c-0.2-3.09-0.62-5.81-1.27-8.34
		c-0.25-0.97-0.54-1.93-0.84-2.88c-0.47-1.54-0.95-3.12-1.27-4.74c-0.63-3.22-0.43-6.01,0.6-8.29c0.16-0.35,0.34-0.7,0.52-1.04
		c0.35-0.67,0.68-1.29,0.8-1.93c0.07-0.37,0.08-0.78,0.09-1.21c0.01-0.42,0.02-0.86,0.09-1.32c0.5-3.33,3.77-5.31,6.58-5.74
		c2.48-0.38,4.92,0.09,7.28,0.55l1.1,0.21c3.23,0.59,6.52,0.93,9.8,0.98l0.13,0c2.86,0.05,6.42,0.11,8.52,2.57
		c0.79,0.92,1.2,2.02,1.48,2.86c1.24,3.82,1.15,7.84,1.05,11.73c-0.07,3.04-0.15,6.19,0.44,9.14c0.09,0.44,0.19,0.89,0.3,1.35
		c0.43,1.87,0.88,3.79,0.42,5.77c-0.43,1.85-1.31,2.94-2.48,3.09c-0.41,0.05-0.81-0.08-1.13-0.18c-0.11-0.04-0.21-0.07-0.29-0.08
		c-0.57-0.08-1.19-0.05-1.61-0.02c-0.57,0.04-0.97,0.13-1.27,0.29c-0.16,0.08-0.31,0.19-0.47,0.29c-0.16,0.11-0.33,0.22-0.5,0.32
		c-1.05,0.62-2.24,0.74-3.2,0.84c-0.5,0.05-1.01,0.1-1.51,0.13c-0.66,0.03-1.33,0.02-1.99,0.02c-1.5-0.02-2.92-0.04-4.2,0.43
		c-0.35,0.13-0.69,0.3-1.03,0.46c-0.52,0.25-1.06,0.51-1.67,0.68c-0.73,0.21-1.46,0.25-2.15,0.3l-2.59,0.17
		c-0.72,0.05-1.46,0.1-2.03,0.39c-0.39,0.2-0.74,0.55-1.12,0.92c-0.56,0.55-1.2,1.18-2.12,1.48
		C291.44,275.4,290.5,275.66,289.6,275.66"/>
	<path class="st0" d="M304.33,276.5c0.23,0.32,0.48,0.64,0.73,0.96c0.71,0.91,1.46,1.86,1.9,2.94c0.56,1.39,0.99,2.22,1.88,3.16
		c1.17,1.25,2.36,2.52,3.65,3.62c0.34,0.3,0.7,0.58,1.05,0.87c0.53,0.42,1.05,0.85,1.56,1.31c0.41,0.37,0.81,0.76,1.2,1.15
		c1.1,1.09,2.14,2.12,3.43,2.63c0.45,0.18,0.87,0.27,1.25,0.25l0.44-0.01c0.49,0,0.96-0.01,1.4-0.07c0.33-0.05,0.64-0.17,1-0.32
		c0.35-0.14,0.75-0.31,1.23-0.41c0.6-0.13,0.79-0.47,1.21-1.49l0.07-0.17c0.72-1.73,0.8-3.94,0.21-5.78
		c-0.15-0.45-0.5-0.89-0.84-1.31c-0.19-0.23-0.38-0.49-0.57-0.74c-0.36-0.49-0.74-0.99-1.13-1.35c-0.2-0.18-0.41-0.33-0.62-0.47
		c-0.42-0.3-0.9-0.65-1.31-1.18c-0.27-0.36-0.52-0.73-0.78-1.1c-0.48-0.71-0.94-1.37-1.49-1.94c-0.33-0.34-0.79-0.64-1.29-0.95
		c-0.67-0.43-1.44-0.92-1.99-1.63c-0.21-0.27-0.36-0.55-0.49-0.79c-0.12-0.23-0.23-0.42-0.36-0.57c-0.35-0.4-0.84-0.77-1.31-1.14
		c-0.19-0.15-0.39-0.3-0.57-0.45c-0.52-0.42-0.99-0.79-1.49-0.96c-0.5-0.16-1.07-0.16-1.78-0.13c-1.4,0.05-2.81,0.12-4.21,0.22
		c-1.32,0.09-2.63,0.29-3.23,1.1c-0.4,0.53-0.47,1.39-0.21,2.24C303.15,274.85,303.75,275.69,304.33,276.5 M320.92,295.33
		c-0.61,0-1.25-0.13-1.91-0.39c-1.66-0.65-2.89-1.88-4.08-3.06c-0.38-0.37-0.75-0.74-1.14-1.09c-0.47-0.43-0.97-0.83-1.47-1.23
		c-0.37-0.3-0.74-0.59-1.1-0.9c-1.37-1.17-2.6-2.48-3.79-3.76c-1.2-1.28-1.72-2.42-2.26-3.77c-0.34-0.84-0.99-1.67-1.63-2.48
		c-0.27-0.35-0.54-0.69-0.79-1.03c-0.64-0.89-1.36-1.89-1.73-3.08c-0.46-1.45-0.28-2.94,0.5-3.97c1.07-1.44,2.87-1.75,4.65-1.88
		c1.42-0.1,2.85-0.17,4.27-0.22c0.71-0.03,1.59-0.06,2.46,0.23c0.81,0.27,1.46,0.77,2.1,1.3c0.17,0.14,0.35,0.28,0.53,0.42
		c0.54,0.42,1.1,0.86,1.57,1.39c0.28,0.32,0.46,0.65,0.62,0.95c0.11,0.2,0.2,0.37,0.31,0.51c0.35,0.45,0.91,0.81,1.51,1.19
		c0.57,0.36,1.15,0.74,1.64,1.24c0.66,0.68,1.19,1.45,1.7,2.19c0.24,0.35,0.48,0.69,0.73,1.03c0.23,0.3,0.53,0.52,0.89,0.77
		c0.27,0.19,0.54,0.39,0.79,0.62c0.53,0.49,0.97,1.07,1.39,1.63c0.17,0.23,0.34,0.47,0.52,0.68c0.41,0.51,0.92,1.14,1.18,1.93
		c0.74,2.29,0.64,4.96-0.26,7.12l-0.07,0.16c-0.45,1.08-0.95,2.29-2.59,2.65c-0.31,0.07-0.59,0.18-0.9,0.31
		c-0.42,0.17-0.88,0.36-1.46,0.45c-0.56,0.08-1.11,0.08-1.65,0.09l-0.42,0.01C320.99,295.33,320.96,295.33,320.92,295.33"/>
	<path class="st0" d="M264.78,338.81c-0.46,0-0.88-0.11-1.27-0.33c-0.46-0.27-0.62-0.86-0.36-1.32c0.27-0.46,0.86-0.62,1.32-0.35
		c0.38,0.22,1.1-0.03,1.91-0.67l0.08-0.07c0.94-0.74,2.12-1.66,3.58-1.41c0.56,0.1,1.01,0.35,1.41,0.58
		c0.12,0.07,0.25,0.14,0.37,0.2c1.05,0.52,2.39,0.52,3.58,0.53l11.26,0.04c4.59,0.02,9.34,0.03,13.95-0.41
		c0.54-0.06,1,0.34,1.05,0.87c0.05,0.53-0.34,1.01-0.87,1.05c-4.71,0.45-9.51,0.43-14.14,0.42l-11.26-0.04
		c-1.33,0-2.99-0.01-4.43-0.73c-0.16-0.08-0.31-0.16-0.46-0.25c-0.29-0.16-0.56-0.32-0.79-0.35c-0.62-0.12-1.35,0.47-2.05,1.02
		l-0.09,0.07C266.6,338.41,265.64,338.81,264.78,338.81"/>
	<path class="st0" d="M269.39,329.78c0.22,0.34,0.39,0.71,0.52,1.12c0.08,0.27,0.14,0.54,0.18,0.81c0.45-0.76,0.81-1.58,1.05-2.43
		c-0.9-0.11-1.61,0.04-1.72,0.35C269.4,329.68,269.39,329.73,269.39,329.78 M266.61,330.05c-0.22,0-0.46,0.08-0.64,0.23
		c-0.09,0.07-0.24,0.22-0.24,0.4c-0.01,0.4,0.46,0.87,0.96,1.32l1.13,1.01l-0.3-2.4c0-0.04-0.01-0.07-0.01-0.11
		c-0.21-0.21-0.46-0.38-0.74-0.44C266.71,330.06,266.66,330.05,266.61,330.05 M268.31,336.91l-0.17-1.35
		c-0.53-0.13-0.92-0.48-1.15-0.68l-1.6-1.43c-0.57-0.51-1.62-1.45-1.6-2.79c0.01-0.71,0.36-1.4,0.96-1.88
		c0.67-0.54,1.56-0.77,2.38-0.61c0.26,0.05,0.52,0.14,0.76,0.25c0.64-0.9,1.93-1.28,3.65-1.04c0.27,0.04,1,0.14,1.39,0.78
		c0.18,0.29,0.23,0.59,0.22,0.86c1.2-1.84,2.2-3.84,3.17-5.79l12.18-24.44c1.35-2.71,2.74-5.5,3.59-8.42l0.17-0.59
		c0.14-0.52,0.29-1.03,0.47-1.54c0.24-0.67,0.54-1.29,0.82-1.9c0.28-0.58,0.54-1.13,0.74-1.69c0.63-1.74,0.76-3.68,0.89-5.55
		l0.48-7.12c0.04-0.53,0.5-0.94,1.03-0.9c0.53,0.04,0.94,0.5,0.9,1.03l-0.48,7.13c-0.13,1.91-0.28,4.08-1,6.08
		c-0.24,0.65-0.53,1.26-0.81,1.86c-0.28,0.59-0.55,1.15-0.75,1.73c-0.16,0.46-0.29,0.93-0.42,1.4l-0.17,0.61
		c-0.89,3.09-2.33,5.96-3.71,8.74l-12.19,24.44c-1.24,2.48-2.52,5.05-4.23,7.36c-1.2,1.61-2.6,3.08-4.16,4.36L268.31,336.91z"/>
	<path class="st0" d="M295.21,249.79l-0.97,0.09l0.95-0.01C295.2,249.83,295.21,249.79,295.21,249.79 M295.21,250.08
		c0.01,0.97,0.07,1.96,0.12,2.92c0.04,0.6,0.07,1.2,0.09,1.81c0.04,1.01,0.05,1.79,0.02,2.53l-0.01,0.18
		c-0.01,0.18-0.02,0.45,0.01,0.53c0.2,0.08,0.45,0.1,0.7,0.11c0.51,0.01,1.02,0,1.52-0.05c0.23-0.02,0.36-0.06,0.42-0.08
		c0-0.06,0-0.13,0-0.17l0.02-5.81c0-0.65-0.02-1.36-0.35-1.66c-0.11-0.09-0.28-0.18-0.52-0.25
		C296.6,249.93,295.88,249.91,295.21,250.08 M296.54,260.09c-0.15,0-0.29,0-0.44-0.01c-0.45-0.01-0.93-0.06-1.41-0.28
		c-1.25-0.57-1.2-1.75-1.18-2.37l0.01-0.16c0.02-0.69,0.01-1.42-0.02-2.39c-0.03-0.59-0.06-1.18-0.09-1.78
		c-0.06-1.05-0.12-2.14-0.13-3.22c0-0.21,0-0.65,0.3-1.04c0.24-0.32,0.56-0.45,0.82-0.54c1.1-0.36,2.31-0.37,3.42-0.04
		c0.53,0.16,0.93,0.37,1.26,0.67c1,0.9,1,2.33,0.99,3.11l-0.02,5.81c0,0.25,0,0.64-0.18,1.03c-0.32,0.66-0.98,1.05-1.99,1.14
		C297.43,260.07,296.98,260.09,296.54,260.09"/>
	<path class="st0" d="M312.5,256.9c1.08,0.42,2.22,0.56,3.32,0.41c0.15-0.47,0.07-1.03,0-1.36c-0.08-0.38-0.2-0.74-0.32-1.11
		c-0.13-0.42-0.28-0.85-0.38-1.32c-0.04-0.2-0.08-0.4-0.11-0.61c-0.04-0.23-0.08-0.45-0.13-0.67c-0.16-0.62-0.49-1.22-0.76-1.67
		c-0.03-0.05-0.11-0.18-0.14-0.21c-0.04-0.03-0.2-0.06-0.67-0.02c-0.71,0.06-1.44,0.11-1.96,0.41c-0.04,0.08,0,0.42,0.01,0.62
		c0.01,0.14,0.03,0.28,0.04,0.42C311.49,253.56,311.86,255.28,312.5,256.9 M314.94,259.3c-1.11,0-2.23-0.21-3.25-0.64
		c-0.14-0.06-0.42-0.18-0.66-0.44c-0.16-0.19-0.25-0.39-0.29-0.51c-0.74-1.85-1.17-3.8-1.27-5.8c-0.01-0.11-0.02-0.23-0.03-0.34
		c-0.06-0.69-0.18-1.85,0.96-2.49c0.9-0.51,1.93-0.59,2.76-0.66c0.48-0.04,1.37-0.11,2.06,0.47c0.26,0.21,0.42,0.47,0.56,0.69
		c0.34,0.56,0.76,1.32,0.98,2.19c0.07,0.27,0.12,0.55,0.16,0.83c0.03,0.17,0.06,0.35,0.09,0.52c0.08,0.37,0.2,0.74,0.33,1.12
		c0.13,0.42,0.27,0.84,0.37,1.3c0.27,1.25,0.12,2.35-0.45,3.18l-0.22,0.32l-0.38,0.08C316.1,259.24,315.52,259.3,314.94,259.3"/>
	<path class="st0" d="M298.89,254.82c-0.21,0-0.42-0.07-0.59-0.21c-0.11-0.08-0.69-0.22-1.75-0.12l-1.57,0.16
		c-0.55,0.06-1.01-0.33-1.06-0.86c-0.06-0.53,0.33-1.01,0.86-1.06l1.57-0.16c1.45-0.15,2.51,0.02,3.14,0.52
		c0.42,0.33,0.5,0.93,0.17,1.36C299.46,254.69,299.18,254.82,298.89,254.82"/>
	<path class="st0" d="M316.2,254.82c-0.21,0-0.43-0.07-0.61-0.22c-0.22-0.1-1.49-0.29-1.85-0.27l-2.75,0.1
		c-0.51,0.03-0.98-0.4-1-0.93c-0.02-0.53,0.4-0.98,0.93-1l2.76-0.1c0.18,0.01,2.4,0.11,3.14,0.71c0.41,0.34,0.47,0.95,0.14,1.36
		C316.75,254.7,316.48,254.82,316.2,254.82"/>
</g>
<g>
	<path class="st0" d="M456.81,255.33c-1.53,0-2.78,1.25-2.78,2.78v27.87c0,1.53,1.25,2.78,2.78,2.78h27.87
		c1.53,0,2.78-1.25,2.78-2.78v-27.87c0-1.54-1.25-2.78-2.78-2.78H456.81z M484.68,290.5h-27.87c-2.49,0-4.52-2.03-4.52-4.52v-27.87
		c0-2.49,2.03-4.52,4.52-4.52h27.87c2.49,0,4.52,2.03,4.52,4.52v27.87C489.21,288.47,487.18,290.5,484.68,290.5"/>
	<path class="st0" d="M485.81,361.77h-27.87c-2.49,0-4.52-2.03-4.52-4.52v-27.87c0-2.49,2.03-4.52,4.52-4.52v1.74
		c-1.54,0-2.78,1.25-2.78,2.78v27.87c0,1.53,1.25,2.78,2.78,2.78h27.87c1.53,0,2.78-1.25,2.78-2.78v-27.87
		c0-1.53-1.25-2.78-2.78-2.78v-1.74c2.49,0,4.52,2.03,4.52,4.52v27.87C490.33,359.74,488.3,361.77,485.81,361.77"/>
	<path class="st0" d="M430.69,344.18v-1.74c1.53,0,2.78-1.25,2.78-2.78v-27.87c0-1.53-1.25-2.78-2.78-2.78h-27.87
		c-1.53,0-2.78,1.25-2.78,2.78h-1.74c0-2.49,2.03-4.52,4.52-4.52h27.87c2.49,0,4.52,2.03,4.52,4.52v27.87
		C435.21,342.16,433.18,344.18,430.69,344.18"/>
	<path class="st0" d="M490.33,311.79h-1.74c0-1.53-1.25-2.78-2.78-2.78h-27.87c-1.53,0-2.78,1.25-2.78,2.78h-1.74
		c0-2.49,2.03-4.52,4.52-4.52h27.87C488.3,307.27,490.33,309.3,490.33,311.79"/>
	<path class="st0" d="M413.41,291.63h-27.87c-2.49,0-4.52-2.03-4.52-4.52v-27.87c0-2.49,2.03-4.52,4.52-4.52h27.87
		c2.49,0,4.52,2.03,4.52,4.52h-1.74c0-1.54-1.25-2.78-2.78-2.78h-27.87c-1.53,0-2.78,1.25-2.78,2.78v27.87
		c0,1.53,1.25,2.78,2.78,2.78h27.87c1.53,0,2.78-1.25,2.78-2.78h1.74C417.94,289.6,415.91,291.63,413.41,291.63"/>
	<path class="st0" d="M431,236.51h-27.87c-2.49,0-4.52-2.03-4.52-4.52h1.74c0,1.53,1.25,2.78,2.78,2.78H431
		c1.53,0,2.78-1.25,2.78-2.78v-27.87c0-1.53-1.25-2.78-2.78-2.78v-1.74c2.49,0,4.52,2.03,4.52,4.52v27.87
		C435.52,234.48,433.5,236.51,431,236.51"/>
	<path class="st0" d="M431,291.63v-1.74c1.53,0,2.78-1.25,2.78-2.78v-27.87c0-1.54-1.25-2.78-2.78-2.78v-1.74
		c2.49,0,4.52,2.03,4.52,4.52v27.87C435.52,289.6,433.5,291.63,431,291.63"/>
	<path class="st0" d="M483.56,219.23v-1.74c1.53,0,2.78-1.25,2.78-2.78v-27.87c0-1.53-1.25-2.78-2.78-2.78h-27.87
		c-1.53,0-2.78,1.25-2.78,2.78v27.87c0,1.53,1.25,2.78,2.78,2.78v1.74c-2.49,0-4.52-2.03-4.52-4.52v-27.87
		c0-2.49,2.03-4.52,4.52-4.52h27.87c2.49,0,4.52,2.03,4.52,4.52v27.87C488.08,217.21,486.05,219.23,483.56,219.23"/>
	<path class="st0" d="M538.68,236.82h-27.87c-2.49,0-4.52-2.03-4.52-4.52v-27.87c0-2.49,2.03-4.52,4.52-4.52v1.74
		c-1.54,0-2.78,1.25-2.78,2.78v27.87c0,1.53,1.25,2.78,2.78,2.78h27.87c1.53,0,2.78-1.25,2.78-2.78h1.74
		C543.2,234.79,541.17,236.82,538.68,236.82"/>
	<path class="st0" d="M483.56,236.82h-27.87c-2.49,0-4.52-2.03-4.52-4.52h1.74c0,1.53,1.25,2.78,2.78,2.78h27.87
		c1.53,0,2.78-1.25,2.78-2.78h1.74C488.08,234.79,486.05,236.82,483.56,236.82"/>
	<path class="st0" d="M555.95,289.38h-27.87c-2.49,0-4.52-2.03-4.52-4.52h1.74c0,1.53,1.25,2.78,2.78,2.78h27.87
		c1.53,0,2.78-1.25,2.78-2.78v-27.87c0-1.54-1.25-2.78-2.78-2.78h-27.87c-1.53,0-2.78,1.25-2.78,2.78h-1.74
		c0-2.49,2.03-4.52,4.52-4.52h27.87c2.49,0,4.52,2.03,4.52,4.52v27.87C560.47,287.35,558.45,289.38,555.95,289.38"/>
	<path class="st0" d="M510.49,344.5c-2.49,0-4.52-2.03-4.52-4.52V312.1c0-2.49,2.03-4.52,4.52-4.52h27.87
		c2.49,0,4.52,2.03,4.52,4.52h-1.74c0-1.53-1.25-2.78-2.78-2.78h-27.87c-1.53,0-2.78,1.25-2.78,2.78v27.87
		c0,1.53,1.25,2.78,2.78,2.78V344.5z"/>
	<path class="st0" d="M510.49,289.38c-2.49,0-4.52-2.03-4.52-4.52v-27.87c0-2.49,2.03-4.52,4.52-4.52v1.74
		c-1.53,0-2.78,1.25-2.78,2.78v27.87c0,1.53,1.25,2.78,2.78,2.78V289.38z"/>
</g>
</svg>
