<?xml version="1.0" encoding="utf-8"?>
<!-- Generator: Adobe Illustrator 25.2.3, SVG Export Plug-In . SVG Version: 6.00 Build 0)  -->
<svg version="1.1" id="Layer_1" xmlns="http://www.w3.org/2000/svg" xmlns:xlink="http://www.w3.org/1999/xlink" x="0px" y="0px"
	 width="1093px" height="744px" viewBox="0 0 1093 744" style="enable-background:new 0 0 1093 744;" xml:space="preserve">
<style type="text/css">
	.st0{fill:none;stroke:#FFFFFF;stroke-width:1.1869;stroke-miterlimit:10;}
</style>
<g>
	<line class="st0" x1="1067.21" y1="374.62" x2="326.46" y2="369.91"/>
	<line class="st0" x1="1067.24" y1="369.71" x2="1067.18" y2="379.52"/>
	<line class="st0" x1="587.81" y1="21.92" x2="595.59" y2="27.9"/>
	<line class="st0" x1="585.63" y1="24.75" x2="593.41" y2="30.73"/>
	<line class="st0" x1="583.46" y1="27.58" x2="591.24" y2="33.56"/>
	<line class="st0" x1="581.28" y1="30.41" x2="589.06" y2="36.39"/>
	<line class="st0" x1="539.4" y1="84.89" x2="547.17" y2="90.87"/>
	<line class="st0" x1="537.22" y1="87.72" x2="545" y2="93.7"/>
	<line class="st0" x1="535.05" y1="90.55" x2="542.82" y2="96.53"/>
	<line class="st0" x1="532.87" y1="93.38" x2="540.65" y2="99.36"/>
	<line class="st0" x1="530.69" y1="96.21" x2="538.47" y2="102.19"/>
	<line class="st0" x1="514.77" y1="116.92" x2="522.55" y2="122.9"/>
	<line class="st0" x1="512.6" y1="119.75" x2="520.37" y2="125.73"/>
	<line class="st0" x1="510.42" y1="122.58" x2="518.2" y2="128.56"/>
	<line class="st0" x1="508.24" y1="125.4" x2="516.02" y2="131.39"/>
	<line class="st0" x1="524.77" y1="103.91" x2="532.55" y2="109.89"/>
	<line class="st0" x1="499.1" y1="137.3" x2="506.88" y2="143.28"/>
	<line class="st0" x1="559.2" y1="59.13" x2="566.98" y2="65.11"/>
	<line class="st0" x1="565.93" y1="50.37" x2="573.71" y2="56.35"/>
	<line class="st0" x1="557.02" y1="61.96" x2="564.8" y2="67.94"/>
	<line class="st0" x1="554.85" y1="64.79" x2="562.62" y2="70.77"/>
	<line class="st0" x1="340.66" y1="351.42" x2="596.52" y2="18.64"/>
	<line class="st0" x1="326.29" y1="370.1" x2="336.86" y2="356.36"/>
	<line class="st0" x1="431.04" y1="260.35" x2="425.28" y2="255.13"/>
	<line class="st0" x1="428.84" y1="262.78" x2="423.09" y2="257.56"/>
	<line class="st0" x1="426.64" y1="265.2" x2="420.89" y2="259.98"/>
	<line class="st0" x1="400" y1="294.59" x2="394.24" y2="289.37"/>
	<line class="st0" x1="397.8" y1="297.02" x2="392.04" y2="291.8"/>
	<line class="st0" x1="395.6" y1="299.44" x2="389.85" y2="294.22"/>
	<line class="st0" x1="388.47" y1="307.31" x2="382.71" y2="302.09"/>
	<line class="st0" x1="372.02" y1="325.45" x2="366.26" y2="320.23"/>
	<line class="st0" x1="381.22" y1="315.31" x2="375.46" y2="310.09"/>
	<line class="st0" x1="379.02" y1="317.74" x2="373.26" y2="312.52"/>
	<line class="st0" x1="359.78" y1="338.96" x2="354.02" y2="333.74"/>
	<line class="st0" x1="357.58" y1="341.38" x2="351.82" y2="336.16"/>
	<line class="st0" x1="346.34" y1="353.77" x2="340.58" y2="348.56"/>
	<line class="st0" x1="419.36" y1="273.23" x2="413.61" y2="268.01"/>
	<line class="st0" x1="407.33" y1="286.51" x2="401.57" y2="281.29"/>
	<line class="st0" x1="314.17" y1="497.52" x2="301.65" y2="627.38"/>
	<line class="st0" x1="323.97" y1="395.81" x2="314.67" y2="492.33"/>
	<line class="st0" x1="326.46" y1="369.91" x2="324.5" y2="390.32"/>
	<line class="st0" x1="305.2" y1="627.72" x2="298.1" y2="627.04"/>
	<line class="st0" x1="319.03" y1="484.19" x2="311.93" y2="483.5"/>
	<line class="st0" x1="305.53" y1="624.28" x2="298.43" y2="623.6"/>
	<line class="st0" x1="305.86" y1="620.84" x2="298.77" y2="620.16"/>
	<line class="st0" x1="309.69" y1="581.17" x2="302.59" y2="580.48"/>
	<line class="st0" x1="307.61" y1="602.7" x2="300.51" y2="602.02"/>
	<line class="st0" x1="308.65" y1="591.93" x2="301.55" y2="591.25"/>
	<g>
		<line class="st0" x1="311.35" y1="563.9" x2="304.25" y2="563.21"/>
		<line class="st0" x1="311.68" y1="560.46" x2="304.58" y2="559.77"/>
	</g>
	<g>
		<line class="st0" x1="312.68" y1="550.14" x2="305.58" y2="549.46"/>
		<line class="st0" x1="313.01" y1="546.7" x2="305.91" y2="546.02"/>
	</g>
	<g>
		<line class="st0" x1="314" y1="536.39" x2="306.9" y2="535.71"/>
		<line class="st0" x1="314.33" y1="532.95" x2="307.24" y2="532.27"/>
	</g>
	<g>
		<line class="st0" x1="316.68" y1="508.57" x2="309.58" y2="507.89"/>
		<line class="st0" x1="317.01" y1="505.14" x2="309.92" y2="504.45"/>
	</g>
	<g>
		<line class="st0" x1="317.35" y1="501.7" x2="310.25" y2="501.01"/>
		<line class="st0" x1="317.68" y1="498.26" x2="310.58" y2="497.57"/>
	</g>
	<line class="st0" x1="326.46" y1="369.91" x2="220.07" y2="493.1"/>
	<line class="st0" x1="338.72" y1="356.4" x2="326.29" y2="370.1"/>
	<line class="st0" x1="444.88" y1="239.3" x2="343.22" y2="351.43"/>
	<line class="st0" x1="389.05" y1="354.57" x2="549" y2="315.36"/>
	<path class="st0" d="M389.05,354.57"/>
	<line class="st0" x1="346.88" y1="364.91" x2="383.94" y2="355.82"/>
	<line class="st0" x1="326.46" y1="369.91" x2="343.46" y2="365.74"/>
	<line class="st0" x1="532.13" y1="315.5" x2="533.98" y2="323.04"/>
	<line class="st0" x1="529.3" y1="316.19" x2="531.14" y2="323.73"/>
	<line class="st0" x1="465.84" y1="331.75" x2="467.69" y2="339.29"/>
	<line class="st0" x1="475.98" y1="329.26" x2="477.83" y2="336.8"/>
	<line class="st0" x1="429.02" y1="340.77" x2="430.87" y2="348.31"/>
	<line class="st0" x1="438.58" y1="338.43" x2="440.43" y2="345.97"/>
	<line class="st0" x1="455.7" y1="334.23" x2="457.55" y2="341.77"/>
	<line class="st0" x1="426.19" y1="341.47" x2="428.04" y2="349.01"/>
	<line class="st0" x1="388.49" y1="350.71" x2="390.33" y2="358.25"/>
	<line class="st0" x1="353.99" y1="359.17" x2="355.84" y2="366.71"/>
	<line class="st0" x1="507.79" y1="321.47" x2="509.64" y2="329"/>
	<line class="st0" x1="504.95" y1="322.16" x2="506.8" y2="329.7"/>
	<line class="st0" x1="502.12" y1="322.86" x2="503.97" y2="330.39"/>
	<line class="st0" x1="517.96" y1="318.97" x2="519.8" y2="326.51"/>
	<line class="st0" x1="552" y1="436.81" x2="696.31" y2="479.61"/>
	<line class="st0" x1="346.93" y1="375.98" x2="544.48" y2="434.58"/>
	<line class="st0" x1="325.76" y1="369.7" x2="343.92" y2="375.09"/>
	<line class="st0" x1="678.68" y1="470.27" x2="676.44" y2="477.82"/>
	<line class="st0" x1="668.65" y1="467.3" x2="666.41" y2="474.85"/>
	<line class="st0" x1="665.76" y1="466.44" x2="663.52" y2="473.99"/>
	<line class="st0" x1="654.27" y1="463.03" x2="652.04" y2="470.58"/>
	<line class="st0" x1="651.38" y1="462.18" x2="649.14" y2="469.73"/>
	<line class="st0" x1="662.87" y1="465.58" x2="660.63" y2="473.13"/>
	<line class="st0" x1="613.96" y1="451.08" x2="611.72" y2="458.63"/>
	<line class="st0" x1="611.07" y1="450.22" x2="608.83" y2="457.77"/>
	<line class="st0" x1="608.18" y1="449.36" x2="605.94" y2="456.91"/>
	<line class="st0" x1="605.29" y1="448.51" x2="603.05" y2="456.05"/>
	<line class="st0" x1="602.4" y1="447.65" x2="600.16" y2="455.2"/>
	<line class="st0" x1="579.78" y1="440.94" x2="577.55" y2="448.49"/>
	<line class="st0" x1="576.89" y1="440.08" x2="574.66" y2="447.63"/>
	<line class="st0" x1="553.43" y1="433.12" x2="551.19" y2="440.67"/>
	<line class="st0" x1="519.86" y1="423.17" x2="517.62" y2="430.72"/>
	<line class="st0" x1="630.02" y1="455.84" x2="627.78" y2="463.39"/>
	<line class="st0" x1="688.63" y1="473.23" x2="686.39" y2="480.77"/>
	<line class="st0" x1="374.38" y1="421.77" x2="433.41" y2="485.66"/>
	<line class="st0" x1="341.87" y1="386.59" x2="373" y2="420.28"/>
	<line class="st0" x1="326.46" y1="369.91" x2="337.24" y2="381.57"/>
	<line class="st0" x1="430.5" y1="488.34" x2="436.31" y2="482.98"/>
	<line class="st0" x1="428.31" y1="485.97" x2="434.12" y2="480.61"/>
	<line class="st0" x1="426.12" y1="483.6" x2="431.93" y2="478.24"/>
	<line class="st0" x1="423.93" y1="481.23" x2="429.74" y2="475.87"/>
	<line class="st0" x1="417.17" y1="473.9" x2="422.97" y2="468.54"/>
	<line class="st0" x1="414.98" y1="471.53" x2="420.78" y2="466.17"/>
	<line class="st0" x1="408.21" y1="464.21" x2="414.01" y2="458.85"/>
	<line class="st0" x1="406.02" y1="461.84" x2="411.82" y2="456.48"/>
	<line class="st0" x1="403.83" y1="459.47" x2="409.63" y2="454.11"/>
	<line class="st0" x1="397.23" y1="452.33" x2="403.04" y2="446.97"/>
	<line class="st0" x1="389.66" y1="444.14" x2="395.46" y2="438.77"/>
	<line class="st0" x1="373.87" y1="427.05" x2="379.68" y2="421.69"/>
	<line class="st0" x1="371.68" y1="424.68" x2="377.49" y2="419.32"/>
	<line class="st0" x1="348.46" y1="399.55" x2="354.27" y2="394.18"/>
	<line class="st0" x1="360.07" y1="412.11" x2="365.88" y2="406.75"/>
	<line class="st0" x1="339.24" y1="389.56" x2="345.04" y2="384.2"/>
	<line class="st0" x1="346.27" y1="397.18" x2="352.08" y2="391.81"/>
	<line class="st0" x1="337.16" y1="386.88" x2="326.46" y2="369.91"/>
	<path class="st0" d="M337.16,386.88"/>
	<line class="st0" x1="549.27" y1="723.27" x2="340.29" y2="391.83"/>
	<line class="st0" x1="548.59" y1="714.68" x2="541.81" y2="718.95"/>
	<line class="st0" x1="450.94" y1="574.97" x2="444.16" y2="579.24"/>
	<line class="st0" x1="470.03" y1="605.24" x2="463.25" y2="609.51"/>
	<line class="st0" x1="471.79" y1="608.04" x2="465.02" y2="612.32"/>
	<line class="st0" x1="478.07" y1="617.99" x2="471.29" y2="622.27"/>
	<line class="st0" x1="479.84" y1="620.8" x2="473.06" y2="625.07"/>
	<line class="st0" x1="496.58" y1="647.35" x2="489.8" y2="651.62"/>
	<line class="st0" x1="490.68" y1="637.99" x2="483.9" y2="642.27"/>
	<line class="st0" x1="498.35" y1="650.15" x2="491.57" y2="654.43"/>
	<line class="st0" x1="519" y1="682.91" x2="512.23" y2="687.19"/>
	<line class="st0" x1="511.06" y1="670.31" x2="504.28" y2="674.59"/>
	<line class="st0" x1="520.77" y1="685.72" x2="513.99" y2="689.99"/>
	<line class="st0" x1="522.54" y1="688.53" x2="515.76" y2="692.8"/>
	<line class="st0" x1="524.31" y1="691.33" x2="517.53" y2="695.6"/>
	<line class="st0" x1="482.39" y1="632.36" x2="532.15" y2="711.28"/>
	<line class="st0" x1="474.54" y1="619.9" x2="481.77" y2="631.38"/>
	<line class="st0" x1="447.55" y1="577.11" x2="472.22" y2="616.24"/>
	<line class="st0" x1="223.45" y1="495.42" x2="217.29" y2="490.1"/>
	<line class="st0" x1="225.95" y1="492.52" x2="219.8" y2="487.2"/>
	<line class="st0" x1="265.33" y1="446.92" x2="259.17" y2="441.61"/>
	<line class="st0" x1="267.83" y1="444.02" x2="261.68" y2="438.71"/>
	<line class="st0" x1="274.48" y1="436.33" x2="268.32" y2="431.01"/>
	<line class="st0" x1="253.68" y1="460.41" x2="247.52" y2="455.1"/>
	<line class="st0" x1="246.4" y1="468.83" x2="240.25" y2="463.52"/>
	<line class="st0" x1="276.98" y1="433.43" x2="270.83" y2="428.11"/>
	<line class="st0" x1="288.48" y1="420.11" x2="282.33" y2="414.79"/>
	<line class="st0" x1="290.99" y1="417.21" x2="284.83" y2="411.89"/>
	<line class="st0" x1="297.39" y1="409.8" x2="291.24" y2="404.48"/>
	<line class="st0" x1="299.9" y1="406.9" x2="293.74" y2="401.58"/>
	<line class="st0" x1="306.34" y1="399.43" x2="300.19" y2="394.12"/>
	<line class="st0" x1="313.89" y1="390.69" x2="307.74" y2="385.37"/>
	<line class="st0" x1="321.45" y1="381.94" x2="315.29" y2="376.63"/>
	<line class="st0" x1="290.01" y1="381.56" x2="152.74" y2="425.42"/>
	<line class="st0" x1="300.25" y1="378.29" x2="294.31" y2="380.18"/>
	<line class="st0" x1="326.46" y1="369.91" x2="306" y2="376.45"/>
	<line class="st0" x1="153.83" y1="428.82" x2="151.65" y2="422.01"/>
	<line class="st0" x1="157.66" y1="427.6" x2="155.49" y2="420.79"/>
	<line class="st0" x1="191.91" y1="416.65" x2="189.74" y2="409.85"/>
	<line class="st0" x1="195.75" y1="415.43" x2="193.57" y2="408.62"/>
	<line class="st0" x1="199.58" y1="414.2" x2="197.4" y2="407.4"/>
	<line class="st0" x1="203.41" y1="412.98" x2="201.24" y2="406.17"/>
	<line class="st0" x1="253.76" y1="396.89" x2="251.58" y2="390.08"/>
	<line class="st0" x1="257.59" y1="395.67" x2="255.42" y2="388.86"/>
	<line class="st0" x1="240.69" y1="401.07" x2="238.51" y2="394.26"/>
	<line class="st0" x1="231.11" y1="404.13" x2="228.93" y2="397.32"/>
	<line class="st0" x1="221.3" y1="407.26" x2="219.12" y2="400.46"/>
	<line class="st0" x1="211.49" y1="410.4" x2="209.31" y2="403.59"/>
	<line class="st0" x1="244.52" y1="399.84" x2="242.35" y2="393.04"/>
	<line class="st0" x1="261.43" y1="394.44" x2="259.25" y2="387.64"/>
	<line class="st0" x1="277.06" y1="389.45" x2="274.88" y2="382.64"/>
	<line class="st0" x1="280.89" y1="388.23" x2="278.71" y2="381.42"/>
	<line class="st0" x1="290.7" y1="385.09" x2="288.53" y2="378.28"/>
	<line class="st0" x1="168.48" y1="424.14" x2="166.3" y2="417.33"/>
	<line class="st0" x1="437.1" y1="358.88" x2="28.11" y2="399.67"/>
	<line class="st0" x1="38.29" y1="401.47" x2="37.55" y2="393.98"/>
	<line class="st0" x1="38.39" y1="402.43" x2="37.64" y2="394.93"/>
	<line class="st0" x1="75.98" y1="398.68" x2="75.23" y2="391.19"/>
	<line class="st0" x1="97.96" y1="396.49" x2="97.21" y2="388.99"/>
	<line class="st0" x1="135.14" y1="392.78" x2="134.39" y2="385.29"/>
	<line class="st0" x1="141.9" y1="392.1" x2="141.15" y2="384.61"/>
	<line class="st0" x1="138.52" y1="392.44" x2="137.77" y2="384.95"/>
	<line class="st0" x1="162.45" y1="390.05" x2="161.7" y2="382.56"/>
	<line class="st0" x1="172.29" y1="389.07" x2="171.54" y2="381.58"/>
	<line class="st0" x1="191.07" y1="387.2" x2="190.32" y2="379.71"/>
	<line class="st0" x1="159.07" y1="390.39" x2="158.32" y2="382.9"/>
	<line class="st0" x1="86.97" y1="397.58" x2="86.22" y2="390.09"/>
	<line class="st0" x1="326.46" y1="369.91" x2="229.07" y2="375.27"/>
	<line class="st0" x1="241.09" y1="371.15" x2="241.42" y2="378.05"/>
	<line class="st0" x1="277.71" y1="336.52" x2="163.38" y2="258.23"/>
	<path class="st0" d="M277.71,336.52"/>
	<line class="st0" x1="305.53" y1="355.58" x2="282.9" y2="340.08"/>
	<path class="st0" d="M305.53,355.58"/>
	<line class="st0" x1="370.49" y1="400.06" x2="309.58" y2="358.35"/>
	<line class="st0" x1="168.01" y1="265.95" x2="172.25" y2="259.75"/>
	<line class="st0" x1="170.55" y1="267.68" x2="174.79" y2="261.49"/>
	<line class="st0" x1="205.46" y1="291.59" x2="209.7" y2="285.4"/>
	<line class="st0" x1="208" y1="293.33" x2="212.24" y2="287.14"/>
	<line class="st0" x1="208" y1="293.33" x2="212.24" y2="287.14"/>
	<line class="st0" x1="210.54" y1="295.07" x2="214.78" y2="288.88"/>
	<line class="st0" x1="213.07" y1="296.81" x2="217.31" y2="290.61"/>
	<line class="st0" x1="215.61" y1="298.54" x2="219.85" y2="292.35"/>
	<line class="st0" x1="235.73" y1="312.32" x2="239.97" y2="306.13"/>
	<line class="st0" x1="238.26" y1="314.06" x2="242.5" y2="307.87"/>
	<line class="st0" x1="240.8" y1="315.79" x2="245.04" y2="309.6"/>
	<line class="st0" x1="243.34" y1="317.53" x2="247.58" y2="311.34"/>
	<line class="st0" x1="245.87" y1="319.27" x2="250.11" y2="313.08"/>
	<line class="st0" x1="248.41" y1="321.01" x2="252.65" y2="314.81"/>
	<line class="st0" x1="267.66" y1="334.19" x2="271.9" y2="327.99"/>
	<line class="st0" x1="270.19" y1="335.92" x2="274.43" y2="329.73"/>
	<line class="st0" x1="272.73" y1="337.66" x2="276.97" y2="331.47"/>
	<line class="st0" x1="275.27" y1="339.4" x2="279.51" y2="333.21"/>
	<line class="st0" x1="282.61" y1="344.43" x2="286.85" y2="338.24"/>
	<line class="st0" x1="178.68" y1="273.25" x2="182.92" y2="267.06"/>
	<line class="st0" x1="293.7" y1="132.81" x2="292.69" y2="125.47"/>
	<path class="st0" d="M293.7,132.81"/>
	<line class="st0" x1="294.82" y1="140.86" x2="293.82" y2="133.68"/>
	<path class="st0" d="M294.82,140.86"/>
	<line class="st0" x1="295.92" y1="148.89" x2="294.96" y2="141.89"/>
	<path class="st0" d="M295.92,148.89"/>
	<line class="st0" x1="303.34" y1="202.58" x2="296.21" y2="150.92"/>
	<path class="st0" d="M303.34,202.58"/>
	<line class="st0" x1="314.38" y1="282.44" x2="303.45" y2="203.35"/>
	<path class="st0" d="M314.38,282.44"/>
	<line class="st0" x1="323.41" y1="347.81" x2="315.25" y2="288.76"/>
	<path class="st0" d="M323.41,347.81"/>
	<line class="st0" x1="326.46" y1="369.91" x2="323.87" y2="351.13"/>
	<line class="st0" x1="288.87" y1="126.45" x2="296.63" y2="125.38"/>
	<line class="st0" x1="292.37" y1="151.78" x2="300.13" y2="150.7"/>
	<line class="st0" x1="292.81" y1="154.96" x2="300.57" y2="153.89"/>
	<line class="st0" x1="302.21" y1="223.05" x2="309.98" y2="221.97"/>
	<line class="st0" x1="302.65" y1="226.23" x2="310.42" y2="225.16"/>
	<line class="st0" x1="304.16" y1="237.16" x2="311.93" y2="236.09"/>
	<line class="st0" x1="298.32" y1="194.9" x2="306.09" y2="193.83"/>
	<line class="st0" x1="300.8" y1="212.81" x2="308.57" y2="211.74"/>
	<line class="st0" x1="306.61" y1="254.87" x2="314.38" y2="253.79"/>
	<line class="st0" x1="307.05" y1="258.05" x2="314.82" y2="256.98"/>
	<line class="st0" x1="308.47" y1="268.33" x2="316.24" y2="267.26"/>
	<line class="st0" x1="308.91" y1="271.52" x2="316.68" y2="270.44"/>
	<line class="st0" x1="310.45" y1="282.69" x2="318.22" y2="281.62"/>
	<line class="st0" x1="312.87" y1="300.15" x2="320.63" y2="299.07"/>
	<line class="st0" x1="294.09" y1="164.26" x2="301.86" y2="163.19"/>
	<line class="st0" x1="379.48" y1="231.46" x2="389.91" y2="204.23"/>
	<line class="st0" x1="337.31" y1="341.58" x2="379.04" y2="232.61"/>
	<line class="st0" x1="333.64" y1="351.17" x2="336.36" y2="344.06"/>
	<path class="st0" d="M333.64,351.17"/>
	<line class="st0" x1="326.46" y1="369.91" x2="332.5" y2="354.15"/>
	<line class="st0" x1="386.21" y1="202.81" x2="393.6" y2="205.64"/>
	<line class="st0" x1="382.6" y1="212.25" x2="389.99" y2="215.08"/>
	<line class="st0" x1="381.32" y1="215.59" x2="388.71" y2="218.42"/>
	<line class="st0" x1="367.45" y1="251.8" x2="374.84" y2="254.63"/>
	<line class="st0" x1="366.17" y1="255.14" x2="373.56" y2="257.97"/>
	<line class="st0" x1="348.51" y1="301.28" x2="355.9" y2="304.11"/>
	<line class="st0" x1="347.22" y1="304.62" x2="354.62" y2="307.45"/>
	<line class="st0" x1="360.04" y1="271.16" x2="367.43" y2="273.99"/>
	<line class="st0" x1="358.76" y1="274.51" x2="366.15" y2="277.34"/>
	<line class="st0" x1="357.47" y1="277.86" x2="364.87" y2="280.69"/>
	<line class="st0" x1="351.07" y1="294.58" x2="358.46" y2="297.41"/>
	<line class="st0" x1="349.79" y1="297.93" x2="357.18" y2="300.76"/>
	<line class="st0" x1="338.64" y1="327.05" x2="346.03" y2="329.88"/>
	<line class="st0" x1="337.36" y1="330.39" x2="344.75" y2="333.22"/>
	<line class="st0" x1="333.76" y1="339.78" x2="341.16" y2="342.61"/>
	<line class="st0" x1="330.71" y1="347.74" x2="338.11" y2="350.57"/>
	<line class="st0" x1="341.2" y1="320.35" x2="348.59" y2="323.18"/>
	<line class="st0" x1="339.92" y1="323.7" x2="347.31" y2="326.53"/>
</g>
</svg>
