<?xml version="1.0" encoding="utf-8"?>
<!-- Generator: Adobe Illustrator 25.2.3, SVG Export Plug-In . SVG Version: 6.00 Build 0)  -->
<svg version="1.1" id="Layer_1" xmlns="http://www.w3.org/2000/svg" xmlns:xlink="http://www.w3.org/1999/xlink" x="0px" y="0px"
	 width="269px" height="493px" viewBox="0 0 269 493" style="enable-background:new 0 0 269 493;" xml:space="preserve">
<style type="text/css">
	.st0{fill:none;stroke:#FFFFFF;stroke-width:1.1869;stroke-miterlimit:10;}
</style>
<g>
	<rect x="16.62" y="295.46" class="st0" width="232.97" height="176.79"/>
	<rect x="16.62" y="92.49" class="st0" width="232.97" height="176.79"/>
	<circle class="st0" cx="133.11" cy="383.85" r="55.8"/>
	<polyline class="st0" points="16.62,269.28 24.6,92.49 28.25,269.28 32.81,92.49 36.76,269.28 39.81,92.49 45.58,269.28 
		47.41,92.49 54.4,269.28 57.14,92.49 63.23,269.28 65.35,92.49 70.53,269.28 71.74,92.49 78.43,269.28 	"/>
	<polyline class="st0" points="249.6,269.28 243.89,92.49 238.12,269.28 	"/>
	<line class="st0" x1="14.8" y1="81.99" x2="26" y2="81.99"/>
	<line class="st0" x1="28.88" y1="81.99" x2="40.08" y2="81.99"/>
	<line class="st0" x1="41.93" y1="81.99" x2="53.13" y2="81.99"/>
	<line class="st0" x1="239.51" y1="84.35" x2="250.71" y2="84.35"/>
	<line class="st0" x1="39.19" y1="73.23" x2="50.39" y2="73.23"/>
	<line class="st0" x1="33.07" y1="78.83" x2="33.07" y2="67.63"/>
	<line class="st0" x1="243.86" y1="82.41" x2="243.86" y2="71.21"/>
	<line class="st0" x1="243.86" y1="69.88" x2="243.86" y2="58.68"/>
	<line class="st0" x1="243.86" y1="57.4" x2="243.86" y2="46.2"/>
	<line class="st0" x1="243.86" y1="44.36" x2="243.86" y2="33.16"/>
	<line class="st0" x1="243.86" y1="31.32" x2="243.86" y2="20.12"/>
	<line class="st0" x1="253.27" y1="69.88" x2="253.27" y2="58.68"/>
	<line class="st0" x1="253.27" y1="57.4" x2="253.27" y2="46.2"/>
	<line class="st0" x1="253.27" y1="44.36" x2="253.27" y2="33.16"/>
	<line class="st0" x1="253.27" y1="31.32" x2="253.27" y2="20.12"/>
</g>
</svg>
