<?xml version="1.0" encoding="utf-8"?>
<!-- Generator: Adobe Illustrator 25.2.3, SVG Export Plug-In . SVG Version: 6.00 Build 0)  -->
<svg version="1.1" id="Layer_1" xmlns="http://www.w3.org/2000/svg" xmlns:xlink="http://www.w3.org/1999/xlink" x="0px" y="0px"
	 width="2000px" height="968.03px" viewBox="0 0 2000 968.03" style="enable-background:new 0 0 2000 968.03;" xml:space="preserve"
	>
<style type="text/css">
	.st0{fill:none;stroke:#FFFFFF;stroke-width:1.3551;stroke-miterlimit:10;}
</style>
<circle class="st0" cx="50.87" cy="488.58" r="8.51"/>
<circle class="st0" cx="360.27" cy="407.15" r="8.51"/>
<circle class="st0" cx="265.85" cy="294.25" r="8.51"/>
<circle class="st0" cx="480.63" cy="339.89" r="8.51"/>
<circle class="st0" cx="487.93" cy="329.15" r="8.51"/>
<circle class="st0" cx="496.44" cy="265.4" r="8.51"/>
<circle class="st0" cx="588.23" cy="324.21" r="8.51"/>
<circle class="st0" cx="617.66" cy="404.06" r="8.51"/>
<circle class="st0" cx="599.27" cy="610.64" r="8.51"/>
<circle class="st0" cx="823.89" cy="654.13" r="8.51"/>
<circle class="st0" cx="667.77" cy="938.67" r="8.51"/>
<circle class="st0" cx="575.59" cy="936.46" r="8.51"/>
<circle class="st0" cx="747.24" cy="407.05" r="8.51"/>
<circle class="st0" cx="759.09" cy="413.15" r="8.51"/>
<circle class="st0" cx="770.39" cy="410.12" r="8.51"/>
<circle class="st0" cx="785.09" cy="410.12" r="8.51"/>
<circle class="st0" cx="818.29" cy="415.56" r="8.51"/>
<circle class="st0" cx="822.54" cy="396.12" r="8.51"/>
<circle class="st0" cx="820.79" cy="352.28" r="8.51"/>
<circle class="st0" cx="765.17" cy="318.47" r="8.51"/>
<circle class="st0" cx="749.43" cy="335.5" r="8.51"/>
<circle class="st0" cx="671.36" cy="140.01" r="8.51"/>
<circle class="st0" cx="677.69" cy="29.37" r="8.51"/>
<circle class="st0" cx="898.28" cy="198.47" r="8.51"/>
<circle class="st0" cx="900.38" cy="217.43" r="8.51"/>
<circle class="st0" cx="993.83" cy="446.51" r="8.51"/>
<circle class="st0" cx="1000.75" cy="446.51" r="8.51"/>
<circle class="st0" cx="882.91" cy="470.76" r="8.51"/>
<circle class="st0" cx="888.64" cy="410.12" r="8.51"/>
<circle class="st0" cx="888.64" cy="385.23" r="8.51"/>
<circle class="st0" cx="1037.75" cy="326.89" r="8.51"/>
<circle class="st0" cx="1050.11" cy="385.23" r="8.51"/>
<circle class="st0" cx="1048.33" cy="378.85" r="8.51"/>
<circle class="st0" cx="1058.62" cy="370.34" r="8.51"/>
<circle class="st0" cx="1079.91" cy="404.71" r="8.51"/>
<circle class="st0" cx="1067.14" cy="440.94" r="8.51"/>
<circle class="st0" cx="1238.19" cy="397.84" r="8.51"/>
<circle class="st0" cx="1264.11" cy="389.32" r="8.51"/>
<circle class="st0" cx="1266.1" cy="364.3" r="8.51"/>
<circle class="st0" cx="1301.62" cy="305.29" r="8.51"/>
<circle class="st0" cx="1100.2" cy="255.71" r="8.51"/>
<circle class="st0" cx="1096.94" cy="257.93" r="8.51"/>
<circle class="st0" cx="1419.92" cy="811.38" r="8.51"/>
<circle class="st0" cx="1669.71" cy="368.36" r="8.51"/>
<circle class="st0" cx="1949.13" cy="343.85" r="8.51"/>
<circle class="st0" cx="1100.2" cy="222.52" r="8.51"/>
<circle class="st0" cx="1096.94" cy="219.37" r="8.51"/>
<circle class="st0" cx="923.22" cy="219.76" r="8.51"/>
<circle class="st0" cx="920.39" cy="214.46" r="8.51"/>
</svg>
