<?xml version="1.0" encoding="utf-8"?>
<!-- Generator: Adobe Illustrator 25.2.3, SVG Export Plug-In . SVG Version: 6.00 Build 0)  -->
<svg version="1.1" id="Layer_1" xmlns="http://www.w3.org/2000/svg" xmlns:xlink="http://www.w3.org/1999/xlink" x="0px" y="0px"
	 width="257px" height="103px" viewBox="0 0 257 103" style="enable-background:new 0 0 257 103;" xml:space="preserve">
<style type="text/css">
	.st0{fill:none;stroke:#FFFFFF;stroke-width:1.1869;stroke-miterlimit:10;}
	.st1{fill:#FFFFFF;}
</style>
<g>
	<circle class="st0" cx="56.53" cy="58.05" r="37.76"/>
	<circle class="st0" cx="200.5" cy="58.05" r="37.76"/>
	<line class="st0" x1="98.2" y1="56.32" x2="154.49" y2="56.32"/>
	<line class="st0" x1="126.34" y1="59.27" x2="126.34" y2="67.53"/>
	<g>
		<g>
			<line class="st0" x1="56.53" y1="31.6" x2="56.53" y2="11.22"/>
			<g>
				<path class="st1" d="M58.54,31.5c0,1.11-0.9,2.01-2.01,2.01c-1.11,0-2.01-0.9-2.01-2.01c0-1.11,0.9-2.01,2.01-2.01
					C57.64,29.49,58.54,30.39,58.54,31.5z"/>
			</g>
		</g>
	</g>
	<g>
		<g>
			<line class="st0" x1="200.5" y1="9.74" x2="200.5" y2="30.12"/>
			<g>
				<path class="st1" d="M198.49,9.84c0-1.11,0.9-2.01,2.01-2.01s2.01,0.9,2.01,2.01s-0.9,2.01-2.01,2.01S198.49,10.95,198.49,9.84z
					"/>
			</g>
		</g>
	</g>
	<g>
		<g>
			<line class="st0" x1="200.5" y1="46.05" x2="200.5" y2="66.43"/>
			<g>
				<path class="st1" d="M198.49,46.15c0-1.11,0.9-2.01,2.01-2.01s2.01,0.9,2.01,2.01s-0.9,2.01-2.01,2.01
					S198.49,47.26,198.49,46.15z"/>
			</g>
		</g>
	</g>
	<g>
		<g>
			<line class="st0" x1="56.53" y1="46.05" x2="56.53" y2="66.43"/>
			<g>
				<path class="st1" d="M54.52,46.15c0-1.11,0.9-2.01,2.01-2.01c1.11,0,2.01,0.9,2.01,2.01s-0.9,2.01-2.01,2.01
					C55.42,48.16,54.52,47.26,54.52,46.15z"/>
			</g>
		</g>
	</g>
</g>
</svg>
