<?xml version="1.0" encoding="utf-8"?>
<!-- Generator: Adobe Illustrator 25.2.3, SVG Export Plug-In . SVG Version: 6.00 Build 0)  -->
<svg version="1.1" id="Layer_1" xmlns="http://www.w3.org/2000/svg" xmlns:xlink="http://www.w3.org/1999/xlink" x="0px" y="0px"
	 width="455px" height="193px" viewBox="0 0 455 193" style="enable-background:new 0 0 455 193;" xml:space="preserve">
<style type="text/css">
	.st0{fill:none;stroke:#FFFFFF;stroke-width:1.1869;stroke-miterlimit:10;}
</style>
<g>
	<rect x="412.52" y="42.24" class="st0" width="12.57" height="17.07"/>
	<rect x="17.11" y="64.38" class="st0" width="404.93" height="8.85"/>
	<line class="st0" x1="215.46" y1="86.81" x2="215.46" y2="134.23"/>
	<line class="st0" x1="425.09" y1="94.09" x2="425.09" y2="141.51"/>
	<line class="st0" x1="236.64" y1="94.09" x2="236.64" y2="111.73"/>
	<line class="st0" x1="260.33" y1="102.91" x2="242.69" y2="102.91"/>
	<line class="st0" x1="281.68" y1="102.91" x2="264.04" y2="102.91"/>
	<line class="st0" x1="244.7" y1="126.36" x2="227.06" y2="126.36"/>
	<line class="st0" x1="264.04" y1="126.36" x2="246.4" y2="126.36"/>
	<line class="st0" x1="302.72" y1="102.91" x2="285.08" y2="102.91"/>
	<line class="st0" x1="322.06" y1="102.91" x2="304.42" y2="102.91"/>
	<line class="st0" x1="352.65" y1="105.52" x2="335.01" y2="105.52"/>
	<line class="st0" x1="283.73" y1="126.36" x2="266.08" y2="126.36"/>
	<line class="st0" x1="303.07" y1="126.36" x2="285.42" y2="126.36"/>
	<line class="st0" x1="321.83" y1="126.36" x2="304.18" y2="126.36"/>
	<line class="st0" x1="340.53" y1="126.36" x2="322.89" y2="126.36"/>
	<line class="st0" x1="359.27" y1="126.36" x2="341.63" y2="126.36"/>
	<line class="st0" x1="378.23" y1="126.36" x2="360.59" y2="126.36"/>
	<line class="st0" x1="397.07" y1="126.36" x2="379.42" y2="126.36"/>
	<line class="st0" x1="416.17" y1="126.36" x2="398.53" y2="126.36"/>
	<line class="st0" x1="244.7" y1="143.67" x2="227.06" y2="143.67"/>
	<line class="st0" x1="264.04" y1="143.67" x2="246.4" y2="143.67"/>
	<line class="st0" x1="283.73" y1="143.67" x2="266.08" y2="143.67"/>
	<line class="st0" x1="303.07" y1="143.67" x2="285.42" y2="143.67"/>
	<line class="st0" x1="321.83" y1="143.67" x2="304.18" y2="143.67"/>
	<line class="st0" x1="340.53" y1="143.67" x2="322.89" y2="143.67"/>
	<line class="st0" x1="359.27" y1="143.67" x2="341.63" y2="143.67"/>
	<line class="st0" x1="378.23" y1="143.67" x2="360.59" y2="143.67"/>
	<line class="st0" x1="397.07" y1="143.67" x2="379.42" y2="143.67"/>
	<line class="st0" x1="416.17" y1="143.67" x2="398.53" y2="143.67"/>
	<line class="st0" x1="244.7" y1="160.98" x2="227.06" y2="160.98"/>
	<line class="st0" x1="264.04" y1="160.98" x2="246.4" y2="160.98"/>
	<line class="st0" x1="283.73" y1="160.98" x2="266.08" y2="160.98"/>
	<line class="st0" x1="303.07" y1="160.98" x2="285.42" y2="160.98"/>
	<line class="st0" x1="244.7" y1="178.29" x2="227.06" y2="178.29"/>
	<line class="st0" x1="264.04" y1="178.29" x2="246.4" y2="178.29"/>
	<line class="st0" x1="283.73" y1="178.29" x2="266.08" y2="178.29"/>
	<line class="st0" x1="303.07" y1="178.29" x2="285.42" y2="178.29"/>
	<line class="st0" x1="321.83" y1="160.98" x2="304.18" y2="160.98"/>
	<line class="st0" x1="340.53" y1="160.98" x2="322.89" y2="160.98"/>
	<line class="st0" x1="359.27" y1="160.98" x2="341.63" y2="160.98"/>
	<line class="st0" x1="378.23" y1="160.98" x2="360.59" y2="160.98"/>
	<line class="st0" x1="397.07" y1="160.98" x2="379.42" y2="160.98"/>
	<line class="st0" x1="416.17" y1="160.98" x2="398.53" y2="160.98"/>
	<line class="st0" x1="327.28" y1="94.09" x2="327.28" y2="111.73"/>
	<line class="st0" x1="366.98" y1="98.72" x2="366.98" y2="116.37"/>
	<line class="st0" x1="378.23" y1="98.72" x2="378.23" y2="116.37"/>
	<circle class="st0" cx="418.81" cy="39.51" r="11.3"/>
	<circle class="st0" cx="418.81" cy="34.04" r="16.77"/>
	<line class="st0" x1="425.09" y1="59.31" x2="412.52" y2="59.31"/>
	<polyline class="st0" points="412.52,59.31 404.27,50.83 404.27,26.29 433.34,26.29 433.34,50.83 425.09,59.31 	"/>
	<path class="st0" d="M405.63,23.66c-0.85-1-1.36-2.3-1.36-3.72c0-3.19,2.58-5.77,5.77-5.77c2.36,0,4.4,1.42,5.29,3.45"/>
	<path class="st0" d="M422.25,17.7c0.88-2.07,2.93-3.53,5.32-3.53c3.19,0,5.77,2.58,5.77,5.77c0,1.39-0.49,2.67-1.32,3.67"/>
</g>
</svg>
