<?xml version="1.0" encoding="utf-8"?>
<!-- Generator: Adobe Illustrator 25.2.3, SVG Export Plug-In . SVG Version: 6.00 Build 0)  -->
<svg version="1.1" id="Layer_1" xmlns="http://www.w3.org/2000/svg" xmlns:xlink="http://www.w3.org/1999/xlink" x="0px" y="0px"
	 width="480px" height="486px" viewBox="0 0 480 486" style="enable-background:new 0 0 480 486;" xml:space="preserve">
<style type="text/css">
	.st0{fill:none;stroke:#FFFFFF;stroke-width:1.1869;stroke-miterlimit:10;}
	.st1{fill:none;stroke:#FFFFFF;stroke-width:1.1869;stroke-linejoin:round;stroke-miterlimit:10;}
</style>
<g>
	<circle class="st0" cx="238.89" cy="250.09" r="199.12"/>
	<circle class="st0" cx="238.89" cy="250.17" r="39.21"/>
	<circle class="st0" cx="238.67" cy="249.95" r="9.18"/>
	<path class="st0" d="M22.19,255.55c-0.05-1.81-0.07-3.63-0.07-5.46c0-9.17,0.58-18.21,1.7-27.08"/>
	<path class="st0" d="M29.59,306.33c-2.86-10.5-4.93-21.33-6.16-32.41"/>
	<path class="st0" d="M45.23,346.87c-4.66-9.15-8.67-18.69-11.99-28.54"/>
	<path class="st0" d="M68.43,382.98c-6.54-8.23-12.48-16.95-17.77-26.1"/>
	<path class="st0" d="M103.95,418.3c-8.64-6.78-16.74-14.22-24.23-22.23"/>
	<path class="st0" d="M145.51,443.87c-9.95-4.65-19.47-10.04-28.51-16.1"/>
	<path class="st0" d="M181.25,456.81c-10.48-2.76-20.65-6.3-30.43-10.55"/>
	<path class="st0" d="M218.24,463.14c-10.64-0.87-21.05-2.52-31.19-4.89"/>
	<path class="st0" d="M255.89,462.93c-6.59,0.61-13.26,0.92-20.01,0.92c-3.9,0-7.78-0.1-11.63-0.31"/>
	<path class="st0" d="M292.71,456.22c-10.03,2.76-20.36,4.81-30.92,6.08"/>
	<path class="st0" d="M325.01,444.44c-9.42,4.33-19.22,7.99-29.32,10.93"/>
	<path class="st0" d="M361.82,422.84c-8.64,6.31-17.78,11.99-27.34,16.97"/>
	<path class="st0" d="M392.52,395.55c-7.1,7.64-14.75,14.77-22.9,21.3"/>
	<path class="st0" d="M419.19,360.11c-5.31,8.83-11.25,17.25-17.74,25.19"/>
	<path class="st0" d="M436.67,323.59c-3.51,9.59-7.69,18.86-12.48,27.75"/>
	<path class="st0" d="M398.92,111.84c5.61,6.6,10.82,13.55,15.6,20.81"/>
	<path class="st0" d="M377.87,90.3c6.3,5.6,12.27,11.57,17.87,17.88"/>
	<path class="st0" d="M329.85,58.04c8.87,4.35,17.39,9.29,25.52,14.78"/>
	<path class="st0" d="M295.51,44.76c9.61,2.79,18.94,6.23,27.94,10.28"/>
	<path class="st0" d="M258.29,37.49c10.08,1.05,19.95,2.8,29.57,5.2"/>
	<path class="st0" d="M216.92,37.16c6.25-0.55,12.57-0.83,18.96-0.83c4.1,0,8.18,0.12,12.22,0.34"/>
	<path class="st0" d="M158.74,50.67c9.46-3.66,19.25-6.67,29.3-8.97"/>
	<path class="st0" d="M127.68,65.7c8.73-5.13,17.85-9.66,27.31-13.53"/>
	<path class="st0" d="M82.37,101.33c7.06-7.28,14.64-14.07,22.67-20.29"/>
	<path class="st0" d="M58.67,130.51c5.86-8.66,12.33-16.87,19.36-24.57"/>
	<path class="st0" d="M39.37,165.82c4.2-9.78,9.11-19.18,14.66-28.14"/>
	<path class="st0" d="M26.51,206.78c2.2-10.68,5.19-21.07,8.92-31.1"/>
	<line class="st0" x1="106.45" y1="62.27" x2="119.95" y2="77.32"/>
	<line class="st0" x1="191.4" y1="25.24" x2="194.59" y2="45.21"/>
	<line class="st0" x1="207.65" y1="22.69" x2="209.18" y2="42.85"/>
	<line class="st0" x1="426.86" y1="130.2" x2="409.35" y2="140.31"/>
	<line class="st0" x1="373.69" y1="67.81" x2="360.97" y2="83.53"/>
	<line class="st0" x1="383.92" y1="76.12" x2="370.23" y2="91"/>
	<path class="st0" d="M444.44,272.11H426.6c-1.95,0-3.52-1.58-3.52-3.52V163.33c0-1.95,1.58-3.52,3.52-3.52h17.84
		c1.95,0,3.52,1.58,3.52,3.52v105.25C447.97,270.53,446.39,272.11,444.44,272.11z"/>
	<circle class="st0" cx="435.52" cy="184.89" r="21.6"/>
	<circle class="st0" cx="435.52" cy="184.89" r="18.02"/>
	<rect x="431.44" y="178.73" class="st0" width="8.16" height="19.12"/>
	<rect x="431.44" y="218.97" class="st0" width="8.16" height="15.75"/>
	<line class="st0" x1="423.08" y1="170.66" x2="447.97" y2="170.66"/>
	<path class="st0" d="M423.07,255.79c2.8-6.92,7.33-11.41,12.45-11.41c4.88,0,9.62,4.06,12.44,10.44"/>
	<polygon class="st1" points="413.16,260.66 423.08,268.58 423.08,263.48 	"/>
	<polygon class="st1" points="413.16,254.43 423.08,262.35 423.08,257.25 	"/>
	<polygon class="st1" points="413.16,248.39 423.08,256.31 423.08,251.21 	"/>
	<polygon class="st1" points="457.88,260.66 447.97,268.58 447.97,263.48 	"/>
	<polygon class="st1" points="457.88,254.43 447.97,262.35 447.97,257.25 	"/>
	<polygon class="st1" points="457.88,248.39 447.97,256.31 447.97,251.21 	"/>
	<rect x="428.8" y="256.31" class="st1" width="10.76" height="24.61"/>
	<line class="st0" x1="426.4" y1="213.45" x2="426.4" y2="238.77"/>
	<line class="st0" x1="426.4" y1="240.17" x2="426.4" y2="243.85"/>
	<line class="st0" x1="443.72" y1="213.45" x2="443.72" y2="238.77"/>
	<line class="st0" x1="443.72" y1="240.17" x2="443.72" y2="243.85"/>
</g>
</svg>
