<?xml version="1.0" encoding="utf-8"?>
<!-- Generator: Adobe Illustrator 25.2.3, SVG Export Plug-In . SVG Version: 6.00 Build 0)  -->
<svg version="1.1" id="Layer_1" xmlns="http://www.w3.org/2000/svg" xmlns:xlink="http://www.w3.org/1999/xlink" x="0px" y="0px"
	 width="662px" height="229px" viewBox="0 0 662 229" style="enable-background:new 0 0 662 229;" xml:space="preserve">
<style type="text/css">
	.st0{fill:none;stroke:#FFFFFF;stroke-width:1.1869;stroke-miterlimit:10;}
</style>
<g>
	<polyline class="st0" points="13.13,48.22 21.34,134.08 25.76,43.17 34.28,134.08 40.59,43.17 48.48,134.08 56.06,43.17 
		65.84,134.08 70.26,43.17 77.52,134.08 84.47,43.17 90.47,134.08 99.62,43.17 106.88,134.08 113.51,43.17 119.51,102.51 
		180.75,102.51 180.75,147.34 194.63,147.34 194.63,157.44 204.74,157.44 208.52,154.28 208.52,82.94 217.05,97.46 218.94,80.73 
		223.36,83.26 225.25,63.05 230.94,97.78 232.51,82.94 235.35,89.25 237.25,81.99 241.04,128.4 247.35,78.84 250.51,94.94 
		253.35,73.47 259.98,106.62 267.55,51.06 271.66,100.3 274.5,87.99 277.65,92.73 280.49,81.99 286.49,135.03 288.7,93.36 
		293.44,97.46 293.44,80.73 298.8,79.15 302.59,46.96 305.12,94.62 309.22,73.47 311.43,104.09 314.59,96.2 318.37,111.04 
		323.11,104.09 326.27,116.72 326.27,146.39 330.21,150.33 346.47,150.33 346.47,159.33 353.73,159.33 356.57,156.49 356.57,89.89 
		361.3,95.57 365.41,92.73 365.41,75.05 369.2,78.84 374.88,62.74 379.3,71.89 382.14,98.09 386.56,85.15 391.92,118.93 
		395.71,111.35 397.92,123.35 408.65,78.84 414.02,90.52 418.44,69.68 423.49,99.99 429.49,50.74 432.96,86.41 436.43,75.37 
		441.8,125.24 443.38,93.99 447.48,98.72 445.59,79.15 450,77.89 452.53,49.48 455.37,87.99 458.21,75.37 464.21,109.14 
		467.05,102.83 467.05,118.61 472.73,122.08 472.73,150.18 490.09,150.18 490.09,161.54 502.4,161.54 505.56,158.38 505.56,91.78 
		511.56,104.09 518.82,70 523.87,79.47 523.87,66.53 528.92,60.53 533.97,82.94 539.34,76 553.54,127.45 563.33,69.37 569.32,94.62 
		572.8,72.21 577.22,90.83 581.95,58 586.05,90.83 589.21,84.84 593.31,132.18 594.89,90.83 599,94.62 602.47,52.95 606.26,93.99 
		610.36,77.26 610.36,120.82 615.1,110.72 616.67,122.08 623.93,127.13 623.93,153.33 640.03,153.33 640.03,163.75 646.03,163.75 
		648.87,156.49 648.87,95.88 	"/>
	<line class="st0" x1="269.13" y1="14.74" x2="269.13" y2="38.08"/>
	<line class="st0" x1="417.12" y1="18.13" x2="417.12" y2="41.47"/>
	<line class="st0" x1="443.53" y1="29.56" x2="425.57" y2="29.56"/>
	<line class="st0" x1="574.99" y1="19.82" x2="574.99" y2="43.17"/>
	<line class="st0" x1="587.37" y1="19.82" x2="587.37" y2="43.17"/>
	<line class="st0" x1="181.58" y1="167.44" x2="181.58" y2="200.91"/>
	<line class="st0" x1="357.41" y1="168.99" x2="357.41" y2="207.02"/>
	<line class="st0" x1="200.37" y1="167.44" x2="200.37" y2="187.52"/>
	<line class="st0" x1="229.21" y1="168.99" x2="229.21" y2="189.07"/>
	<line class="st0" x1="235.9" y1="168.99" x2="235.9" y2="189.07"/>
	<line class="st0" x1="263.44" y1="168.99" x2="263.44" y2="189.07"/>
	<line class="st0" x1="303.86" y1="171.05" x2="303.86" y2="191.13"/>
	<line class="st0" x1="313.39" y1="171.05" x2="313.39" y2="191.13"/>
	<line class="st0" x1="192.49" y1="199.54" x2="207.39" y2="199.54"/>
	<line class="st0" x1="213.48" y1="199.54" x2="228.38" y2="199.54"/>
	<line class="st0" x1="233.46" y1="199.54" x2="248.01" y2="199.54"/>
	<line class="st0" x1="252.25" y1="200.06" x2="267.82" y2="200.06"/>
	<line class="st0" x1="270.36" y1="200.54" x2="285.76" y2="200.54"/>
	<line class="st0" x1="289.32" y1="200.54" x2="303.86" y2="200.54"/>
	<line class="st0" x1="308.45" y1="200.86" x2="323.85" y2="200.86"/>
	<line class="st0" x1="326.9" y1="200.86" x2="342.47" y2="200.86"/>
	<line class="st0" x1="233.46" y1="214.85" x2="249.16" y2="214.85"/>
	<line class="st0" x1="252.25" y1="214.85" x2="267.38" y2="214.85"/>
	<line class="st0" x1="270.36" y1="214.85" x2="286.57" y2="214.85"/>
	<line class="st0" x1="288.89" y1="214.85" x2="304.69" y2="214.85"/>
	<line class="st0" x1="205.58" y1="179.03" x2="220.93" y2="179.03"/>
	<line class="st0" x1="240.74" y1="179.46" x2="255.99" y2="179.46"/>
	<line class="st0" x1="268.39" y1="180.16" x2="284.04" y2="180.16"/>
	<line class="st0" x1="285.76" y1="180.16" x2="300.03" y2="180.16"/>
	<line class="st0" x1="316.72" y1="181.09" x2="331.67" y2="181.09"/>
	<line class="st0" x1="334.69" y1="181.09" x2="349.75" y2="181.09"/>
</g>
</svg>
