<?xml version="1.0" encoding="utf-8"?>
<!-- Generator: Adobe Illustrator 25.2.3, SVG Export Plug-In . SVG Version: 6.00 Build 0)  -->
<svg version="1.1" id="Layer_1" xmlns="http://www.w3.org/2000/svg" xmlns:xlink="http://www.w3.org/1999/xlink" x="0px" y="0px"
	 width="2828px" height="1670px" viewBox="0 0 2828 1670" style="enable-background:new 0 0 2828 1670;" xml:space="preserve">
<style type="text/css">
	.st0{fill:none;stroke:#43AD49;stroke-width:3;stroke-linejoin:round;}
	.st1{fill:none;stroke:#FCEE23;stroke-width:3;stroke-linejoin:round;}
	.st2{fill:none;stroke:#2BACE2;stroke-width:3;stroke-linejoin:round;}
	.st3{fill:none;stroke:#D2242A;stroke-width:3;stroke-linejoin:round;}
	.st4{fill:none;stroke:#EB0D8C;stroke-width:3;stroke-linejoin:round;}
	.st5{fill:#F5F6F6;}
</style>
<g>
	<g id="Layer_1_1_">
		<polyline class="st0" points="2811.1,777 2807.6,777.2 2803.6,776.3 2800,775 2796,773.8 2792.4,774 2788.9,774 2784.9,771.8 
			2781.3,769.5 2777.3,774.5 2774.2,784.2 2770.2,784.3 2766.6,783.8 2763,784.7 2759,784.2 2755.5,784 2751.5,783.5 2747.9,790.5 
			2744.3,790 2740.3,789.7 2736.8,791 2732.8,790.5 2729.6,789.7 2725.6,791.3 2722.1,791 2718.5,790.7 2714.5,790.5 2710.9,790.2 
			2706.9,790.8 2703.4,790 2699.8,789.8 2695.8,789.2 2692.2,788.5 2688.2,787.8 2685.1,787.2 2681.1,786.8 2677.5,786.5 
			2674,786.2 2669.9,785.5 2666.4,784.7 2662.4,785.2 2658.8,784.8 2655.3,785.2 2651.2,785.2 2647.7,784.3 2644.1,784.5 
			2640.6,785 2636.5,784 2633,783 2629.4,783 2625.4,819.7 2621.8,818.3 2617.8,817.3 2614.3,815.8 2610.7,813.8 2606.7,811.5 
			2603.1,807 2599.1,806.8 2596,803.5 2592,820.8 2588.4,816.8 2584.9,813 2580.9,809.2 2577.3,806.5 2573.3,804.8 2569.7,805.7 
			2566.2,804.2 2562.2,801 2558.6,797.8 2554.6,793.8 2551.5,791.8 2547.5,789 2543.9,786.8 2540.3,784.2 2536.3,781.2 
			2532.8,779.3 2528.8,779 2525.2,777.3 2521.6,775 2517.6,772.7 2514.1,770.3 2510.1,768 2506.9,766 2502.9,764.2 2499.4,762 
			2495.8,759.5 2491.8,756.8 2488.2,764.2 2484.2,762 2480.7,759.7 2477.1,757.8 2473.1,755.8 2469.5,753.8 2466,751.2 2462.4,749 
			2458.4,749.2 2454.8,745 2451.3,743.8 2447.2,739 2443.7,737 2439.7,735.2 2436.1,734.5 2432.6,733.3 2428.5,730.5 2425,727.7 
			2421,726.2 2417.8,724.8 2413.8,723.5 2410.3,722.3 2406.7,721 2402.7,723.2 2399.1,730.2 2395.1,729.8 2391.6,726.8 2388,725.8 
			2384,731.8 2380.4,731 2376.4,728.5 2373.3,727 2369.3,726.5 2365.7,725.7 2362.2,724.7 2358.2,723.5 2354.6,722.8 2350.6,722 
			2347,721.2 2343.5,720.5 2339.5,718 2335.9,715.5 2331.9,714.2 2328.8,715.5 2324.8,903.5 2321.2,900.8 2317.6,896.2 2313.6,891 
			2310.1,886.2 2306.1,880.7 2302.5,876.5 2298.9,871.7 2294.9,868.8 2291.4,864.7 2287.8,853 2284.2,894 2280.2,908.2 2276.7,908 
			2273.1,907.8 2269.1,910 2265.5,909.7 2261.5,908.2 2258,907.7 2254.4,907.3 2250.4,907.7 2246.8,907.2 2242.8,906.5 
			2239.7,906.3 2235.7,924.2 2232.1,1205.2 2228.6,1203.7 2224.5,1210.6 2221,1210.1 2217,1209.4 2213.4,1209.8 2209.8,1208.7 
			2205.8,1218.2 2202.3,1221.9 2198.3,1221.8 2195.2,1221.6 2191.1,1221.1 2187.6,1220.8 2184,1219.8 2180,1219.2 2176.4,1218.7 
			2172.4,1217.8 2168.9,1216.4 2165.3,1214.8 2161.3,1220.4 2157.7,1220.1 2153.7,1219.9 2150.6,1219.6 2146.6,1219.4 2143,1219.6 
			2139.5,1219.1 2135.5,1218.2 2131.9,1218.1 2127.9,1217.4 2124.3,1217.8 2120.8,1220.3 2116.8,1219.8 2113.2,1218.8 
			2109.6,1224.2 2106.1,1224.1 2102.1,1224.7 2098.5,1222.2 2094.9,1220.2 2090.9,1216.9 2087.4,1216.2 2083.4,1215.8 
			2079.8,1222.3 2076.2,1221.9 2072.2,1220.9 2068.7,1220.3 2064.6,1222.9 2061.5,1221.9 2057.5,1220.9 2054,1219.6 2050.4,1218.2 
			2046.4,1216.3 2042.8,1214.8 2038.8,1213.1 2035.3,1212.3 2031.7,1211.4 2027.7,1209.1 2024.1,1204.9 2020.1,1200.7 2017,1196.7 
			2013,1194.1 2009.4,1191.2 2005.9,1221.6 2001.8,1219.8 1998.3,1218.8 1994.3,1218.1 1990.7,1217.1 1987.1,1215.9 1983.1,1215.8 
			1979.6,1214.2 1975.6,1212.8 1972.5,1211.9 1968.4,1210.4 1964.9,1215.4 1961.3,1213.7 1957.3,1212.3 1953.7,1210.8 
			1949.7,1209.8 1946.2,1208.7 1942.6,1207.1 1938.6,1206.2 1935,1204.2 1931.5,1202.6 1927.9,1230.2 1923.9,1229.2 1920.3,1227.2 
			1916.8,1225.1 1912.8,1224.3 1909.2,1226.6 1905.2,1225.3 1901.6,1223.3 1898.1,1221.1 1894.1,1219.3 1890.5,1222.4 
			1886.5,1223.3 1883.4,1222.2 1879.4,1220.3 1875.8,1218.4 1872.2,1217.2 1868.2,1215.8 1864.7,1214.2 1860.7,1213.3 
			1857.1,1213.2 1853.5,1212.2 1849.5,1210.3 1846,1208.9 1841.9,1207.6 1838.8,1206.9 1834.8,1216.7 1831.3,1214.7 1827.7,1212.8 
			1823.7,1212.3 1820.1,1210.4 1816.1,1209.4 1812.5,1207.7 1809,1206.7 1805,1206.3 1801.4,1204.3 1797.4,1202.8 1794.3,1201.8 
			1790.3,1199.7 1786.7,1197.1 1783.2,1196.2 1779.1,1194.2 1775.6,1192.9 1771.6,1192.4 1768,1192.1 1764.4,1192.2 1760.4,1254.3 
			1756.9,1255.6 1753.3,1255.4 1749.7,1255.6 1745.7,1255.6 1742.2,1255.6 1738.6,1255.4 1734.6,1255.6 1731,1255.6 1727,1255.2 
			1723.5,1254.7 1719.9,1254.3 1715.9,1254.1 1712.3,1253.8 1708.3,1253.9 1705.2,1253.7 1701.2,1253.7 1697.6,1253.4 
			1694.1,1255.4 1690.1,1255.7 1686.5,1255.6 1682.5,1255.4 1678.9,1255.2 1675.4,1255.1 1671.4,1254.8 1667.8,1255.1 
			1663.8,1255.8 1660.7,1255.4 1656.7,1255.4 1653.1,1255.2 1649.5,1254.9 1645.5,1254.8 1642,1258.8 1638,1258.8 1634.4,1258.4 
			1630.8,1258.3 1626.8,1257.9 1623.3,1257.7 1619.2,1258.7 1616.1,1271.1 1612.1,1270.9 1608.6,1270.6 1605,1293.1 1601,1291.7 
			1597.4,1291.4 1593.4,1293.1 1589.8,1292.9 1586.3,1293.7 1582.3,1293.3 1578.7,1292.9 1575.2,1292.2 1571.6,1291.2 
			1567.6,1292.8 1564,1291.2 1560.5,1291.3 1556.4,1289.4 1552.9,1287.9 1548.9,1286.7 1545.3,1285.8 1541.7,1285.9 1537.7,1284.8 
			1534.2,1308.8 1530.2,1306.6 1527,1313.4 1523,1312.6 1519.5,1311.4 1515.9,1312.9 1511.9,1312.6 1508.3,1320.1 1504.3,1318.9 
			1500.8,1317.8 1497.2,1316.9 1493.2,1316.1 1489.6,1314.4 1485.6,1311.9 1482.5,1309.9 1478.5,1307.8 1474.9,1304.2 
			1471.4,1300.6 1467.4,1303.8 1463.8,1300.6 1459.8,1296.6 1456.2,1294.3 1452.7,1290.8 1448.7,1287.8 1445.1,1282.7 
			1441.1,1275.7 1438,1269.8 1434,1263.7 1430.4,1258.8 1426.8,1254.7 1422.8,1249.3 1419.3,1245.8 1415.2,1243.1 1411.7,1240.8 
			1408.1,1239.8 1404.1,1237.7 1400.6,1238.9 1397,1236.3 1393.4,1234.1 1389.4,1231.4 1385.9,1235.6 1382.3,1246.4 1378.3,1244.9 
			1374.7,1242.3 1370.7,1240.6 1367.1,1238.8 1363.6,1240.8 1359.6,1239.7 1356,1238.2 1352,1236.8 1348.9,1236.1 1344.9,1235.7 
			1341.3,1250.9 1337.7,1252.4 1333.7,1292.2 1330.2,1291.4 1326.2,1292.8 1322.6,1292.1 1319,1291.2 1315,1289.9 1311.5,1288.1 
			1307.5,1287.1 1304.3,1286.6 1300.3,1289.2 1296.8,1288.9 1293.2,1289.2 1289.2,1290.4 1285.6,1295.2 1281.6,1318.3 
			1278.1,1318.3 1274.5,1316.7 1270.5,1317.8 1266.9,1317.4 1262.9,1317.2 1259.8,1332.7 1255.8,1332.7 1252.2,1332.3 
			1248.7,1332.3 1244.7,1332.4 1241.1,1332.2 1237.1,1333.1 1233.5,1332.7 1230,1332.6 1226,1332.2 1222.4,1331.7 1218.8,1331.2 
			1215.3,1328.8 1211.3,1328.3 1207.7,1328.3 1204.1,1330.2 1200.1,1329.8 1196.6,1328.8 1192.5,1327.4 1189,1329.9 1185.4,1330.7 
			1181.4,1330.1 1177.9,1329.6 1173.8,1329.2 1170.7,1328.8 1166.7,1328.8 1163.2,1327.3 1159.6,1327.3 1155.6,1326.2 1152,1325.2 
			1148,1324.3 1144.4,1323.7 1140.9,1323.1 1136.9,1329.1 1133.3,1333.2 1129.3,1332.1 1126.2,1330.8 1122.2,1330.1 1118.6,1328.8 
			1115,1327.3 1111,1327.8 1107.5,1327.3 1103.5,1326.1 1099.9,1325.1 1096.3,1364.2 1092.3,1362.9 1088.8,1362.8 1084.8,1361.7 
			1081.6,1360.6 1077.6,1359.2 1074.1,1378.7 1070.5,1377.2 1066.5,1375.7 1062.9,1374.6 1058.9,1373.8 1055.4,1372.8 
			1051.8,1372.2 1047.8,1371.1 1044.2,1370.2 1040.7,1375.4 1037.1,1374.2 1033.1,1374.8 1029.5,1372.8 1026,1372.6 1022,1379.1 
			1018.4,1384.8 1014.4,1384.6 1010.8,1382.8 1007.3,1380.6 1003.3,1379.1 999.7,1376.8 995.7,1375.2 992.6,1374.4 988.6,1373.3 
			985,1372.2 981.4,1370.8 977.4,1374.2 973.9,1374.8 969.8,1374.3 966.3,1373.2 962.7,1371.9 958.7,1373.2 955.1,1371.8 
			951.1,1371.1 948,1370.6 944,1369.9 940.4,1369.3 936.9,1389.4 932.9,1388.8 929.3,1388.3 925.3,1393.1 921.7,1392.4 
			918.2,1406.7 914.2,1406.2 910.6,1408.8 906.6,1408.3 903.5,1408.1 899.5,1402.8 895.9,1401.1 892.3,1406.2 888.3,1405.9 
			884.8,1405.8 880.8,1385.2 877.2,1385.2 873.6,1405.4 869.6,1405.2 866.1,1404.4 862.5,1403.7 858.9,1403.7 854.9,1420.4 
			851.4,1425.6 847.8,1425.1 843.8,1424.8 840.2,1418.1 836.2,1424.1 832.7,1438.8 829.1,1445.2 825.1,1445.2 821.5,1465.2 
			817.5,1469.4 814.4,1469.4 810.4,1469.4 806.8,1469.2 803.3,1469.2 799.3,1469.1 795.7,1468.8 791.7,1468.8 788.1,1468.7 
			784.6,1468.3 780.6,1468.1 777,1467.8 773,1467.8 769.9,1467.8 765.9,1467.6 762.3,1467.3 758.7,1485.3 754.7,1486.7 
			751.2,1486.2 747.1,1485.8 743.6,1485.1 740,1483.1 736,1470.2 732.4,1483.9 728.4,1485.8 725.3,1485.1 721.3,1484.9 
			717.8,1484.8 714.2,1484.7 710.2,1484.4 706.6,1484.3 702.6,1483.9 699,1483.6 695.5,1483.2 691.5,1483.1 687.9,1482.3 
			684.3,1480.8 680.8,1479.8 676.8,1479.7 673.2,1479.1 669.6,1481.1 665.6,1480.9 662.1,1480.8 658.1,1480.7 654.5,1480.2 
			650.9,1480.1 646.9,1479.7 643.4,1479.2 639.4,1478.8 636.2,1478.4 632.2,1487.9 628.7,1487.4 625.1,1487.3 621.1,1486.9 
			617.5,1535.1 613.5,1534.8 610,1534.2 606.4,1533.8 602.4,1533.3 598.8,1532.9 594.8,1532.4 591.7,1531.6 587.7,1531.1 
			584.1,1530.4 580.6,1529.9 576.6,1529.1 573,1549.4 569,1549.2 565.4,1549.1 561.9,1550.1 557.8,1549.6 554.3,1548.9 
			550.3,1548.4 547.2,1551.1 543.2,1550.8 539.6,1550.6 536,1550.8 532,1562.6 528.5,1571.2 524.4,1570.8 520.9,1570.7 
			517.3,1570.4 513.3,1570.1 509.7,1568.8 506.2,1569.8 502.6,1569.2 498.6,1568.7 495,1568.8 491.5,1568.2 487.5,1567.8 
			483.9,1567.7 479.9,1568.2 476.3,1567.8 472.8,1567.6 468.8,1566.9 465.2,1566.7 461.2,1566.8 458.1,1565.8 454.1,1565.4 
			450.5,1565.2 446.9,1561.3 442.9,1562.7 439.4,1559.4 435.4,1563.3 431.8,1559.8 428.2,1560.2 424.2,1564.1 420.7,1567.7 
			416.7,1567.2 413.5,1564.1 409.5,1566.8 406,1566.9 402.4,1576.1 398.4,1575.8 394.8,1614.7 390.8,1614.3 387.3,1614.3 
			383.7,1614.3 379.7,1615.2 376.1,1615.1 372.1,1606.8 369,1618.2 365,1631.9 361.4,1631.9 357.9,1624.1 353.9,1631.9 
			350.3,1631.9 346.3,1631.9 342.7,1632.1 339.2,1632.1 335.1,1632.4 331.6,1632.4 328,1632.4 324.5,1632.4 320.5,1632.4 
			316.9,1632.4 313.3,1632.6 309.3,1634.2 305.8,1634.2 301.7,1634.2 298.2,1634.2 294.6,1634.2 290.6,1634.2 287,1634.2 
			283,1634.2 279.9,1634.2 275.9,1634.1 272.3,1632.4 268.8,1632.3 264.8,1632.2 261.2,1634.2 257.2,1634.2 253.6,1634.2 
			250.1,1634.1 246.1,1634.1 242.5,1634.1 238.5,1634.1 235.4,1634.1 231.4,1633.9 227.8,1633.9 224.2,1633.9 220.2,1633.9 
			216.7,1633.9 212.7,1633.9 209.1,1633.9 205.5,1633.9 201.5,1658.4 198,1658.4 194,1658.4 190.8,1658.4 186.8,1658.4 
			183.3,1658.4 179.7,1658.4 175.7,1658.4 172.1,1658.4 168.1,1658.4 164.6,1658.4 161,1658.4 157,1658.4 153.4,1658.4 
			149.9,1658.4 146.3,1658.4 142.3,1658.4 138.7,1658.4 135.2,1658.4 131.2,1658.4 127.6,1658.4 123.6,1658.7 120,1658.7 
			116.5,1658.7 112.4,1658.7 108.9,1658.7 104.9,1658.7 101.8,1658.7 97.8,1658.7 94.2,1658.7 90.6,1658.7 86.6,1658.7 83,1658.7 
			79,1658.7 75.5,1658.7 71.9,1658.7 67.9,1658.7 64.3,1658.7 60.3,1658.7 57.2,1658.7 53.2,1658.7 49.6,1658.7 46.1,1658.7 
			42.1,1658.7 38.5,1658.7 34.5,1658.7 30.9,1658.7 27.4,1658.7 23.4,1658.7 19.8,1658.7 15.8,1658.7 12.7,1658.7 8.7,1658.7 		"/>
		<polyline class="st1" points="2814.7,1492.2 2811.1,1492.9 2807.1,1493.6 2803.6,1493.8 2799.6,1494.1 2796,1494.6 2792.4,1494.8 
			2788.4,1495.1 2784.9,1494.8 2780.9,1494.8 2777.7,1495.1 2773.7,1494.6 2770.2,1494.7 2766.6,1495.1 2762.6,1495.9 2759,1496.3 
			2755,1496.8 2751.5,1496.7 2747.9,1497.1 2743.9,1497.6 2740.3,1497.8 2736.3,1498.1 2733.2,1498.4 2729.2,1498.8 2725.6,1499.7 
			2722.1,1500.2 2718.1,1500.4 2714.5,1500.8 2710.5,1501.2 2706.9,1501.2 2703.4,1501.2 2699.3,1501.8 2695.8,1501.9 
			2691.8,1501.8 2688.7,1502.2 2684.6,1502.2 2681.1,1502.6 2677.5,1503.1 2673.5,1503.4 2670,1503.2 2665.9,1503.6 2662.4,1503.6 
			2658.8,1503.6 2654.8,1504.2 2651.2,1504.2 2647.7,1504.1 2644.1,1504.8 2640.1,1505.1 2636.5,1504.9 2633,1505.9 2629,1506.2 
			2625.4,1506.6 2621.4,1507.2 2617.8,1507.2 2614.3,1507.4 2610.3,1507.4 2606.7,1507.4 2602.7,1507.4 2599.6,1508.1 
			2595.6,1508.4 2592,1508.2 2588.4,1508.8 2584.4,1508.8 2580.9,1509.3 2576.9,1509.9 2573.3,1510.1 2569.7,1510.3 2565.7,1509.8 
			2562.2,1510.1 2558.2,1510.1 2555,1510.3 2551,1510.6 2547.5,1510.8 2543.9,1510.9 2539.9,1511.3 2536.3,1511.2 2532.3,1511.8 
			2528.8,1511.7 2525.2,1511.7 2521.2,1512.1 2517.6,1512.2 2513.6,1512.7 2510.5,1512.8 2506.5,1512.8 2502.9,1512.8 
			2499.4,1513.1 2495.4,1513.3 2491.8,1513.8 2487.8,1514.1 2484.2,1513.9 2480.7,1514.2 2476.6,1514.2 2473.1,1514.7 
			2469.5,1514.7 2466,1514.8 2461.9,1514.8 2458.4,1514.9 2454.8,1514.8 2450.8,1515.2 2447.2,1515.8 2443.2,1516.3 2439.7,1516.2 
			2436.1,1516.7 2432.1,1517.2 2428.5,1517.2 2424.5,1517.2 2421.4,1517.1 2417.4,1517.1 2413.8,1517.1 2410.3,1517.2 
			2406.3,1517.7 2402.7,1517.9 2398.7,1518.6 2395.1,1518.8 2391.6,1518.8 2387.6,1519.4 2384,1519.2 2380,1519.6 2376.9,1519.8 
			2372.9,1520.1 2369.3,1520.1 2365.7,1520.4 2361.7,1520.8 2358.2,1520.7 2354.2,1521.2 2350.6,1521.3 2347,1521.8 2343,1521.6 
			2339.5,1521.8 2335.5,1522.2 2332.3,1522.2 2328.3,1522.8 2324.8,1522.8 2321.2,1523.3 2317.2,1523.3 2313.6,1523.8 
			2309.6,1524.3 2306.1,1524.3 2302.5,1524.7 2298.5,1525.1 2294.9,1525.2 2291.4,1525.4 2287.8,1525.7 2283.8,1525.7 
			2280.2,1525.7 2276.7,1526.2 2272.7,1525.9 2269.1,1526.7 2265.1,1526.9 2261.5,1526.9 2258,1527.1 2253.9,1527.4 2250.4,1527.8 
			2246.4,1528.2 2243.3,1528.4 2239.2,1528.1 2235.7,1527.8 2232.1,1528.6 2228.1,1528.3 2224.5,1528.6 2220.5,1529.2 2217,1529.2 
			2213.4,1529.2 2209.4,1529.9 2205.8,1529.9 2201.8,1530.4 2198.7,1530.6 2194.7,1530.8 2191.1,1530.3 2187.6,1530.8 
			2183.6,1530.6 2180,1530.6 2176,1530.9 2172.4,1531.3 2168.9,1531.1 2164.9,1531.3 2161.3,1531.4 2157.3,1531.7 2154.2,1531.8 
			2150.2,1531.8 2146.6,1531.3 2143,1531.8 2139,1531.8 2135.5,1531.8 2131.5,1532.2 2127.9,1532.3 2124.3,1532.7 2120.3,1532.6 
			2116.8,1532.4 2113.2,1532.7 2109.6,1532.8 2105.6,1533.2 2102.1,1533.1 2098.5,1533.6 2094.5,1533.3 2090.9,1533.8 
			2086.9,1533.8 2083.4,1534.1 2079.8,1533.9 2075.8,1534.4 2072.2,1534.2 2068.2,1534.8 2065.1,1535.2 2061.1,1534.8 
			2057.5,1534.8 2054,1534.9 2049.9,1534.9 2046.4,1534.8 2042.4,1535.2 2038.8,1534.9 2035.2,1535.1 2031.2,1535.1 2027.7,1535.2 
			2023.7,1534.9 2020.6,1535.2 2016.5,1534.9 2013,1534.8 2009.4,1534.8 2005.4,1534.1 2001.8,1534.3 1997.8,1534.3 1994.3,1534.8 
			1990.7,1535.1 1986.7,1535.2 1983.1,1535.3 1979.1,1535.3 1976,1535.2 1972,1534.8 1968.4,1534.7 1964.9,1534.4 1960.9,1534.2 
			1957.3,1534.9 1953.3,1535.2 1949.7,1535.1 1946.2,1535.3 1942.2,1535.7 1938.6,1535.8 1935,1535.8 1931.5,1535.8 1927.5,1536.2 
			1923.9,1536.2 1920.3,1536.2 1916.3,1536.2 1912.8,1536.2 1908.8,1536.9 1905.2,1536.7 1901.6,1536.8 1897.6,1536.7 
			1894.1,1536.8 1890,1537.2 1886.9,1537.2 1882.9,1537.7 1879.4,1537.3 1875.8,1537.8 1871.8,1537.9 1868.2,1537.9 1864.2,1538.2 
			1860.7,1538.3 1857.1,1538.3 1853.1,1538.3 1849.5,1538.6 1845.5,1538.6 1842.4,1538.8 1838.4,1538.8 1834.8,1538.6 
			1831.3,1539.3 1827.2,1539.7 1823.7,1540.2 1819.7,1540.7 1816.1,1541.4 1812.5,1541.4 1808.5,1541.8 1805,1542.3 1801,1542.7 
			1797.9,1542.8 1793.8,1543.1 1790.3,1542.8 1786.7,1543.1 1782.7,1543.2 1779.1,1543.2 1775.1,1543.8 1771.6,1544.3 1768,1544.8 
			1764,1544.3 1760.4,1544.8 1756.9,1545.3 1753.3,1545.6 1749.3,1545.8 1745.7,1545.8 1742.2,1546.4 1738.2,1546.7 1734.6,1546.8 
			1730.6,1546.8 1727,1547.7 1723.5,1548.2 1719.5,1548.4 1715.9,1548.7 1711.9,1548.7 1708.8,1549.3 1704.8,1549.2 1701.2,1549.2 
			1697.6,1549.8 1693.6,1550.4 1690.1,1550.8 1686.1,1550.7 1682.5,1551.6 1678.9,1552.1 1674.9,1551.9 1671.4,1552.1 
			1667.3,1552.2 1664.2,1552.6 1660.2,1552.8 1656.7,1553.3 1653.1,1553.4 1649.1,1553.7 1645.5,1554.2 1641.5,1554.3 
			1637.9,1554.8 1634.4,1555.1 1630.4,1555.2 1626.8,1555.3 1622.8,1555.8 1619.7,1556.2 1615.7,1556.6 1612.1,1556.7 
			1608.6,1557.2 1604.5,1557.8 1601,1558.6 1597,1558.7 1593.4,1559.2 1589.9,1560.2 1585.8,1560.4 1582.3,1560.2 1578.7,1560.9 
			1575.1,1561.2 1571.1,1561.2 1567.6,1561.1 1564,1561.3 1560,1561.2 1556.4,1561.4 1552.4,1561.7 1548.9,1562.2 1545.3,1562.8 
			1541.3,1562.6 1537.7,1562.8 1533.7,1562.8 1530.6,1563.4 1526.6,1563.8 1523,1563.4 1519.5,1563.9 1515.5,1564.8 1511.9,1564.8 
			1507.9,1564.6 1504.3,1565.4 1500.8,1565.8 1496.8,1565.9 1493.2,1566.2 1489.2,1566.9 1486.1,1567.2 1482.1,1567.4 
			1478.5,1567.8 1474.9,1568.3 1470.9,1568.4 1467.4,1568.2 1463.4,1569.2 1459.8,1568.8 1456.2,1569.2 1452.2,1569.8 
			1448.7,1570.2 1444.6,1569.8 1441.5,1570.1 1437.5,1570.3 1434,1570.6 1430.4,1570.8 1426.4,1570.8 1422.8,1570.8 1418.8,1571.7 
			1415.3,1572.2 1411.7,1572.2 1407.7,1572.4 1404.1,1572.4 1400.6,1572.4 1397,1573.2 1393,1573.8 1389.4,1573.4 1385.9,1574.2 
			1381.8,1574.1 1378.3,1574.2 1374.3,1574.8 1370.7,1574.9 1367.1,1575.4 1363.1,1575.4 1359.6,1575.6 1355.6,1575.8 
			1352.4,1575.9 1348.4,1576.8 1344.9,1577.3 1341.3,1577.8 1337.3,1578.1 1333.7,1578.8 1329.7,1579.1 1326.2,1579.2 
			1322.6,1579.6 1318.6,1580.1 1315,1580.3 1311,1580.4 1307.9,1580.3 1303.9,1580.8 1300.3,1581.2 1296.8,1581.4 1292.8,1581.7 
			1289.2,1582.8 1285.2,1583.2 1281.6,1584.2 1278.1,1584.2 1274.1,1584.8 1270.5,1585.4 1266.5,1585.8 1263.4,1586.2 
			1259.4,1586.4 1255.8,1586.8 1252.2,1587.1 1248.2,1587.6 1244.7,1587.2 1240.6,1587.9 1237.1,1589.4 1233.5,1589.2 
			1229.5,1589.8 1226,1590.2 1222.4,1590.3 1218.8,1590.8 1214.8,1591.4 1211.3,1591.7 1207.7,1592.4 1203.7,1592.4 1200.1,1592.3 
			1196.1,1592.2 1192.6,1593.2 1189,1593.8 1185,1594.6 1181.4,1594.7 1177.4,1595.8 1174.3,1596.6 1170.3,1596.6 1166.7,1596.7 
			1163.2,1596.6 1159.1,1596.7 1155.6,1596.6 1151.6,1597.3 1148,1597.6 1144.4,1597.4 1140.4,1597.9 1136.9,1598.2 1132.9,1598.8 
			1129.7,1599.3 1125.7,1599.8 1122.2,1600.2 1118.6,1599.8 1114.6,1599.8 1111,1600.2 1107,1600.7 1103.5,1601.3 1099.9,1601.7 
			1095.9,1602.2 1092.3,1602.6 1088.3,1602.2 1085.2,1602.6 1081.2,1602.7 1077.6,1602.3 1074.1,1602.3 1070.1,1602.6 
			1066.5,1602.9 1062.5,1603.2 1058.9,1602.6 1055.4,1603.2 1051.4,1603.4 1047.8,1603.3 1044.2,1603.7 1040.7,1603.7 
			1036.7,1603.9 1033.1,1603.9 1029.5,1603.8 1025.5,1603.8 1022,1604.1 1018,1603.8 1014.4,1603.9 1010.8,1604.1 1006.8,1604.7 
			1003.3,1604.4 999.2,1604.8 996.1,1604.8 992.1,1605.7 988.6,1605.4 985,1606.6 981,1606.6 977.4,1607.1 973.4,1606.9 
			969.8,1607.2 966.3,1607.2 962.3,1608.4 958.7,1608.6 954.7,1608.6 951.6,1609.1 947.6,1609.3 944,1609.9 940.5,1610.8 
			936.4,1610.6 932.9,1610.6 928.9,1610.9 925.3,1611.3 921.7,1612.1 917.7,1612.8 914.2,1613.6 910.2,1613.8 907,1614.1 
			903,1614.4 899.5,1614.2 895.9,1614.8 891.9,1614.8 888.3,1615.2 884.3,1615.4 880.8,1615.7 877.2,1616.8 873.2,1617.6 
			869.6,1617.8 866.1,1618.1 862.5,1618.8 858.5,1618.8 854.9,1619.1 851.4,1619.9 847.4,1620.1 843.8,1620.4 839.8,1621.4 
			836.2,1621.2 832.7,1621.4 828.7,1622.2 825.1,1622.7 821.1,1623.2 818,1623.3 814,1623.8 810.4,1624.1 806.8,1624.6 
			802.8,1624.8 799.3,1625.6 795.3,1625.2 791.7,1625.2 788.1,1625.6 784.1,1625.8 780.5,1626.6 776.5,1627.2 773.4,1627.7 
			769.4,1627.3 765.9,1627.1 762.3,1627.4 758.3,1628.1 754.7,1628.8 750.7,1628.7 747.1,1629.2 743.6,1629.2 739.6,1629.6 
			736,1630.1 732,1630.1 728.9,1630.3 724.9,1630.2 721.3,1630.3 717.7,1631.1 713.7,1631.6 710.2,1631.9 706.2,1632.3 
			702.6,1632.2 699,1632.6 695,1632.8 691.5,1632.8 687.9,1633.2 684.3,1633.8 680.3,1633.8 676.8,1633.6 673.2,1634.8 
			669.2,1635.3 665.6,1635.6 661.6,1635.8 658.1,1636.2 654.5,1636.2 650.5,1636.2 646.9,1636.7 642.9,1637.2 639.8,1637.4 
			635.8,1637.8 632.2,1637.8 628.7,1638.4 624.7,1638.6 621.1,1638.7 617.1,1639.2 613.5,1639.6 610,1639.6 606,1639.9 
			602.4,1639.7 598.4,1640.2 595.3,1640.6 591.3,1640.2 587.7,1640.2 584.1,1640.6 580.1,1640.4 576.6,1640.8 572.5,1640.7 
			569,1641.2 565.4,1641.2 561.4,1641.3 557.8,1641.3 553.8,1641.6 550.7,1642.2 546.7,1641.8 543.2,1642.2 539.6,1642.7 
			535.6,1642.3 532,1642.9 528,1642.8 524.4,1643.1 520.9,1643.4 516.9,1643.8 513.3,1643.6 509.7,1644.2 506.2,1644.8 
			502.2,1644.7 498.6,1644.4 495,1644.6 491,1644.4 487.5,1644.9 483.5,1645.4 479.9,1645.6 476.3,1645.6 472.3,1645.8 
			468.8,1646.2 464.8,1646.3 461.6,1646.8 457.6,1647.3 454.1,1647.4 450.5,1647.8 446.5,1647.8 442.9,1648.2 438.9,1648.2 
			435.4,1648.3 431.8,1648.8 427.8,1649.1 424.2,1648.8 420.2,1649.3 417.1,1649.8 413.1,1650.1 409.5,1649.9 406,1650.2 
			402,1650.8 398.4,1651.2 394.4,1651.2 390.8,1651.6 387.3,1651.7 383.2,1651.9 379.7,1652.3 375.7,1652.3 372.6,1652.8 
			368.6,1653.1 365,1653.2 361.4,1653.6 357.4,1653.3 353.9,1653.6 349.8,1653.6 346.3,1654.2 342.7,1654.3 338.7,1654.4 
			335.1,1654.3 331.6,1654.4 328,1654.8 324,1654.8 320.4,1655.1 316.9,1655.3 312.9,1655.4 309.3,1655.6 305.3,1655.6 
			301.7,1655.4 298.2,1655.3 294.2,1655.4 290.6,1655.7 286.6,1656.1 283.5,1656.2 279.5,1656.2 275.9,1655.9 272.3,1655.9 
			268.3,1655.9 264.8,1656.2 260.8,1656.2 257.2,1656.6 253.6,1656.7 249.6,1656.8 246.1,1656.8 242.1,1657.2 238.9,1657.3 
			234.9,1657.6 231.4,1657.4 227.8,1657.4 223.8,1657.7 220.2,1657.4 216.2,1657.3 212.7,1657.6 209.1,1657.6 205.1,1657.6 
			201.5,1657.4 197.5,1657.4 194.4,1657.3 190.4,1657.7 186.8,1657.7 183.3,1657.8 179.3,1657.8 175.7,1657.8 171.7,1657.8 
			168.1,1657.9 164.6,1657.9 160.5,1658.1 157,1658.2 153.4,1658.3 149.9,1658.3 145.9,1658.3 142.3,1658.3 138.7,1658.3 
			134.7,1658.3 131.2,1658.3 127.1,1658.3 123.6,1658.4 120,1658.4 116,1658.4 112.4,1658.4 108.4,1658.4 105.3,1658.4 
			101.3,1658.6 97.7,1658.4 94.2,1658.4 90.2,1658.4 86.6,1658.4 82.6,1658.4 79,1658.4 75.5,1658.4 71.5,1658.4 67.9,1658.6 
			63.9,1658.6 60.8,1658.7 56.8,1658.7 53.2,1658.6 49.6,1658.6 45.6,1658.6 42.1,1658.7 38.1,1658.7 34.5,1658.7 30.9,1658.7 
			26.9,1658.7 23.4,1658.7 19.4,1658.7 16.2,1658.7 12.2,1658.7 		"/>
		<polyline class="st2" points="2814.7,1226.3 2811.1,1230.7 2807.1,1238.2 2803.6,1238.3 2799.6,1239.2 2796,1240.2 2792.4,1243.8 
			2788.4,1247.2 2784.9,1252.4 2780.9,1254.8 2777.7,1254.6 2773.7,1255.1 2770.2,1256.9 2766.6,1267.4 2762.6,1271.7 2759,1272.8 
			2755,1273.4 2751.5,1273.8 2747.9,1275.8 2743.9,1276.1 2740.3,1276.4 2736.3,1277.1 2733.2,1278.6 2729.2,1280.3 2725.6,1284.3 
			2722.1,1286.2 2718.1,1288.9 2714.5,1290.6 2710.5,1291.4 2706.9,1292.3 2703.4,1298.6 2699.3,1303.2 2695.8,1306.2 
			2691.8,1306.4 2688.7,1307.2 2684.6,1315.8 2681.1,1317.8 2677.5,1319.7 2673.5,1320.6 2670,1320.8 2665.9,1321.8 2662.4,1322.2 
			2658.8,1322.1 2654.8,1324.4 2651.2,1327.7 2647.7,1328.3 2644.1,1328.9 2640.1,1329.6 2636.5,1328.9 2633,1330.9 2629,1331.1 
			2625.4,1333.7 2621.4,1336.4 2617.8,1336.8 2614.3,1338.9 2610.3,1338.9 2606.7,1339.8 2602.7,1339.6 2599.6,1341.8 
			2595.6,1341.6 2592,1341.8 2588.4,1342.8 2584.4,1342.9 2580.9,1343.3 2576.9,1344.2 2573.3,1345.3 2569.7,1346.2 2565.7,1348.3 
			2562.2,1348.9 2558.2,1350.2 2555,1351.2 2551,1354.2 2547.5,1354.2 2543.9,1355.8 2539.9,1361.8 2536.3,1361.8 2532.3,1363.2 
			2528.8,1363.4 2525.2,1363.9 2521.2,1364.3 2517.6,1364.7 2513.6,1365.9 2510.5,1366.2 2506.5,1367.6 2502.9,1368.1 
			2499.4,1368.4 2495.4,1369.2 2491.8,1370.3 2487.8,1371.8 2484.2,1372.3 2480.7,1373.4 2476.6,1373.8 2473.1,1374.7 
			2469.5,1374.8 2466,1375.2 2461.9,1375.8 2458.4,1375.9 2454.8,1377.4 2450.8,1378.2 2447.2,1379.2 2443.2,1380.1 2439.7,1380.8 
			2436.1,1381.9 2432.1,1382.3 2428.5,1382.7 2424.5,1383.1 2421.4,1382.9 2417.4,1382.9 2413.8,1382.8 2410.3,1383.7 
			2406.3,1384.9 2402.7,1385.8 2398.7,1386.8 2395.1,1386.9 2391.6,1387.2 2387.6,1388.2 2384,1388.7 2380,1389.1 2376.9,1389.6 
			2372.9,1389.7 2369.3,1389.8 2365.7,1390.6 2361.7,1391.1 2358.2,1391.3 2354.2,1392.9 2350.6,1393.1 2347,1394.4 2343,1394.6 
			2339.5,1395.3 2335.5,1395.8 2332.3,1395.9 2328.3,1396.8 2324.8,1397.4 2321.2,1398.2 2317.2,1398.7 2313.6,1398.8 
			2309.6,1399.9 2306.1,1400.7 2302.5,1400.8 2298.5,1401.8 2294.9,1402.1 2291.4,1403.6 2287.8,1403.8 2283.8,1403.9 
			2280.2,1404.1 2276.7,1404.9 2272.7,1405.2 2269.1,1406.2 2265.1,1406.3 2261.5,1406.4 2258,1406.6 2253.9,1406.9 2250.4,1407.8 
			2246.4,1409.2 2243.3,1409.9 2239.2,1410.2 2235.7,1410.6 2232.1,1412.2 2228.1,1412.2 2224.5,1412.7 2220.5,1413.4 2217,1413.6 
			2213.4,1413.7 2209.4,1414.4 2205.8,1414.7 2201.8,1415.6 2198.7,1415.8 2194.7,1416.2 2191.1,1416.2 2187.6,1416.8 
			2183.6,1416.6 2180,1417.4 2176,1417.7 2172.4,1418.2 2168.9,1418.2 2164.9,1418.3 2161.3,1418.8 2157.3,1419.2 2154.2,1419.3 
			2150.2,1419.8 2146.6,1419.8 2143,1420.8 2139,1421.1 2135.5,1421.2 2131.5,1421.8 2127.9,1422.2 2124.3,1422.4 2120.3,1423.2 
			2116.8,1423.6 2113.2,1423.8 2109.6,1424.2 2105.6,1424.2 2102.1,1424.2 2098.5,1424.8 2094.5,1424.8 2090.9,1425.6 
			2086.9,1426.1 2083.4,1426.7 2079.8,1426.7 2075.8,1427.9 2072.2,1428.2 2068.2,1428.8 2065.1,1428.8 2061.1,1428.8 
			2057.5,1429.2 2054,1430.3 2049.9,1430.8 2046.4,1430.9 2042.4,1431.4 2038.8,1431.8 2035.2,1431.8 2031.2,1432.2 2027.7,1432.4 
			2023.7,1432.6 2020.6,1432.8 2016.5,1433.4 2013,1433.3 2009.4,1434.8 2005.4,1434.7 2001.8,1435.2 1997.8,1435.2 1994.3,1435.7 
			1990.7,1436.2 1986.7,1435.9 1983.1,1436.2 1979.1,1435.6 1976,1435.6 1972,1435.8 1968.4,1436.2 1964.9,1436.3 1960.9,1436.8 
			1957.3,1437.8 1953.3,1438.9 1949.7,1439.4 1946.2,1439.9 1942.2,1440.4 1938.6,1440.9 1935,1441.2 1931.5,1441.3 1927.5,1442.1 
			1923.9,1442.8 1920.3,1444.2 1916.3,1444.2 1912.8,1444.9 1908.8,1445.9 1905.2,1446.1 1901.6,1446.9 1897.6,1447.7 
			1894.1,1448.4 1890,1449.6 1886.9,1449.8 1882.9,1450.8 1879.4,1450.7 1875.8,1451.6 1871.8,1452.2 1868.2,1453.3 1864.2,1454.3 
			1860.7,1455.4 1857.1,1456.2 1853.1,1456.8 1849.5,1457.8 1845.5,1459.1 1842.4,1459.7 1838.4,1461.1 1834.8,1461.1 
			1831.3,1463.2 1827.2,1464.2 1823.7,1464.9 1819.7,1466.6 1816.1,1467.7 1812.5,1468.3 1808.5,1469.2 1805,1469.9 1801,1470.6 
			1797.9,1470.7 1793.8,1471.3 1790.3,1471.2 1786.7,1471.4 1782.7,1472.1 1779.1,1471.9 1775.1,1472.6 1771.6,1473.4 1768,1473.9 
			1764,1473.8 1760.4,1475.1 1756.9,1475.3 1753.3,1475.7 1749.3,1476.4 1745.7,1476.8 1742.2,1477.7 1738.2,1478.2 1734.6,1478.2 
			1730.6,1478.7 1727,1479.2 1723.5,1480.1 1719.5,1480.2 1715.9,1480.6 1711.9,1480.4 1708.8,1481.1 1704.8,1481.8 1701.2,1482.1 
			1697.6,1482.8 1693.6,1483.6 1690.1,1483.8 1686.1,1484.2 1682.5,1485.2 1678.9,1485.8 1674.9,1486.2 1671.4,1486.7 
			1667.3,1487.1 1664.2,1487.3 1660.2,1489.1 1656.7,1489.2 1653.1,1489.3 1649.1,1489.8 1645.5,1489.9 1641.5,1490.9 
			1637.9,1491.2 1634.4,1491.4 1630.4,1492.2 1626.8,1493.1 1622.8,1493.3 1619.7,1493.8 1615.7,1494.1 1612.1,1494.4 
			1608.6,1495.1 1604.5,1495.2 1601,1496.2 1597,1496.3 1593.4,1496.9 1589.9,1498.4 1585.8,1499.2 1582.3,1499.2 1578.7,1499.6 
			1575.1,1499.7 1571.1,1499.1 1567.6,1499.4 1564,1499.7 1560,1500.7 1556.4,1500.8 1552.4,1501.4 1548.9,1501.9 1545.3,1503.2 
			1541.3,1502.9 1537.7,1503.4 1533.7,1504.2 1530.6,1504.8 1526.6,1505.4 1523,1505.6 1519.5,1506.6 1515.5,1507.2 1511.9,1507.4 
			1507.9,1507.8 1504.3,1509.1 1500.8,1509.4 1496.8,1510.3 1493.2,1510.3 1489.2,1512.2 1486.1,1512.2 1482.1,1512.9 
			1478.5,1513.8 1474.9,1513.7 1470.9,1513.8 1467.4,1513.6 1463.4,1514.7 1459.8,1514.8 1456.2,1515.4 1452.2,1515.8 
			1448.7,1516.1 1444.6,1515.9 1441.5,1516.8 1437.5,1518.1 1434,1517.8 1430.4,1518.2 1426.4,1518.2 1422.8,1518.4 1418.8,1519.6 
			1415.3,1520.1 1411.7,1520.3 1407.7,1520.8 1404.1,1521.7 1400.6,1521.8 1397,1523.3 1393,1523.8 1389.4,1523.8 1385.9,1524.7 
			1381.8,1524.8 1378.3,1524.8 1374.3,1526.1 1370.7,1526.2 1367.1,1526.8 1363.1,1527.6 1359.6,1528.2 1355.6,1528.6 
			1352.4,1529.3 1348.4,1530.2 1344.9,1530.4 1341.3,1530.8 1337.3,1531.8 1333.7,1532.2 1329.7,1532.8 1326.2,1533.2 
			1322.6,1533.3 1318.6,1534.2 1315,1534.8 1311,1535.2 1307.9,1535.3 1303.9,1536.2 1300.3,1537.2 1296.8,1537.8 1292.8,1538.1 
			1289.2,1539.4 1285.2,1539.6 1281.6,1540.4 1278.1,1540.6 1274.1,1541.4 1270.5,1541.9 1266.5,1542.8 1263.4,1543.8 
			1259.4,1543.9 1255.8,1544.8 1252.2,1544.8 1248.2,1545.2 1244.7,1545.2 1240.6,1545.8 1237.1,1547.2 1233.5,1547.4 
			1229.5,1548.4 1226,1549.6 1222.4,1550.2 1218.8,1550.8 1214.8,1552.2 1211.3,1552.8 1207.7,1553.2 1203.7,1553.4 1200.1,1553.2 
			1196.1,1553.6 1192.6,1554.3 1189,1555.2 1185,1556.3 1181.4,1556.8 1177.4,1557.8 1174.3,1558.4 1170.3,1558.9 1166.7,1559.4 
			1163.2,1559.9 1159.1,1560.1 1155.6,1560.3 1151.6,1561.1 1148,1560.7 1144.4,1561.1 1140.4,1561.9 1136.9,1563.4 1132.9,1564.1 
			1129.7,1564.9 1125.7,1565.2 1122.2,1565.4 1118.6,1566.2 1114.6,1566.7 1111,1566.7 1107,1567.6 1103.5,1568.9 1099.9,1568.8 
			1095.9,1569.2 1092.3,1569.4 1088.3,1569.3 1085.2,1570.3 1081.2,1570.8 1077.6,1570.8 1074.1,1571.8 1070.1,1571.3 
			1066.5,1571.3 1062.5,1571.7 1058.9,1571.3 1055.4,1571.9 1051.4,1572.6 1047.8,1572.8 1044.2,1572.8 1040.7,1573.2 
			1036.7,1573.8 1033.1,1573.8 1029.5,1573.7 1025.5,1573.6 1022,1573.7 1018,1573.8 1014.4,1573.8 1010.8,1573.7 1006.8,1574.3 
			1003.3,1574.4 999.2,1574.7 996.1,1575.6 992.1,1576.1 988.6,1576.1 985,1577.7 981,1577.4 977.4,1578.8 973.4,1578.6 
			969.8,1578.8 966.3,1578.8 962.3,1579.8 958.7,1580.4 954.7,1580.3 951.6,1580.9 947.6,1580.8 944,1582.1 940.5,1583.2 
			936.4,1582.9 932.9,1583.2 928.9,1583.8 925.3,1584.6 921.7,1585.3 917.7,1586.1 914.2,1586.7 910.2,1586.9 907,1587.2 
			903,1587.9 899.5,1587.8 895.9,1589.1 891.9,1589.2 888.3,1589.8 884.3,1590.3 880.8,1590.6 877.2,1591.7 873.2,1592.8 
			869.6,1593.2 866.1,1593.6 862.5,1594.1 858.5,1594.6 854.9,1595.2 851.4,1595.8 847.4,1596.1 843.8,1596.2 839.8,1597.8 
			836.2,1597.6 832.7,1597.9 828.7,1598.6 825.1,1599.8 821.1,1600.6 818,1600.8 814,1601.8 810.4,1602.1 806.8,1602.4 
			802.8,1602.9 799.3,1603.8 795.3,1604.1 791.7,1604.3 788.1,1604.8 784.1,1605.2 780.5,1605.6 776.5,1606.8 773.4,1606.8 
			769.4,1606.8 765.9,1606.8 762.3,1608.1 758.3,1608.3 754.7,1609.7 750.7,1609.9 747.1,1610.4 743.6,1610.1 739.6,1610.9 
			736,1611.4 732,1611.7 728.9,1611.8 724.9,1611.8 721.3,1611.9 717.7,1612.8 713.7,1613.7 710.2,1614.2 706.2,1614.2 
			702.6,1614.3 699,1615.6 695,1616.2 691.5,1615.8 687.9,1616.4 684.3,1617.2 680.3,1617.1 676.8,1616.9 673.2,1617.8 
			669.2,1618.2 665.6,1619.1 661.6,1619.4 658.1,1620.4 654.5,1620.6 650.5,1620.3 646.9,1621.2 642.9,1622.2 639.8,1622.4 
			635.8,1622.8 632.2,1622.8 628.7,1623.6 624.7,1623.8 621.1,1624.3 617.1,1624.6 613.5,1624.8 610,1624.7 606,1625.2 
			602.4,1625.2 598.4,1626.2 595.3,1626.7 591.3,1626.2 587.7,1626.8 584.1,1626.8 580.1,1626.6 576.6,1626.8 572.5,1627.7 
			569,1627.9 565.4,1628.2 561.4,1628.2 557.8,1628.7 553.8,1628.2 550.7,1629.2 546.7,1629.4 543.2,1629.4 539.6,1629.8 
			535.6,1629.3 532,1629.8 528,1630.2 524.4,1630.4 520.9,1630.7 516.9,1631.9 513.3,1631.3 509.7,1632.1 506.2,1632.4 
			502.2,1632.3 498.6,1632.4 495,1632.4 491,1632.2 487.5,1632.8 483.5,1633.4 479.9,1633.4 476.3,1634.1 472.3,1634.6 
			468.8,1635.7 464.8,1636.2 461.6,1636.4 457.6,1636.9 454.1,1637.1 450.5,1637.1 446.5,1637.6 442.9,1637.9 438.9,1638.1 
			435.4,1638.3 431.8,1638.7 427.8,1640.2 424.2,1640.7 420.2,1640.7 417.1,1641.1 413.1,1641.2 409.5,1640.8 406,1641.7 
			402,1642.1 398.4,1642.6 394.4,1643.2 390.8,1644.3 387.3,1644.8 383.2,1644.9 379.7,1645.6 375.7,1645.8 372.6,1647.3 
			368.6,1647.7 365,1647.9 361.4,1648.1 357.4,1647.8 353.9,1648.4 349.8,1648.8 346.3,1649.6 342.7,1650.2 338.7,1650.7 
			335.1,1650.6 331.6,1650.6 328,1650.8 324,1651.1 320.4,1651.7 316.9,1652.1 312.9,1652.1 309.3,1652.3 305.3,1652.2 
			301.7,1651.8 298.2,1652.2 294.2,1652.9 290.6,1653.6 286.6,1653.8 283.5,1653.9 279.5,1653.8 275.9,1653.7 272.3,1654.2 
			268.3,1654.2 264.8,1654.3 260.8,1654.2 257.2,1654.7 253.6,1654.8 249.6,1654.9 246.1,1654.9 242.1,1655.4 238.9,1655.6 
			234.9,1655.8 231.4,1655.4 227.8,1655.6 223.8,1655.9 220.2,1655.9 216.2,1655.9 212.7,1656.3 209.1,1656.4 205.1,1656.7 
			201.5,1656.4 197.5,1656.6 194.4,1656.6 190.4,1656.9 186.8,1656.8 183.3,1657.1 179.3,1657.2 175.7,1657.2 171.7,1657.2 
			168.1,1657.6 164.6,1657.6 160.5,1657.8 157,1657.8 153.4,1657.8 149.9,1657.8 145.9,1657.8 142.3,1657.8 138.7,1657.8 
			134.7,1657.8 131.2,1657.8 127.1,1657.9 123.6,1658.3 120,1658.3 116,1658.3 112.4,1658.2 108.4,1658.2 105.3,1658.2 
			101.3,1658.3 97.7,1658.3 94.2,1658.3 90.2,1658.3 86.6,1658.3 82.6,1658.3 79,1658.3 75.5,1658.3 71.5,1658.3 67.9,1658.3 
			63.9,1658.3 60.8,1658.6 56.8,1658.4 53.2,1658.4 49.6,1658.4 45.6,1658.6 42.1,1658.7 38.1,1658.7 34.5,1658.7 30.9,1658.7 
			26.9,1658.7 23.4,1658.7 19.4,1658.7 16.2,1658.7 12.2,1658.7 		"/>
		<polyline class="st3" points="2814.7,12.6 2811.1,17.8 2807.1,25.5 2803.6,24.6 2799.6,24 2796,25.9 2792.4,31.9 2788.4,34 
			2784.9,37.5 2780.9,44.8 2777.7,54.5 2773.7,54.8 2770.2,55.7 2766.6,67.8 2762.6,72.4 2759,74.2 2755,74.3 2751.5,81.2 
			2747.9,83.4 2743.9,84.4 2740.3,85.9 2736.3,87.2 2733.2,88.8 2729.2,93.1 2725.6,97.6 2722.1,100.7 2718.1,103.6 2714.5,105.1 
			2710.5,106.9 2706.9,107.9 2703.4,113.9 2699.3,118.8 2695.8,120.8 2691.8,120.6 2688.7,121.2 2684.6,129.6 2681.1,130.9 
			2677.5,132.9 2673.5,133.8 2670,132.9 2665.9,135.9 2662.4,135.6 2658.8,136.1 2654.8,139.9 2651.2,141.9 2647.7,142.6 
			2644.1,144.2 2640.1,143.6 2636.5,141.8 2633,145.4 2629,182.9 2625.4,184.6 2621.4,187.1 2617.8,186.1 2614.3,186.6 
			2610.3,184.2 2606.7,179.9 2602.7,178.9 2599.6,178.4 2595.6,195.1 2592,190.8 2588.4,189.6 2584.4,185.2 2580.9,183.9 
			2576.9,183.6 2573.3,185.4 2569.7,184.4 2565.7,182.6 2562.2,180.6 2558.2,178.1 2555,177.4 2551,177.9 2547.5,175.1 
			2543.9,174.4 2539.9,177.9 2536.3,176.1 2532.3,179.1 2528.8,177.1 2525.2,174.9 2521.2,173.9 2517.6,172.1 2513.6,171.6 
			2510.5,170.1 2506.5,169.2 2502.9,167.6 2499.4,165.6 2495.4,164.1 2491.8,173.6 2487.8,172.9 2484.2,170.9 2480.7,170.1 
			2476.6,168.8 2473.1,169.6 2469.5,166.9 2466,165.4 2461.9,166.4 2458.4,161.9 2454.8,161.4 2450.8,158.6 2447.2,158.2 
			2443.2,158.1 2439.7,158.6 2436.1,159.9 2432.1,157.9 2428.5,155.1 2424.5,153.6 2421.4,151.6 2417.4,150.6 2413.8,149.4 
			2410.3,148.8 2406.3,153.2 2402.7,161.1 2398.7,162.6 2395.1,160.2 2391.6,159.6 2387.6,168.2 2384,167.2 2380,165.2 
			2376.9,165.4 2372.9,165.1 2369.3,163.4 2365.7,164.9 2361.7,165.4 2358.2,164.9 2354.2,166.1 2350.6,165.4 2347,166.8 
			2343,164.1 2339.5,162.4 2335.5,162.6 2332.3,163.9 2328.3,353.5 2324.8,352 2321.2,349.9 2317.2,345.5 2313.6,341.5 
			2309.6,340.1 2306.1,336.6 2302.5,332.2 2298.5,331.1 2294.9,327.8 2291.4,318.1 2287.8,359.5 2283.8,374 2280.2,373.2 
			2276.7,375 2272.7,377.1 2269.1,379 2265.1,378.2 2261.5,377.6 2258,376.9 2253.9,378.8 2250.4,379 2246.4,380.4 2243.3,381 
			2239.2,399.5 2235.7,680 2232.1,681.3 2228.1,688 2224.5,688 2220.5,690 2217,690.3 2213.4,689.7 2209.4,700.5 2205.8,705.2 
			2201.8,706.8 2198.7,707 2194.7,707 2191.1,706.2 2187.6,706.8 2183.6,705.2 2180,705.8 2176,704.8 2172.4,705.2 2168.9,703.8 
			2164.9,710.2 2161.3,711 2157.3,711.2 2154.2,711.2 2150.2,711.5 2146.6,711 2143,711.7 2139,711.3 2135.5,711.8 2131.5,712.8 
			2127.9,713.8 2124.3,716.8 2120.3,717.5 2116.8,716.7 2113.2,722.8 2109.6,723.5 2105.6,724.3 2102.1,721.5 2098.5,720 
			2094.5,716.7 2090.9,718.5 2086.9,718.5 2083.4,726.2 2079.8,725.8 2075.8,726.3 2072.2,725.5 2068.2,729.3 2065.1,729.5 
			2061.1,727.8 2057.5,726.3 2054,726.2 2049.9,724.8 2046.4,723.2 2042.4,722.3 2038.8,721.7 2035.2,721.3 2031.2,719.5 
			2027.7,716 2023.7,711.2 2020.6,707.3 2016.5,704.8 2013,700.7 2009.4,733 2005.4,729.5 2001.8,729 1997.8,727.2 1994.3,727.3 
			1990.7,727.2 1986.7,726.8 1983.1,725 1979.1,722.3 1976,720.7 1972,719.2 1968.4,724.3 1964.9,722.3 1960.9,719.3 1957.3,718.8 
			1953.3,719.5 1949.7,719 1946.2,718.2 1942.2,718.3 1938.6,716.8 1935,715.2 1931.5,743.5 1927.5,743.3 1923.9,742.2 
			1920.3,741.2 1916.3,740.2 1912.8,742.2 1908.8,743.3 1905.2,740.5 1901.6,739.8 1897.6,738.8 1894.1,743.8 1890,745.8 
			1886.9,744.8 1882.9,744.5 1879.4,741 1875.8,741.3 1871.8,746.5 1868.2,745.8 1864.2,745.5 1860.7,746.5 1857.1,746.3 
			1853.1,744.2 1849.5,744 1845.5,743.5 1842.4,744 1838.4,755.5 1834.8,752.2 1831.3,753.2 1827.2,754.3 1823.7,753.2 
			1819.7,754.2 1816.1,754.5 1812.5,754.2 1808.5,754.8 1805,754 1801,752.8 1797.9,751.7 1793.8,750.7 1790.3,747.2 1786.7,746.7 
			1782.7,745 1779.1,743.2 1775.1,745 1771.6,746.7 1768,747.3 1764,808.2 1760.4,812 1756.9,812.8 1753.3,813.3 1749.3,814.2 
			1745.7,814.7 1742.2,816 1738.2,817 1734.6,817.8 1730.6,818 1727,819 1723.5,820 1719.5,819.7 1715.9,819.5 1711.9,819.2 
			1708.8,823.2 1704.8,824.3 1701.2,823.5 1697.6,827.5 1693.6,832.8 1690.1,832.5 1686.1,833 1682.5,835.5 1678.9,837 
			1674.9,837.3 1671.4,838.2 1667.3,839.8 1664.2,841.2 1660.2,843.3 1656.7,843.7 1653.1,843.5 1649.1,843 1645.5,847.7 
			1641.5,849.8 1637.9,850.3 1634.4,850.3 1630.4,851.5 1626.8,852.2 1622.8,854.2 1619.7,867.5 1615.7,868 1612.1,867.5 
			1608.6,892.3 1604.5,891 1601,895.2 1597,896.8 1593.4,898 1589.9,902.3 1585.8,902.7 1582.3,901.5 1578.7,901.3 1575.1,899.7 
			1571.1,900.3 1567.6,898.8 1564,899 1560,898 1556.4,895.2 1552.4,892.5 1548.9,891.2 1545.3,893.3 1541.3,892.2 1537.7,916.5 
			1533.7,914 1530.6,921.3 1526.6,922 1523,920.2 1519.5,923.8 1515.5,927.7 1511.9,933.2 1507.9,931.5 1504.3,933.2 1500.8,935.3 
			1496.8,935.8 1493.2,935 1489.2,935.8 1486.1,933.2 1482.1,930.8 1478.5,928.8 1474.9,928.2 1470.9,930 1467.4,925.5 1463.4,924 
			1459.8,927.5 1456.2,924.7 1452.2,923.7 1448.7,918.3 1444.6,908.5 1441.5,902.5 1437.5,898.5 1434,892.5 1430.4,890.5 
			1426.4,883.3 1422.8,879.5 1418.8,881 1415.3,882 1411.7,882.3 1407.7,880.5 1404.1,881.8 1400.6,879.3 1397,880.3 1393,879.2 
			1389.4,882.3 1385.9,895.3 1381.8,892 1378.3,888 1374.3,889.2 1370.7,886.5 1367.1,890 1363.1,888.8 1359.6,891.3 1355.6,890 
			1352.4,890.5 1348.4,893 1344.9,907.7 1341.3,909.3 1337.3,948.2 1333.7,948.7 1329.7,953.3 1326.2,953.2 1322.6,952.8 
			1318.6,952.8 1315,952.8 1311,952.5 1307.9,952.8 1303.9,982.2 1300.3,981.3 1296.8,984.3 1292.8,985 1289.2,992.5 1285.2,1016 
			1281.6,1019 1278.1,1017.2 1274.1,1023.3 1270.5,1025.4 1266.5,1026.4 1263.4,1043.6 1259.4,1043.6 1255.8,1042.8 1252.2,1042.1 
			1248.2,1042.2 1244.7,1039.1 1240.6,1042.7 1237.1,1045.9 1233.5,1046.8 1229.5,1052.2 1226,1050.2 1222.4,1050.1 1218.8,1050.2 
			1214.8,1053.4 1211.3,1053.3 1207.7,1056.7 1203.7,1056.3 1200.1,1054.4 1196.1,1054.9 1192.6,1062.3 1189,1065.3 1185,1067.1 
			1181.4,1066.7 1177.4,1070.2 1174.3,1070.3 1170.3,1071.6 1166.7,1069.2 1163.2,1070.2 1159.1,1067.9 1155.6,1066.4 
			1151.6,1067.2 1148,1065.8 1144.4,1066.2 1140.4,1074.9 1136.9,1081.2 1132.9,1098.8 1129.7,1099.2 1125.7,1098.8 1122.2,1100.2 
			1118.6,1099.2 1114.6,1098.7 1111,1098.4 1107,1100.4 1103.5,1101.3 1099.9,1139.9 1095.9,1139.1 1092.3,1138.6 1088.3,1138.4 
			1085.2,1140.9 1081.2,1139.6 1077.6,1158.6 1074.1,1156.7 1070.1,1152.4 1066.5,1152.1 1062.5,1152.3 1058.9,1149.6 
			1055.4,1152.3 1051.4,1154.4 1047.8,1154.2 1044.2,1159.8 1040.7,1158.9 1036.7,1160.7 1033.1,1157.8 1029.5,1156.3 
			1025.5,1160.7 1022,1166.9 1018,1165.7 1014.4,1163.6 1010.8,1162.6 1006.8,1163.7 1003.3,1162.1 999.2,1161.2 996.1,1160.9 
			992.1,1160.1 988.6,1158.8 985,1160.8 981,1163.9 977.4,1166.4 973.4,1165.9 969.8,1163.9 966.3,1160.7 962.3,1163.7 
			958.7,1162.8 954.7,1159.9 951.6,1159.6 947.6,1158.9 944,1160.1 940.5,1184.9 936.4,1182.2 932.9,1180.2 928.9,1194.8 
			925.3,1194.4 921.7,1210.4 917.7,1212.2 914.2,1217.8 910.2,1217.3 907,1217.7 903,1213.8 899.5,1211.2 895.9,1219.8 
			891.9,1219.2 888.3,1220.8 884.3,1202.2 880.8,1202.4 877.2,1224.4 873.2,1227.1 869.6,1227.4 866.1,1229.4 862.5,1231.1 
			858.5,1249.2 854.9,1255.4 851.4,1257.4 847.4,1257.4 843.8,1250.8 839.8,1260.2 836.2,1274.2 832.7,1280.1 828.7,1281.7 
			825.1,1303.7 821.1,1309.2 818,1310.2 814,1311.8 810.4,1312.2 806.8,1313.4 802.8,1314.8 799.3,1316.8 795.3,1317.2 
			791.7,1317.1 788.1,1317.8 784.1,1318.1 780.5,1319.9 776.5,1321.9 773.4,1322.2 769.4,1320.8 765.9,1319.4 762.3,1339.3 
			758.3,1341.2 754.7,1344.7 750.7,1344.2 747.1,1345.8 743.6,1342.1 739.6,1331.2 736,1348.1 732,1349.3 728.9,1349.2 
			724.9,1348.8 721.3,1348.8 717.7,1349.9 713.7,1350.3 710.2,1352.1 706.2,1352.1 702.6,1351.3 699,1352.9 695,1353.6 
			691.5,1352.2 687.9,1351.8 684.3,1353.2 680.3,1351.8 676.8,1350.2 673.2,1357.4 669.2,1357.3 665.6,1358.7 661.6,1360.4 
			658.1,1362.2 654.5,1362.3 650.5,1361.9 646.9,1362.4 642.9,1365.7 639.8,1366.1 635.8,1376.3 632.2,1375.9 628.7,1379.2 
			624.7,1378.8 621.1,1427.9 617.1,1428.9 613.5,1429.3 610,1428.9 606,1428.6 602.4,1427.7 598.4,1429.3 595.3,1429.2 
			591.3,1427.3 587.7,1427.6 584.1,1427.4 580.1,1426.7 576.6,1447.4 572.5,1447.6 569,1448.1 565.4,1449.4 561.4,1448.2 
			557.8,1447.6 553.8,1446.1 550.7,1451.4 546.7,1450.4 543.2,1451.2 539.6,1453.8 535.6,1464.8 532,1474.9 528,1475.2 
			524.4,1476.3 520.9,1477.6 516.9,1478.8 513.3,1475.8 509.7,1477.6 506.2,1478.8 502.2,1477.2 498.6,1478.1 495,1478.8 
			491,1477.1 487.5,1478.7 483.5,1480.7 479.9,1480.4 476.3,1480.9 472.3,1481.2 468.8,1482.8 464.8,1482.9 461.6,1484.2 
			457.6,1486.3 454.1,1487.7 450.5,1483.6 446.5,1485.9 442.9,1484.2 438.9,1487.9 435.4,1485.2 431.8,1487.2 427.8,1493.6 
			424.2,1497.6 420.2,1497.6 417.1,1496.3 413.1,1500.8 409.5,1500.8 406,1510.2 402,1514.7 398.4,1554.6 394.4,1555.8 
			390.8,1560.3 387.3,1561.2 383.2,1562.9 379.7,1564.4 375.7,1556.6 372.6,1571.2 368.6,1585.2 365,1586.3 361.4,1580.6 
			357.4,1588.9 353.9,1590.6 349.8,1590.8 346.3,1593.8 342.7,1595.2 338.7,1596.4 335.1,1595.2 331.6,1595.9 328,1596.8 
			324,1597.4 320.4,1600.7 316.9,1603.1 312.9,1604.7 309.3,1604.7 305.3,1605.6 301.7,1605.1 298.2,1605.7 294.2,1607.2 
			290.6,1620.8 286.6,1621.4 283.5,1621.6 279.5,1621.3 275.9,1619.6 272.3,1620.2 268.3,1619.8 264.8,1621.3 260.8,1622.6 
			257.2,1623.6 253.6,1623.7 249.6,1624.2 246.1,1624.3 242.1,1625.8 238.9,1626.2 234.9,1626.8 231.4,1626.2 227.8,1626.1 
			223.8,1626.9 220.2,1627.6 216.2,1627.7 212.7,1628.1 209.1,1628.4 205.1,1653.2 201.5,1652.8 197.5,1652.7 194.4,1652.8 
			190.4,1654.4 186.8,1654.2 183.3,1654.4 179.3,1655.2 175.7,1654.9 171.7,1654.8 168.1,1655.4 164.6,1655.4 160.5,1655.8 
			157,1656.4 153.4,1657.2 149.9,1657.2 145.9,1657.2 142.3,1657.2 138.7,1657.1 134.7,1657.1 131.2,1657.2 127.1,1657.4 
			123.6,1657.8 120,1657.8 116,1657.8 112.4,1657.8 108.4,1657.8 105.3,1657.8 101.3,1658.2 97.7,1658.1 94.2,1658.2 90.2,1658.2 
			86.6,1658.2 82.6,1658.2 79,1658.2 75.5,1658.2 71.5,1658.2 67.9,1658.2 63.9,1658.2 60.8,1658.6 56.8,1658.4 53.2,1658.3 
			49.6,1658.3 45.6,1658.4 42.1,1658.7 38.1,1658.7 34.5,1658.7 30.9,1658.7 26.9,1658.7 23.4,1658.7 19.4,1658.7 16.2,1658.7 
			12.2,1658.7 		"/>
		<polyline class="st4" points="12.2,1658.7 16.2,1658.7 19.4,1658.7 23.4,1658.7 26.9,1658.7 30.9,1658.7 34.5,1658.7 38.1,1658.7 
			42.1,1658.7 45.6,1658.7 49.6,1658.7 53.2,1658.7 56.8,1658.7 60.8,1658.7 63.9,1658.6 67.9,1658.6 71.5,1658.6 75.5,1658.6 
			79,1658.6 82.6,1658.6 86.6,1658.6 90.2,1658.6 94.2,1658.6 97.7,1658.6 101.3,1658.6 105.3,1658.3 108.4,1658.3 112.4,1658.3 
			116,1658.3 120,1658.3 123.6,1658.3 127.1,1658.3 131.2,1658.3 134.7,1658.3 138.7,1658.3 142.3,1658.3 145.9,1658.3 
			149.9,1658.3 153.4,1658.3 157,1658.1 160.5,1657.4 164.6,1657.3 168.1,1657.3 171.7,1657.2 175.7,1657.2 179.3,1657.4 
			183.3,1657.2 186.8,1657.2 190.4,1657.2 194.4,1656.3 197.5,1656.1 201.5,1656.3 205.1,1656.4 209.1,1656.4 212.7,1656.1 
			216.2,1656.2 220.2,1655.9 223.8,1655.2 227.8,1654.9 231.4,1655.1 234.9,1655.4 238.9,1654.9 242.1,1654.9 246.1,1654.3 
			249.6,1654.3 253.6,1654.1 257.2,1654.1 260.8,1653.8 264.8,1652.6 268.3,1653.2 272.3,1653.6 275.9,1653.4 279.5,1653.2 
			283.5,1653.2 286.6,1653.2 290.6,1653.2 294.2,1640.6 298.2,1640.1 301.7,1639.4 305.3,1639.6 309.3,1638.6 312.9,1639.1 
			316.9,1639.1 320.5,1637.3 324,1635.2 328,1634.8 331.6,1634.4 335.1,1633.9 338.7,1634.8 342.7,1634.3 346.3,1633.9 
			349.8,1632.3 353.9,1632.4 357.4,1631.8 361.4,1630.8 365,1629.2 368.6,1628.4 372.6,1628.8 375.7,1627.4 379.7,1627.3 
			383.3,1626.8 387.3,1626.3 390.8,1626.1 394.4,1622.8 398.4,1622.2 402,1621.9 406,1618.1 409.5,1618.8 413.1,1618.8 
			417.1,1617.2 420.2,1616.2 424.2,1616.2 427.8,1616.2 431.8,1615.4 435.4,1614.7 438.9,1614.3 442.9,1614.3 446.5,1613.8 
			450.5,1613.3 454.1,1613.8 457.6,1612.6 461.6,1610.8 464.8,1609.6 468.8,1610.2 472.3,1609.7 476.3,1609.7 479.9,1609.6 
			483.5,1609.6 487.5,1609.1 491,1608.6 495,1609.4 498.6,1608.3 502.2,1607.4 506.2,1608.2 509.7,1607.4 513.3,1608.1 
			516.9,1608.9 520.9,1608.9 524.4,1608.2 528,1607.3 532,1607.1 535.6,1606.6 539.6,1606.4 543.1,1604.8 546.7,1604.3 
			550.7,1604.8 553.8,1603.8 557.8,1604.4 561.4,1605.1 565.4,1605.9 569,1605.8 572.5,1605.8 576.6,1606.3 580.1,1606.7 
			584.1,1606.2 587.7,1606.2 591.3,1605.7 595.3,1606.3 598.4,1606.4 602.4,1605.8 606,1606.2 610,1606.8 613.5,1606.8 
			617.1,1606.2 621.1,1605.8 624.7,1605.6 628.7,1605.8 632.2,1603.8 635.8,1603.7 639.8,1603.7 642.9,1603.6 646.9,1601.3 
			650.5,1601.7 654.5,1601.3 658.1,1601.2 661.6,1600.4 665.6,1599.2 669.2,1598.9 673.2,1599.6 676.8,1596.6 680.3,1597.3 
			684.3,1598.3 687.9,1597.2 691.5,1597.1 695,1597.4 699,1597.6 702.6,1597.2 706.2,1597.6 710.2,1597.4 713.7,1596.8 
			717.7,1597.4 721.3,1597.7 724.9,1597.6 728.9,1597.8 732,1597.8 736,1598.4 739.6,1596.3 743.6,1595.7 747.1,1597.1 
			750.7,1595.9 754.7,1595.9 758.3,1594.1 762.3,1594.6 765.9,1594.2 769.4,1594.9 773.4,1595.9 776.5,1596.2 780.6,1595.9 
			784.1,1594.8 788.1,1594.8 791.7,1594.7 795.2,1595.2 799.3,1594.7 802.8,1593.9 806.8,1593.1 810.4,1592.8 814,1592.8 
			818,1592.7 821.1,1591.9 825.1,1591.8 828.7,1591.7 832.7,1591.2 836.2,1592.4 839.8,1592.8 843.8,1592.1 847.4,1592.4 
			851.4,1592.7 854.9,1591.7 858.5,1591.2 862.5,1590.4 866.1,1590.1 869.6,1587.9 873.2,1587.4 877.2,1586.4 880.8,1586.9 
			884.3,1587.2 888.3,1586.1 891.9,1585.2 895.9,1585.6 899.5,1584.2 903,1584.6 907,1584.2 910.2,1584.2 914.2,1584.7 
			917.7,1583.1 921.7,1582.3 925.3,1582.1 928.9,1582.8 932.9,1574.1 936.4,1575.8 940.4,1577.3 944,1574.6 947.6,1574.8 
			951.6,1574.8 954.7,1575.9 958.7,1577.8 962.3,1578.1 966.3,1578.6 969.8,1580.7 973.4,1582.1 977.4,1581.8 981,1581.7 
			985,1581.8 988.6,1580.9 992.1,1580.8 996.1,1582.1 999.2,1582.3 1003.3,1582.2 1006.8,1581.4 1010.8,1580.2 1014.4,1578.8 
			1017.9,1579.3 1022,1580.2 1025.5,1580.2 1029.5,1582.2 1033.1,1583.1 1036.7,1583.9 1040.7,1583.8 1044.2,1583.7 1047.8,1583.7 
			1051.4,1583.3 1055.4,1580.9 1058.9,1578.8 1062.5,1579.8 1066.5,1579.1 1070.1,1578.8 1074.1,1581.2 1077.6,1582.6 
			1081.2,1582.8 1085.2,1583.3 1088.3,1581.2 1092.3,1579.7 1095.9,1580.6 1099.9,1581.2 1103.5,1581.8 1107,1582.2 1111,1580.2 
			1114.6,1580.3 1118.6,1581.7 1122.2,1581.8 1125.7,1579.8 1129.7,1580.1 1132.9,1579.9 1136.9,1562.2 1140.4,1561.9 
			1144.4,1560.7 1148,1559.9 1151.6,1560.3 1155.6,1560.2 1159.1,1561.1 1163.2,1562.4 1166.7,1561.6 1170.3,1563.1 1174.3,1562.4 
			1177.4,1563.2 1181.4,1561.6 1185,1562.1 1189,1561.7 1192.5,1560.8 1196.1,1557.7 1200.1,1555.9 1203.7,1556.8 1207.7,1556.8 
			1211.3,1556.4 1214.8,1557.4 1218.8,1555.4 1222.4,1554.1 1226,1554.7 1229.5,1557.8 1233.5,1553.4 1237.1,1552.4 1240.7,1551.8 
			1244.7,1550.1 1248.2,1552.9 1252.2,1553.8 1255.8,1554.8 1259.4,1556.4 1263.4,1556.8 1266.5,1556.8 1270.5,1556.4 
			1274.1,1555.1 1278.1,1551.9 1281.6,1552.1 1285.2,1550.8 1289.2,1550.8 1292.8,1550.8 1296.8,1551.8 1300.3,1550.1 
			1303.9,1551.8 1307.9,1526.4 1311,1525.8 1315,1525.7 1318.6,1524.7 1322.6,1524.7 1326.2,1524.7 1329.7,1524.7 1333.7,1522.2 
			1337.3,1522.1 1341.3,1524.2 1344.9,1524.8 1348.4,1526.2 1352.4,1525.2 1355.6,1525.1 1359.6,1525.2 1363.1,1522.2 
			1367.1,1522.9 1370.7,1522.7 1374.3,1523.8 1378.3,1522.4 1381.8,1524.1 1385.9,1525.9 1389.4,1525.3 1393,1526.2 1397,1525.6 
			1400.6,1524.8 1404.1,1524.7 1407.7,1525.4 1411.7,1525.8 1415.2,1524.8 1418.8,1522.6 1422.8,1520.3 1426.4,1520.9 
			1430.4,1522.8 1434,1521.1 1437.5,1522.4 1441.5,1521.8 1444.6,1523.1 1448.7,1525.4 1452.2,1526.1 1456.2,1525.2 1459.8,1525.4 
			1463.4,1519.4 1467.4,1519.2 1470.9,1519.8 1474.9,1521.6 1478.5,1518.8 1482.1,1518.6 1486.1,1519.8 1489.2,1520.8 
			1493.2,1519.9 1496.8,1519.3 1500.8,1519.1 1504.3,1516.7 1507.9,1516.1 1511.9,1516.8 1515.5,1519.1 1519.5,1516.2 1523,1515.8 
			1526.6,1516.2 1530.6,1515.7 1533.7,1516.6 1537.7,1517.6 1541.3,1517.8 1545.3,1517.4 1548.9,1517.2 1552.4,1518.6 
			1556.4,1520.8 1560,1522.6 1564,1522.6 1567.6,1522.9 1571.1,1523.2 1575.2,1523.6 1578.7,1524.6 1582.3,1524.8 1585.8,1525.7 
			1589.8,1525.8 1593.4,1524.8 1597,1524.7 1601,1524.8 1604.5,1522.4 1608.6,1522.9 1612.1,1521.8 1615.7,1522.4 1619.7,1522.6 
			1622.8,1522.3 1626.8,1522.1 1630.4,1522.2 1634.4,1521.3 1638,1521.8 1641.5,1521.6 1645.5,1520.7 1649.1,1520.8 1653.1,1521.6 
			1656.7,1521.8 1660.2,1521.9 1664.2,1521.8 1667.3,1520.6 1671.4,1520.3 1674.9,1520.3 1678.9,1519.9 1682.5,1519.3 
			1686.1,1518.4 1690.1,1518.4 1693.6,1519.1 1697.6,1515.4 1701.2,1514.8 1704.8,1515.6 1708.8,1515.2 1711.9,1512.2 
			1715.9,1512.3 1719.5,1512.8 1723.5,1513.2 1727,1513.4 1730.6,1513.2 1734.6,1513.2 1738.2,1512.7 1742.2,1512.4 1745.7,1512.3 
			1749.3,1512.3 1753.3,1512.6 1756.9,1512.6 1760.4,1512.4 1764,1511.8 1768,1512.2 1771.6,1512.8 1775.1,1512.2 1779.1,1511.1 
			1782.7,1511.4 1786.7,1511.9 1790.3,1512.1 1793.8,1512.4 1797.9,1512.4 1801,1512.8 1805,1513.2 1808.5,1513.4 1812.5,1513.7 
			1816.1,1513.8 1819.7,1513.6 1823.7,1513.7 1827.2,1514.2 1831.3,1513.8 1834.8,1513.8 1838.4,1514.8 1842.4,1514.4 
			1845.5,1514.2 1849.5,1514.6 1853.1,1514.7 1857.1,1515.6 1860.7,1515.4 1864.2,1515.6 1868.2,1516.3 1871.8,1516.6 
			1875.8,1510.8 1879.4,1510.4 1882.9,1511.8 1886.9,1511.3 1890,1511.8 1894.1,1512.1 1897.6,1511.1 1901.6,1510.9 1905.2,1510.3 
			1908.8,1511.1 1912.8,1510.6 1916.3,1511.1 1920.3,1511.7 1923.9,1511.8 1927.5,1511.8 1931.5,1511.8 1935,1511.4 1938.6,1511.7 
			1942.2,1511.9 1946.2,1511.8 1949.7,1511.8 1953.3,1511.7 1957.3,1511.2 1960.9,1512.1 1964.9,1513.8 1968.4,1514.2 1972,1514.2 
			1976,1513.9 1979.1,1514.4 1983.1,1515.2 1986.7,1515.7 1990.7,1515.9 1994.3,1515.8 1997.8,1515.6 2001.8,1516.6 2005.4,1516.8 
			2009.4,1517.9 2013,1517.3 2016.5,1518.3 2020.6,1518.6 2023.7,1518.9 2027.7,1519.3 2031.2,1518.9 2035.3,1518.9 2038.8,1518.6 
			2042.4,1518.6 2046.4,1518.6 2049.9,1518.7 2054,1518.6 2057.5,1518.8 2061.1,1519.1 2065.1,1519.4 2068.2,1518.8 2072.2,1518.7 
			2075.8,1518.9 2079.8,1519.1 2083.4,1519.2 2086.9,1518.8 2090.9,1518.9 2094.5,1517.3 2098.5,1517.3 2102.1,1518.1 
			2105.6,1518.2 2109.6,1518.3 2113.2,1518.1 2116.8,1517.7 2120.3,1517.9 2124.3,1517.2 2127.9,1517.6 2131.5,1517.2 
			2135.5,1516.4 2139,1516.1 2143,1515.9 2146.6,1516.1 2150.2,1516.2 2154.2,1516.6 2157.3,1516.3 2161.3,1516.6 2164.9,1515.9 
			2168.9,1515.6 2172.4,1515.2 2176,1514.2 2180,1515.2 2183.6,1514.8 2187.6,1515.3 2191.1,1514.8 2194.7,1514.9 2198.7,1514.9 
			2201.8,1514.8 2205.8,1514.4 2209.4,1514.1 2213.4,1513.9 2217,1513.6 2220.5,1513.9 2224.5,1512.6 2228.1,1512.8 2232.1,1513.1 
			2235.7,1512.4 2239.2,1512.8 2243.3,1512.1 2246.4,1512.2 2250.4,1512.2 2253.9,1512.7 2258,1511.8 2261.5,1512.6 2265.1,1512.8 
			2269.1,1512.3 2272.6,1511.9 2276.7,1511.8 2280.2,1511.2 2283.8,1511.9 2287.8,1511.9 2291.4,1512.2 2294.9,1511.8 
			2298.5,1511.6 2302.5,1511.1 2306.1,1511.2 2309.6,1511.1 2313.6,1508.7 2317.2,1508.4 2321.2,1508.2 2324.8,1506.8 
			2328.3,1506.3 2332.3,1505.9 2335.5,1506.2 2339.5,1505.7 2343,1505.8 2347,1505.9 2350.6,1505.6 2354.2,1505.8 2358.2,1506.1 
			2361.7,1505.9 2365.7,1505.1 2369.3,1503.9 2372.9,1504.7 2376.9,1504.9 2380,1504.1 2384,1504.3 2387.6,1504.6 2391.6,1503.8 
			2395.1,1503.7 2398.7,1503.3 2402.7,1503.1 2406.3,1503.2 2410.3,1502.8 2413.8,1503.2 2417.4,1502.8 2421.4,1502.7 
			2424.5,1503.1 2428.5,1503.6 2432.1,1503.8 2436.1,1503.8 2439.7,1502.9 2443.2,1502.4 2447.2,1502.2 2450.8,1502.2 
			2454.8,1501.2 2458.4,1501.9 2461.9,1502.2 2466,1502.2 2469.5,1502.2 2473.1,1502.3 2476.6,1500.8 2480.7,1500.4 2484.2,1500.8 
			2487.8,1501.2 2491.8,1500.9 2495.4,1500.6 2499.4,1500.4 2502.9,1500.7 2506.5,1500.8 2510.5,1501.1 2513.6,1500.9 
			2517.6,1500.8 2521.2,1500.8 2525.2,1500.3 2528.8,1500.6 2532.3,1500.8 2536.3,1499.8 2539.9,1499.6 2543.9,1499.3 
			2547.5,1499.2 2551,1499.8 2555,1499.8 2558.2,1499.8 2562.2,1499.8 2565.7,1499.2 2569.7,1499.6 2573.3,1500.2 2576.9,1500.6 
			2580.9,1500.6 2584.4,1500.2 2588.4,1500.8 2592,1500.1 2595.6,1500.3 2599.6,1500.8 2602.7,1501.2 2606.7,1501.4 2610.3,1502.2 
			2614.3,1502.2 2617.8,1502.2 2621.4,1502.2 2625.4,1502.1 2629,1501.8 2633,1501.4 2636.5,1500.8 2640.1,1500.8 2644.1,1501.4 
			2647.7,1501.7 2651.2,1501.7 2654.8,1501.9 2658.8,1501.2 2662.4,1501.1 2665.9,1501.2 2669.9,1500.2 2673.5,1500.2 
			2677.5,1500.1 2681.1,1500.2 2684.6,1500.6 2688.7,1500.4 2691.8,1500.3 2695.8,1500.2 2699.3,1500.8 2703.4,1500.2 
			2706.9,1500.3 2710.5,1499.4 2714.5,1499.4 2718.1,1499.6 2722.1,1499.4 2725.6,1498.6 2729.2,1498.3 2733.2,1498.1 
			2736.3,1497.4 2740.3,1496.7 2743.9,1497.2 2747.9,1496.4 2751.5,1496.1 2755,1496.4 2759,1496.9 2762.6,1496.6 2766.6,1496.4 
			2770.2,1496.2 2773.7,1496.7 2777.7,1496.7 2780.9,1496.6 2784.9,1496.7 2788.4,1495.8 2792.4,1495.2 2796,1493.1 2799.6,1492.9 
			2803.6,1493.3 2807.1,1493.2 2811.1,1492.8 2814.7,1493.1 		"/>
	</g>
	<g id="Layer_2_1_">
		<path class="st5" d="M11.4,1669.8c6.2,0,11.2-5,11.2-11.2s-5-11.2-11.2-11.2s-11.2,5-11.2,11.2S5.2,1669.8,11.4,1669.8"/>
		<path class="st5" d="M2816.6,1502.9c6.2,0,11.2-5,11.2-11.2s-5-11.2-11.2-11.2s-11.2,5-11.2,11.2S2810.4,1502.9,2816.6,1502.9"/>
		<path class="st5" d="M2816.6,1235.7c6.2,0,11.2-5,11.2-11.2s-5-11.2-11.2-11.2s-11.2,5-11.2,11.2S2810.4,1235.7,2816.6,1235.7"/>
		<path class="st5" d="M2816.6,787.3c6.2,0,11.2-5,11.2-11.2s-5-11.2-11.2-11.2s-11.2,5-11.2,11.2S2810.4,787.3,2816.6,787.3"/>
		<path class="st5" d="M2816.6,22.5c6.2,0,11.2-5,11.2-11.2s-5-11.2-11.2-11.2s-11.2,5-11.2,11.2S2810.4,22.5,2816.6,22.5"/>
	</g>
</g>
</svg>
