<?xml version="1.0" encoding="utf-8"?>
<!-- Generator: Adobe Illustrator 25.2.3, SVG Export Plug-In . SVG Version: 6.00 Build 0)  -->
<svg version="1.1" id="Layer_1" xmlns="http://www.w3.org/2000/svg" xmlns:xlink="http://www.w3.org/1999/xlink" x="0px" y="0px"
	 width="1884px" height="1511px" viewBox="0 0 1884 1511" style="enable-background:new 0 0 1884 1511;" xml:space="preserve">
<style type="text/css">
	.st0{fill:none;stroke:#F5F5F5;stroke-width:1.3551;stroke-miterlimit:10;}
</style>
<circle class="st0" cx="805.46" cy="496.25" r="9.13"/>
<circle class="st0" cx="1046.8" cy="451.41" r="9.13"/>
<circle class="st0" cx="1119.34" cy="748.73" r="9.13"/>
<circle class="st0" cx="277.09" cy="1359.07" r="9.13"/>
<circle class="st0" cx="133.11" cy="1432.46" r="9.13"/>
<circle class="st0" cx="498.16" cy="1303.62" r="9.13"/>
<circle class="st0" cx="414.34" cy="1265.42" r="9.13"/>
<circle class="st0" cx="450.86" cy="1349.94" r="9.13"/>
<circle class="st0" cx="332.86" cy="1274.55" r="9.13"/>
<circle class="st0" cx="305.47" cy="1023.68" r="9.13"/>
<circle class="st0" cx="144.85" cy="891.87" r="9.13"/>
<circle class="st0" cx="163.11" cy="818.42" r="9.13"/>
<circle class="st0" cx="197.88" cy="827.55" r="9.13"/>
<circle class="st0" cx="197.88" cy="748.73" r="9.13"/>
<circle class="st0" cx="258.83" cy="684.74" r="9.13"/>
<circle class="st0" cx="163.11" cy="666.48" r="9.13"/>
<circle class="st0" cx="684.94" cy="657.35" r="9.13"/>
<circle class="st0" cx="8.89" cy="88.41" r="9.13"/>
<circle class="st0" cx="719.94" cy="9.28" r="9.13"/>
<circle class="st0" cx="586.12" cy="88.41" r="9.13"/>
<circle class="st0" cx="694.07" cy="70.15" r="9.13"/>
<circle class="st0" cx="30.6" cy="845.81" r="9.13"/>
<circle class="st0" cx="108.32" cy="827.55" r="9.13"/>
<circle class="st0" cx="405.21" cy="938.8" r="9.13"/>
<circle class="st0" cx="1137.6" cy="1165.98" r="9.13"/>
<circle class="st0" cx="1137.6" cy="1240.5" r="9.13"/>
<circle class="st0" cx="1194.24" cy="1175.11" r="9.13"/>
<circle class="st0" cx="1277.07" cy="1256.29" r="9.13"/>
<circle class="st0" cx="870.89" cy="1501.72" r="9.13"/>
<circle class="st0" cx="947.68" cy="1312.75" r="9.13"/>
<circle class="st0" cx="441.73" cy="1231.37" r="9.13"/>
<circle class="st0" cx="1322.07" cy="460.54" r="9.13"/>
<circle class="st0" cx="1137.6" cy="638.68" r="9.13"/>
<circle class="st0" cx="1424.01" cy="693.87" r="9.13"/>
<circle class="st0" cx="1232.19" cy="560.14" r="9.13"/>
<circle class="st0" cx="1480.22" cy="929.67" r="9.13"/>
<circle class="st0" cx="1760.47" cy="781.8" r="9.13"/>
<circle class="st0" cx="1875.11" cy="693.87" r="9.13"/>
<circle class="st0" cx="1660.38" cy="836.68" r="9.13"/>
<circle class="st0" cx="1713.58" cy="693.87" r="9.13"/>
<circle class="st0" cx="1713.58" cy="781.8" r="9.13"/>
<circle class="st0" cx="1713.58" cy="818.42" r="9.13"/>
<circle class="st0" cx="1295.33" cy="442.28" r="9.13"/>
<circle class="st0" cx="507.29" cy="712.13" r="9.13"/>
<circle class="st0" cx="441.73" cy="460.54" r="9.13"/>
<circle class="st0" cx="314.6" cy="469.67" r="9.13"/>
<circle class="st0" cx="432.6" cy="405.82" r="9.13"/>
<circle class="st0" cx="277.09" cy="379.86" r="9.13"/>
<circle class="st0" cx="889.15" cy="326.3" r="9.13"/>
<circle class="st0" cx="188.75" cy="344.56" r="9.13"/>
</svg>
